<?xml version="1.0" standalone="no"?>
<!DOCTYPE svg PUBLIC "-//W3C//DTD SVG 20010904//EN"
 "http://www.w3.org/TR/2001/REC-SVG-20010904/DTD/svg10.dtd">
<svg version="1.0" xmlns="http://www.w3.org/2000/svg"
 width="972.000000pt" height="437.000000pt" viewBox="0 0 972.000000 437.000000"
 preserveAspectRatio="xMidYMid meet">

<g transform="translate(0.000000,437.000000) scale(0.100000,-0.100000)"
fill="#ffffff" stroke="none">
<path d="M5740 3995 l0 -305 40 0 40 0 0 145 0 145 160 0 160 0 0 -145 0 -145
40 0 40 0 0 305 0 305 -40 0 -40 0 0 -125 0 -125 -160 0 -160 0 0 125 0 125
-40 0 -40 0 0 -305z"/>
<path d="M8374 3591 c-87 -21 -171 -99 -196 -184 -19 -62 -16 -192 5 -254 43
-124 125 -183 256 -183 125 0 202 49 246 154 18 43 14 51 -30 60 -28 6 -31 4
-53 -43 -32 -70 -70 -95 -152 -99 -127 -6 -191 64 -198 218 -2 47 1 104 7 127
42 156 260 195 331 59 23 -41 25 -43 58 -35 18 4 36 9 38 12 11 11 -38 87 -76
120 -59 50 -148 68 -236 48z"/>
<path d="M5740 3285 l0 -305 35 0 35 0 2 238 3 237 159 -237 159 -238 44 0 43
0 0 305 0 305 -40 0 -40 0 -2 -236 -3 -237 -158 237 -157 236 -40 0 -40 0 0
-305z"/>
<path d="M8800 3285 l0 -305 45 0 45 0 0 140 0 140 155 0 155 0 0 -140 0 -140
40 0 40 0 0 305 0 305 -40 0 -40 0 0 -125 0 -125 -155 0 -155 0 0 125 0 125
-45 0 -45 0 0 -305z"/>
<path d="M2910 2990 l-625 -360 -5 -711 -5 -710 -437 -252 c-241 -139 -438
-257 -438 -263 0 -5 6 -18 13 -28 12 -17 44 0 423 219 225 130 423 245 440
256 l31 19 613 -355 613 -354 47 27 c25 15 308 178 628 362 l581 335 3 710 3
710 410 237 c225 130 411 242 413 247 2 6 -2 19 -10 29 -12 18 -37 5 -427
-220 -241 -139 -422 -237 -432 -235 -12 3 -957 544 -1184 679 l-31 18 -624
-360z m1253 -74 l567 -328 0 -688 0 -687 -562 -326 c-310 -178 -579 -334 -599
-346 l-35 -21 -595 344 -594 343 0 693 0 694 594 343 595 343 30 -18 c17 -10
286 -166 599 -346z"/>
<path d="M3532 3069 c-7 -12 -11 -23 -8 -26 3 -3 230 -135 503 -294 l498 -288
17 22 c9 12 13 25 9 30 -11 11 -991 577 -999 577 -4 0 -13 -9 -20 -21z"/>
<path d="M2490 1900 l0 -580 30 0 30 0 0 580 0 580 -30 0 -30 0 0 -580z"/>
<path d="M4030 1054 c-272 -157 -499 -289 -503 -294 -9 -8 12 -50 24 -50 8 0
991 568 1001 578 4 4 -1 17 -10 30 l-17 22 -495 -286z"/>
<path d="M9445 3273 c-50 -13 -103 -77 -91 -109 8 -20 45 -17 53 4 22 61 91
82 131 39 41 -43 24 -98 -35 -118 -59 -19 -72 -49 -22 -49 60 0 98 -35 98 -90
1 -97 -132 -129 -169 -41 -10 25 -18 31 -41 31 -33 0 -35 -9 -15 -48 27 -52
62 -75 118 -79 93 -7 168 55 168 139 0 50 -13 74 -53 98 -26 16 -28 20 -14 26
21 8 47 55 47 84 0 74 -93 134 -175 113z"/>
<path d="M7645 2899 c-236 -137 -435 -249 -442 -249 -6 0 -198 108 -425 239
-408 236 -413 239 -430 219 -10 -11 -18 -23 -18 -27 1 -3 166 -101 368 -217
l367 -212 3 -546 2 -546 30 0 30 0 0 525 c0 289 2 525 4 525 3 0 20 -9 38 -20
33 -19 34 -19 63 0 17 11 33 20 38 20 4 0 7 -236 7 -525 l0 -525 30 0 30 0 2
547 3 547 382 221 c210 121 382 223 383 226 0 4 -8 16 -17 27 -18 21 -21 19
-448 -229z"/>
<path d="M7109 1466 c-136 -48 -194 -140 -194 -306 0 -84 3 -102 28 -152 54
-111 151 -164 281 -156 86 6 136 30 193 90 73 80 97 219 57 344 -25 80 -99
156 -174 178 -64 19 -142 20 -191 2z m177 -75 c88 -40 132 -135 121 -263 -7
-83 -35 -137 -90 -175 -36 -25 -49 -28 -118 -28 -71 0 -80 2 -116 31 -60 48
-86 110 -86 208 1 123 35 189 118 227 51 24 119 24 171 0z"/>
<path d="M1000 761 c-124 -40 -190 -139 -198 -291 -7 -139 42 -236 148 -294
155 -85 349 -14 410 149 31 85 26 217 -13 291 -27 54 -76 102 -130 131 -36 18
-175 28 -217 14z m167 -72 c38 -14 80 -56 106 -104 17 -32 21 -57 21 -130 0
-97 -17 -146 -66 -192 -74 -69 -202 -69 -276 0 -49 45 -66 95 -66 192 -1 131
26 181 124 232 30 16 118 17 157 2z"/>
<path d="M210 455 l0 -305 40 0 40 0 0 145 0 146 158 -3 157 -3 3 -142 3 -143
39 0 40 0 0 305 0 305 -40 0 -40 0 0 -125 0 -125 -160 0 -160 0 0 125 0 125
-40 0 -40 0 0 -305z"/>
</g>
</svg>
