<?xml version="1.0" standalone="no"?>
<!DOCTYPE svg PUBLIC "-//W3C//DTD SVG 20010904//EN"
 "http://www.w3.org/TR/2001/REC-SVG-20010904/DTD/svg10.dtd">
<svg version="1.0" xmlns="http://www.w3.org/2000/svg"
 width="896.000000pt" height="957.000000pt" viewBox="0 0 896.000000 957.000000"
 preserveAspectRatio="xMidYMid meet">

<g transform="translate(0.000000,957.000000) scale(0.100000,-0.100000)"
fill="#ffffff" stroke="none">
<path d="M5685 9198 c-3 -7 -4 -267 -3 -578 l3 -565 72 -3 73 -3 2 453 3 452
290 -452 290 -452 78 0 77 0 0 580 0 580 -75 0 -75 0 -2 -446 -3 -446 -286
443 -286 444 -77 3 c-55 2 -78 -1 -81 -10z"/>
<path d="M6730 8630 l0 -580 75 0 75 0 0 275 0 275 285 0 285 0 0 -275 0 -275
75 0 75 0 0 580 0 580 -75 0 -75 0 0 -235 0 -235 -285 0 -285 0 0 235 0 235
-75 0 -75 0 0 -580z"/>
<path d="M7995 8599 c-87 -11 -151 -57 -185 -131 -26 -57 -26 -98 -1 -98 10 0
33 -3 50 -6 26 -5 31 -3 31 12 0 11 9 38 19 61 46 100 215 113 271 21 51 -84
9 -176 -138 -300 -161 -137 -247 -228 -266 -283 -9 -27 -16 -55 -16 -62 0 -10
53 -13 270 -13 l270 0 0 50 0 50 -195 0 c-110 0 -195 4 -195 9 0 5 34 40 76
78 242 216 281 263 305 356 21 86 -30 190 -114 234 -40 20 -120 30 -182 22z"/>
<path d="M6080 7057 l0 -742 -252 -146 c-139 -80 -583 -336 -985 -568 l-733
-423 -547 177 c-302 98 -641 208 -754 245 l-206 67 -12 -45 c-7 -29 -8 -47 -2
-51 5 -3 338 -112 740 -241 l731 -235 0 -1130 0 -1130 -741 -240 c-689 -223
-740 -241 -734 -260 3 -11 8 -32 11 -46 l6 -26 86 27 c48 15 387 125 754 244
l667 216 348 -201 c191 -111 486 -282 655 -380 169 -99 311 -179 316 -179 15
0 54 72 45 81 -4 4 -222 131 -483 282 -261 150 -555 319 -652 376 l-178 103 0
1132 0 1132 984 567 984 567 656 -380 c361 -209 659 -380 661 -380 3 0 14 19
26 42 17 33 18 43 7 49 -7 4 -301 174 -653 378 l-640 370 -3 746 -2 745 -50 0
-50 0 0 -743z"/>
<path d="M1460 5865 l0 -575 75 0 75 0 2 446 3 446 285 -443 285 -444 83 -3
82 -3 0 576 0 575 -75 0 -75 0 -2 -447 -3 -447 -289 447 -288 447 -79 0 -79 0
0 -575z"/>
<path d="M6127 5809 l-26 -42 512 -297 c282 -162 538 -310 569 -328 l57 -33
21 42 c12 23 18 45 13 49 -4 3 -244 143 -533 310 -289 166 -539 311 -557 322
l-31 19 -25 -42z"/>
<path d="M7700 5145 l0 -575 70 0 70 0 0 447 c0 376 2 445 13 433 8 -8 139
-210 292 -447 l277 -433 79 0 79 0 0 575 0 575 -75 0 -75 0 -2 -445 -3 -444
-285 444 -285 445 -77 0 -78 0 0 -575z"/>
<path d="M900 4543 c-223 -306 -406 -564 -408 -574 -2 -10 69 -116 166 -251
328 -454 604 -833 613 -842 11 -13 80 36 74 52 -2 7 -172 242 -376 522 -241
331 -368 514 -363 522 8 12 195 271 591 815 101 138 183 255 183 260 0 7 -61
53 -71 53 -2 0 -187 -250 -409 -557z"/>
<path d="M4490 3960 l0 -920 45 0 45 0 0 920 0 920 -45 0 -45 0 0 -920z"/>
<path d="M1311 4402 l-332 -457 33 -27 c18 -15 36 -28 40 -28 6 0 668 905 668
914 0 2 -17 15 -38 29 l-39 25 -332 -456z"/>
<path d="M8095 4298 c-3 -7 -6 -341 -8 -743 l-2 -729 -150 -86 c-82 -48 -256
-147 -385 -222 -129 -74 -343 -197 -475 -273 -132 -76 -252 -146 -267 -154
-16 -9 -28 -22 -28 -29 0 -16 31 -72 40 -72 6 0 312 176 955 549 193 112 365
211 383 219 l32 16 -2 765 -3 766 -43 3 c-28 2 -44 -1 -47 -10z"/>
<path d="M7165 2782 c-292 -169 -547 -317 -568 -329 l-38 -23 23 -40 c13 -22
25 -40 28 -40 11 0 1125 649 1127 657 2 4 -7 24 -20 45 l-22 36 -530 -306z"/>
<path d="M1460 2105 l0 -575 75 0 75 0 2 446 3 446 285 -443 285 -444 83 -3
82 -3 0 576 0 575 -75 0 -75 0 -2 -446 -3 -446 -288 446 -289 446 -79 0 -79 0
0 -575z"/>
<path d="M5685 2228 c-3 -7 -4 -267 -3 -578 l3 -565 70 0 70 0 5 450 5 450
279 -435 c153 -239 286 -443 294 -453 13 -15 29 -17 86 -15 l71 3 3 578 2 577
-75 0 -75 0 -2 -446 -3 -446 -286 443 -286 444 -77 3 c-55 2 -78 -1 -81 -10z"/>
<path d="M1470 790 l0 -580 75 0 75 0 0 270 0 270 285 0 285 0 0 -270 0 -270
75 0 75 0 0 580 0 580 -75 0 -75 0 0 -240 0 -240 -285 0 -285 0 0 240 0 240
-75 0 -75 0 0 -580z"/>
</g>
</svg>
