<?xml version="1.0" standalone="no"?>
<!DOCTYPE svg PUBLIC "-//W3C//DTD SVG 20010904//EN"
 "http://www.w3.org/TR/2001/REC-SVG-20010904/DTD/svg10.dtd">
<svg version="1.0" xmlns="http://www.w3.org/2000/svg"
 width="2852.000000pt" height="595.000000pt" viewBox="0 0 2852.000000 595.000000"
 preserveAspectRatio="xMidYMid meet">

<g transform="translate(0.000000,595.000000) scale(0.100000,-0.100000)"
fill="#ffffff" stroke="none">
<path d="M22847 5503 c-4 -4 90 -105 209 -224 l217 -217 -76 -284 c-42 -155
-78 -292 -79 -303 -2 -16 51 -70 222 -223 124 -112 226 -209 227 -215 2 -7
-26 -92 -61 -190 l-63 -177 26 -6 c14 -3 41 -10 60 -15 19 -5 36 -7 37 -6 2 2
10 90 19 197 9 107 17 195 18 196 1 1 131 43 289 94 l288 92 130 -117 c71 -64
133 -121 136 -126 7 -12 34 -12 34 0 0 5 -52 55 -115 111 -63 57 -115 110
-115 119 0 13 55 280 75 369 4 14 1 22 -8 22 -10 0 -25 -54 -53 -185 -36 -175
-49 -207 -70 -174 -3 6 -17 8 -31 4 -20 -5 -24 -3 -19 12 3 10 21 94 41 187
24 115 32 173 26 179 -6 6 -13 9 -15 6 -2 -2 -23 -92 -46 -199 -22 -107 -44
-198 -48 -201 -4 -4 -115 -42 -247 -84 -132 -43 -245 -80 -251 -82 -9 -3 -284
235 -451 391 -10 9 4 74 65 305 l79 294 64 18 c35 9 169 45 297 80 168 45 232
66 232 77 0 8 -6 12 -12 9 -7 -2 -143 -39 -302 -82 l-289 -77 -216 216 c-119
119 -220 213 -224 209z"/>
<path d="M17180 5185 c0 -148 1 -155 20 -155 19 0 20 7 20 123 l0 122 82 -122
c65 -99 85 -123 104 -123 l24 0 0 155 0 155 -25 0 -25 0 0 -117 0 -118 -78
117 c-60 92 -82 118 -99 118 -23 0 -23 -1 -23 -155z"/>
<path d="M17490 5185 l0 -155 25 0 c24 0 25 2 25 70 l0 70 80 0 80 0 0 -70 c0
-63 2 -70 20 -70 19 0 20 7 20 155 0 148 -1 155 -20 155 -18 0 -20 -7 -20 -65
l0 -65 -80 0 -80 0 0 65 c0 63 -1 65 -25 65 l-25 0 0 -155z"/>
<path d="M17804 5134 c-15 -21 -15 -27 -4 -34 10 -6 17 -2 25 13 15 30 60 35
75 8 14 -27 5 -43 -59 -106 -28 -27 -51 -57 -51 -67 0 -16 10 -18 75 -18 60 0
75 3 75 15 0 12 -13 15 -57 15 l-56 0 56 59 c60 63 67 82 41 119 -23 34 -97
32 -120 -4z"/>
<path d="M24905 5040 c-4 -6 -5 -13 -4 -14 67 -54 445 -404 447 -412 3 -11
-116 -586 -121 -590 -1 -1 -92 -19 -202 -40 -110 -21 -202 -39 -204 -41 -4 -3
30 -123 34 -123 1 0 84 38 185 85 101 48 186 87 190 88 8 2 410 -354 410 -363
-1 -3 -20 -95 -44 -205 -37 -171 -42 -224 -20 -202 4 4 84 369 84 383 0 2 11
-2 24 -11 13 -8 31 -13 40 -9 22 8 22 7 -24 -201 -23 -109 -35 -184 -29 -189
5 -5 11 -7 14 -4 3 3 24 92 46 199 23 107 42 199 44 204 1 6 77 35 169 65 100
33 166 59 166 67 0 7 -1 13 -2 13 -2 0 -93 -29 -203 -65 l-199 -65 -26 23
c-14 13 -115 105 -226 204 l-201 181 63 292 c34 160 65 295 69 298 3 4 136 50
295 102 194 64 287 99 282 106 -5 8 -100 -19 -299 -84 l-292 -95 -198 178
c-109 98 -212 191 -229 208 -22 19 -34 25 -39 17z"/>
<path d="M24233 4981 c-83 -52 -92 -184 -19 -257 68 -68 187 -48 226 38 35 76
21 156 -34 207 -37 35 -127 41 -173 12z m134 -31 c37 -22 58 -83 48 -138 -19
-99 -146 -127 -190 -42 -18 34 -20 109 -4 144 12 26 61 55 94 56 11 0 34 -9
52 -20z"/>
<path d="M17290 4723 l-1 -158 -269 -154 -270 -155 0 -312 0 -312 -287 -166
c-159 -91 -291 -167 -296 -168 -4 -2 4 -137 18 -302 14 -164 24 -300 23 -301
-2 -1 -79 -46 -173 -100 -93 -53 -172 -99 -174 -101 -3 -3 0 -8 5 -13 5 -6 78
31 179 90 94 54 174 99 178 99 4 0 111 -60 237 -132 l230 -133 0 -212 c0 -183
2 -213 15 -213 13 0 15 29 15 201 0 188 1 201 18 194 21 -9 33 -9 52 -1 13 5
15 -20 15 -196 0 -174 2 -203 15 -203 13 0 15 31 16 215 l1 215 146 84 c90 52
143 89 140 97 -4 11 -146 -65 -328 -176 l-30 -18 -250 144 c-137 80 -256 149
-264 153 -12 7 -10 57 13 327 15 175 28 320 30 322 3 2 112 66 243 141 l238
138 3 314 3 314 269 155 270 155 0 163 c0 137 -2 162 -15 162 -13 0 -15 -24
-15 -157z"/>
<path d="M19430 4713 c-66 -13 -110 -76 -110 -159 0 -95 56 -154 146 -154 90
0 144 58 144 154 0 110 -77 178 -180 159z m84 -44 c61 -28 75 -155 22 -207
-21 -21 -36 -27 -71 -27 -62 0 -96 34 -103 103 -10 106 65 170 152 131z"/>
<path d="M20940 4654 l0 -64 -80 0 -80 0 0 60 c0 53 -2 60 -20 60 -19 0 -20
-7 -20 -156 0 -143 1 -155 18 -152 14 3 18 16 20 76 l3 72 79 0 80 0 0 -75 c0
-68 2 -75 20 -75 19 0 20 7 20 154 0 145 -1 154 -20 159 -18 5 -20 0 -20 -59z"/>
<path d="M20422 4558 c3 -135 5 -153 20 -156 16 -3 18 10 20 118 l3 122 83
-121 c112 -163 116 -162 120 37 2 146 2 152 -17 152 -19 0 -21 -8 -23 -116
l-3 -117 -78 117 c-64 97 -81 116 -102 116 l-26 0 3 -152z"/>
<path d="M8660 4558 c0 -16 350 -219 363 -211 5 3 3 11 -5 18 -14 14 -344 205
-353 205 -3 0 -5 -6 -5 -12z"/>
<path d="M21064 4532 c-11 -7 -34 -45 -34 -56 0 -15 29 -4 35 13 8 25 38 35
65 21 35 -19 24 -50 -40 -111 -82 -78 -80 -89 15 -89 43 0 75 4 75 10 0 6 -25
10 -55 10 -30 0 -55 3 -55 7 0 3 25 29 55 58 61 56 70 90 35 125 -20 20 -74
27 -96 12z"/>
<path d="M19704 4488 c-8 -12 -18 -5 174 -115 145 -84 152 -89 133 -104 -10
-9 -21 -25 -23 -36 -3 -18 -21 -10 -167 74 -117 68 -166 92 -174 84 -6 -6 -9
-12 -6 -14 2 -2 82 -48 177 -102 l172 -98 -2 -275 -3 -274 -284 -164 c-156
-90 -288 -165 -292 -166 -5 -2 3 -137 17 -301 14 -165 24 -300 22 -302 -2 -1
-79 -46 -173 -100 -93 -54 -171 -99 -172 -99 -1 -1 1 -7 5 -13 5 -7 66 23 177
88 94 54 175 99 180 99 6 -1 114 -61 240 -134 l230 -134 3 -211 c1 -129 6
-211 12 -211 6 0 10 76 10 201 0 188 1 201 18 194 22 -9 32 -9 55 0 16 7 17
-7 17 -199 0 -179 2 -206 16 -206 13 0 15 27 13 217 l-1 217 146 85 c94 54
143 88 137 94 -6 6 -69 -25 -176 -87 -92 -53 -172 -96 -180 -96 -10 0 -505
279 -524 296 -9 8 52 640 63 646 6 4 115 67 241 141 l230 133 3 314 3 315 174
99 c109 63 171 104 168 112 -3 8 -52 -15 -151 -72 -120 -70 -150 -84 -167 -76
-11 5 -91 50 -178 100 -96 56 -159 87 -163 80z"/>
<path d="M9116 4379 c-20 -16 -26 -29 -26 -58 0 -49 18 -64 107 -90 61 -18 74
-26 79 -47 8 -32 -9 -52 -52 -60 -43 -8 -88 10 -102 42 -15 33 -56 34 -47 2
35 -116 245 -105 245 11 0 43 -21 61 -106 89 -75 26 -79 29 -79 57 0 24 5 31
32 38 43 13 81 1 95 -28 12 -28 48 -34 48 -9 0 8 -13 29 -29 45 -25 25 -37 29
-84 29 -40 0 -61 -6 -81 -21z"/>
<path d="M26370 4234 l0 -64 -80 0 -80 0 0 60 c0 53 -2 60 -20 60 -19 0 -20
-7 -20 -155 0 -148 1 -155 20 -155 18 0 20 7 20 75 l0 75 80 0 80 0 0 -75 c0
-68 2 -75 20 -75 19 0 20 7 20 154 0 145 -1 154 -20 159 -18 5 -20 0 -20 -59z"/>
<path d="M27460 4260 c-119 -29 -145 -216 -40 -288 48 -32 137 -28 176 9 55
50 69 132 34 204 -30 63 -97 92 -170 75z m103 -51 c63 -49 54 -179 -15 -215
-34 -18 -62 -18 -97 0 -36 19 -51 55 -51 122 0 48 4 60 29 85 37 36 94 40 134
8z"/>
<path d="M9190 3813 l0 -198 227 -130 c124 -71 233 -135 241 -141 12 -9 21
-76 42 -325 15 -173 26 -317 24 -320 -2 -4 -75 -47 -161 -98 -195 -112 -187
-107 -179 -119 4 -6 76 30 178 89 94 55 176 99 183 97 6 -2 113 -61 238 -133
l226 -130 1 -212 c0 -183 2 -213 15 -213 13 0 15 29 15 200 0 110 3 200 6 200
3 0 14 -5 24 -10 13 -7 21 -7 25 0 20 32 25 -7 25 -195 0 -176 2 -205 15 -205
13 0 15 31 15 218 l1 217 141 81 c127 72 169 104 140 104 -6 0 -84 -43 -175
-95 -90 -52 -170 -95 -177 -95 -10 0 -414 228 -505 285 l-21 13 23 263 c12
145 22 280 22 299 l1 35 -295 170 -295 169 0 188 c0 119 -4 188 -10 188 -6 0
-10 -72 -10 -197z"/>
<path d="M24522 3818 c3 -135 5 -153 20 -156 16 -3 18 10 20 118 l3 121 83
-121 c112 -163 116 -162 120 38 2 146 2 152 -17 152 -19 0 -21 -8 -23 -116
l-3 -117 -78 117 c-64 97 -81 116 -102 116 l-26 0 3 -152z"/>
<path d="M26170 3785 c0 -148 1 -155 20 -155 18 0 20 8 22 122 l3 121 80 -121
c63 -95 85 -122 103 -122 22 0 22 1 22 155 0 148 -1 155 -20 155 -18 0 -20 -8
-22 -116 l-3 -116 -79 116 c-63 92 -84 116 -103 116 l-23 0 0 -155z"/>
<path d="M27367 3883 c-2 -5 -26 -91 -52 -193 -27 -102 -49 -186 -49 -187 -3
-5 -505 -137 -526 -137 -19 -1 -24 -6 -23 -21 1 -11 -33 -148 -75 -305 l-77
-285 -295 -79 c-162 -43 -297 -80 -299 -83 -3 -2 0 -7 5 -12 5 -5 124 22 284
65 151 41 288 75 305 77 25 2 30 7 32 32 2 17 36 154 76 305 l74 275 292 79
293 79 76 -74 c175 -168 202 -193 209 -186 4 4 -44 58 -105 120 l-113 113 51
186 c54 199 56 212 39 206 -10 -3 -26 -56 -99 -326 -11 -42 -12 -43 -30 -27
-12 11 -26 14 -39 10 -12 -3 -21 -4 -21 -2 0 6 85 327 95 356 4 15 2 21 -9 21
-8 0 -17 -3 -19 -7z"/>
<path d="M22323 3790 c-107 -65 -84 -253 36 -289 100 -30 190 42 191 153 0 52
-32 117 -69 139 -40 23 -117 22 -158 -3z m148 -36 c27 -24 43 -85 35 -130 -10
-49 -55 -94 -96 -94 -72 0 -110 45 -110 128 1 54 17 89 51 109 30 17 94 10
120 -13z"/>
<path d="M110 3619 c0 -152 1 -159 20 -159 18 0 20 7 20 75 l0 75 80 0 79 0 3
-72 c2 -60 6 -73 21 -76 16 -3 17 9 17 152 0 149 -1 156 -20 156 -18 0 -20 -7
-20 -60 l0 -60 -80 0 -80 0 0 59 c0 50 -3 59 -20 64 -19 5 -20 0 -20 -154z"/>
<path d="M479 3757 c-88 -59 -92 -208 -8 -270 15 -11 47 -21 71 -24 128 -15
208 134 137 253 -38 63 -137 83 -200 41z m148 -41 c26 -22 28 -30 28 -94 0
-79 -16 -106 -69 -120 -43 -11 -71 -4 -101 25 -45 46 -45 144 0 189 34 34 103
33 142 0z"/>
<path d="M13453 3764 c-50 -25 -78 -78 -78 -146 0 -64 19 -97 76 -136 27 -19
43 -23 82 -19 84 8 137 68 137 157 0 121 -112 195 -217 144z m140 -50 c48 -47
45 -138 -5 -191 -33 -35 -101 -32 -139 6 -26 26 -29 36 -29 91 0 55 3 65 29
91 40 40 106 41 144 3z"/>
<path d="M13722 3618 c3 -145 4 -153 23 -153 18 0 20 8 23 73 l3 72 79 0 80 0
0 -76 c0 -66 2 -75 18 -72 15 3 17 20 20 156 2 147 2 152 -18 152 -18 0 -20
-6 -20 -60 l0 -60 -80 0 -80 0 0 60 c0 57 -1 60 -25 60 l-26 0 3 -152z"/>
<path d="M26470 3615 c-29 -30 -41 -48 -34 -55 7 -7 25 5 54 35 29 30 41 48
34 55 -7 7 -25 -5 -54 -35z"/>
<path d="M1367 3485 c-148 -85 -270 -155 -272 -155 -1 0 -51 28 -111 63 -220
127 -224 129 -224 113 0 -8 65 -52 160 -106 l160 -91 0 -313 0 -312 276 -160
c152 -87 281 -158 285 -157 5 2 126 71 270 154 221 128 265 150 283 141 11 -5
131 -74 266 -152 135 -78 250 -143 255 -143 6 0 128 68 272 151 144 84 266
152 270 152 4 0 112 -60 238 -133 l230 -133 3 -212 c1 -130 6 -212 12 -212 6
0 10 76 10 200 0 167 2 200 14 200 8 0 18 -5 21 -10 4 -7 12 -7 25 0 10 5 21
10 24 10 3 0 6 -92 6 -205 0 -176 2 -205 15 -205 13 0 15 31 15 218 l0 218
145 83 c133 76 166 101 133 101 -7 0 -89 -45 -182 -99 l-169 -98 -216 124
c-119 69 -237 137 -263 152 -26 14 -48 32 -48 39 0 6 -7 12 -15 12 -8 0 -15
-6 -15 -13 0 -13 -501 -307 -523 -307 -6 0 -128 66 -269 148 l-257 147 -3 314
-3 314 -274 159 c-150 87 -274 158 -275 158 0 0 -122 -70 -269 -155z m536 -28
l257 -149 0 -307 0 -307 -252 -144 c-138 -80 -261 -145 -272 -145 -12 0 -135
65 -273 145 l-253 145 0 306 0 306 263 151 c144 83 265 151 268 149 3 -1 121
-69 262 -150z"/>
<path d="M1550 3461 c-36 -21 -129 -75 -208 -121 -92 -53 -140 -86 -134 -92
10 -10 432 227 432 243 0 17 -26 9 -90 -30z"/>
<path d="M2052 3005 c2 -155 7 -245 13 -245 6 0 11 90 13 245 2 215 0 245 -13
245 -13 0 -15 -30 -13 -245z"/>
<path d="M1207 2756 c-3 -8 72 -57 201 -132 211 -122 232 -133 232 -115 0 5
-30 28 -67 49 -317 185 -362 209 -366 198z"/>
<path d="M24520 3465 c0 -148 1 -155 20 -155 18 0 20 7 20 75 l0 75 80 0 80 0
0 -75 c0 -68 2 -75 20 -75 19 0 20 7 20 155 0 148 -1 155 -20 155 -18 0 -20
-7 -20 -65 l0 -65 -80 0 -80 0 0 65 c0 58 -2 65 -20 65 -19 0 -20 -7 -20 -155z"/>
<path d="M23340 3435 c0 -148 1 -155 20 -155 19 0 20 7 20 118 l0 117 78 -117
c60 -92 82 -118 100 -118 22 0 22 1 22 155 0 148 -1 155 -20 155 -18 0 -20 -8
-22 -116 l-3 -117 -78 117 c-55 83 -83 116 -97 116 -19 0 -20 -7 -20 -155z"/>
<path d="M23650 3435 c0 -148 1 -155 20 -155 18 0 20 7 20 70 l0 70 80 0 80 0
0 -70 c0 -68 1 -70 25 -70 l25 0 0 155 0 155 -25 0 c-24 0 -25 -2 -25 -65 l0
-65 -80 0 -80 0 0 65 c0 58 -2 65 -20 65 -19 0 -20 -7 -20 -155z"/>
<path d="M26552 3527 c-18 -18 -29 -36 -25 -40 7 -8 73 51 73 65 0 16 -17 7
-48 -25z"/>
<path d="M22640 3516 c0 -7 59 -66 131 -131 125 -113 129 -118 107 -129 -45
-23 -83 -5 -190 90 -104 93 -120 103 -126 86 -3 -9 232 -227 265 -246 13 -7
15 -5 10 13 -5 20 -3 21 31 15 21 -4 41 -7 46 -8 17 -2 17 22 -1 26 -10 3 69
33 176 67 138 45 190 66 182 74 -7 7 -57 -5 -176 -43 l-165 -54 -33 30 c-97
90 -247 224 -252 224 -3 0 -5 -6 -5 -14z"/>
<path d="M13120 3409 c-102 -60 -189 -110 -194 -112 -4 -1 3 -135 17 -297 13
-162 23 -298 21 -302 -2 -3 -75 -47 -162 -97 -196 -114 -186 -107 -178 -119 4
-7 74 28 179 89 94 55 177 98 183 97 6 -2 113 -61 237 -133 l227 -130 0 -212
c0 -183 2 -213 15 -213 13 0 15 29 15 200 0 110 3 200 6 200 3 0 14 -5 24 -10
13 -7 21 -7 25 0 20 32 25 -7 25 -195 0 -174 2 -205 15 -205 12 0 15 33 17
218 l3 217 147 84 c90 52 144 89 141 97 -3 8 -63 -21 -176 -87 -95 -54 -178
-99 -185 -99 -7 0 -127 66 -267 147 l-255 147 0 40 c0 66 49 598 55 604 3 3
65 40 137 82 121 70 161 102 126 99 -7 -1 -96 -50 -198 -110z"/>
<path d="M3137 3463 c-4 -3 -7 -73 -7 -155 0 -141 1 -148 20 -148 19 0 20 7
20 123 l0 122 82 -122 c65 -99 85 -123 104 -123 l24 0 0 155 c0 148 -1 155
-20 155 -19 0 -20 -7 -20 -122 l0 -123 -82 123 c-75 113 -100 137 -121 115z"/>
<path d="M3450 3315 c0 -148 1 -155 20 -155 18 0 20 7 20 70 l0 70 80 0 80 0
0 -70 c0 -63 2 -70 20 -70 19 0 20 7 20 155 0 148 -1 155 -20 155 -18 0 -20
-7 -20 -65 l0 -65 -80 0 -80 0 0 65 c0 58 -2 65 -20 65 -19 0 -20 -7 -20 -155z"/>
<path d="M5354 3456 c-47 -21 -75 -68 -81 -134 -8 -98 53 -172 141 -172 92 0
151 62 151 160 -1 70 -26 114 -80 140 -48 23 -87 25 -131 6z m132 -50 c24 -20
28 -33 32 -88 4 -58 1 -67 -22 -95 -14 -17 -38 -34 -52 -37 -37 -10 -89 10
-110 42 -35 53 -17 168 29 190 39 19 94 14 123 -12z"/>
<path d="M8590 3452 c-42 -22 -80 -90 -80 -142 0 -53 38 -122 80 -142 76 -39
160 -12 198 62 43 86 16 186 -60 220 -54 25 -94 25 -138 2z m141 -51 c26 -26
29 -36 29 -90 0 -53 -4 -65 -29 -93 -24 -27 -36 -33 -70 -33 -73 0 -116 69
-100 160 15 84 110 115 170 56z"/>
<path d="M11829 3449 c-73 -43 -98 -140 -57 -219 72 -140 278 -85 278 75 0
124 -120 202 -221 144z m134 -40 c35 -27 51 -87 37 -139 -25 -91 -117 -117
-175 -48 -21 24 -25 40 -25 90 0 53 3 63 29 89 37 36 94 40 134 8z"/>
<path d="M15085 3456 c-63 -29 -104 -111 -90 -179 23 -109 139 -162 226 -104
88 59 92 208 8 270 -34 25 -105 31 -144 13z m127 -51 c61 -61 44 -181 -30
-212 -45 -19 -85 -9 -118 30 -23 28 -26 37 -22 95 4 55 8 68 32 88 39 34 104
33 138 -1z"/>
<path d="M18321 3453 c-95 -50 -114 -188 -36 -263 45 -43 122 -53 173 -21 92
58 98 210 11 274 -38 28 -106 32 -148 10z m132 -49 c30 -29 42 -78 33 -127 -9
-48 -32 -75 -75 -88 -71 -21 -131 34 -131 121 0 46 21 94 47 109 10 6 37 11
59 11 31 0 48 -6 67 -26z"/>
<path d="M21561 3453 c-52 -27 -74 -64 -78 -130 -7 -100 53 -173 141 -173 88
0 148 65 148 160 0 117 -114 194 -211 143z m120 -33 c28 -15 49 -63 49 -110 0
-87 -60 -142 -131 -121 -61 18 -89 79 -74 157 12 69 93 107 156 74z"/>
<path d="M26631 3446 c-18 -19 -19 -25 -7 -29 19 -7 53 30 40 43 -7 7 -18 2
-33 -14z"/>
<path d="M3768 3278 c-20 -16 -27 -49 -11 -55 6 -2 14 5 18 16 8 26 50 38 70
21 28 -23 16 -52 -45 -110 -82 -79 -80 -90 15 -90 60 0 75 3 75 15 0 12 -13
15 -57 15 l-58 0 58 53 c62 58 74 98 39 130 -22 20 -81 22 -104 5z"/>
<path d="M4210 3065 c0 -148 1 -155 20 -155 18 0 20 7 20 75 l0 75 80 0 79 0
3 -72 c3 -65 5 -73 23 -73 19 0 20 8 23 153 l3 152 -26 0 c-24 0 -25 -2 -25
-65 l0 -66 -77 3 -78 3 -3 63 c-3 54 -6 62 -22 62 -19 0 -20 -8 -20 -155z"/>
<path d="M7450 3064 l0 -155 23 3 c20 3 22 9 25 76 l3 72 74 0 74 0 3 -72 c3
-65 5 -73 23 -73 19 0 20 8 23 153 l3 152 -26 0 c-24 0 -25 -2 -25 -65 l0 -65
-75 0 -75 0 0 65 c0 63 -1 65 -25 65 l-25 0 0 -156z"/>
<path d="M27699 3197 c-80 -53 -90 -179 -20 -248 48 -49 97 -59 160 -33 109
45 123 214 22 281 -46 31 -116 31 -162 0z m119 -18 c53 -18 78 -81 62 -155
-19 -83 -112 -113 -171 -55 -25 25 -29 37 -29 85 0 69 14 101 54 120 37 19 44
19 84 5z"/>
<path d="M27980 3066 l0 -156 25 0 c24 0 25 2 25 70 l0 70 75 0 75 0 0 -70 c0
-68 1 -70 25 -70 l25 0 0 156 0 155 -22 -3 c-21 -3 -23 -9 -26 -65 l-3 -63
-74 0 -74 0 -3 63 c-3 56 -5 62 -25 65 l-23 3 0 -155z"/>
<path d="M10692 3058 c3 -145 4 -153 23 -153 18 0 20 8 23 73 l3 72 74 0 74 0
3 -72 c3 -65 5 -73 23 -73 19 0 20 8 23 153 l3 152 -26 0 c-24 0 -25 -3 -25
-60 l0 -60 -75 0 -75 0 0 60 c0 57 -1 60 -25 60 l-26 0 3 -152z"/>
<path d="M13932 3048 c3 -145 4 -153 23 -153 18 0 20 8 23 73 l3 72 79 0 80 0
0 -76 c0 -66 2 -75 18 -72 15 3 17 20 20 156 2 147 2 152 -18 152 -18 0 -20
-6 -20 -60 l0 -60 -80 0 -80 0 0 60 c0 57 -1 60 -25 60 l-26 0 3 -152z"/>
<path d="M17177 3193 c-4 -3 -7 -73 -7 -155 l0 -148 25 0 c24 0 25 2 25 70 l0
70 80 0 80 0 0 -70 c0 -63 2 -70 20 -70 19 0 20 7 20 155 0 148 -1 155 -20
155 -18 0 -20 -7 -20 -65 l0 -65 -80 0 -80 0 0 65 c0 56 -2 65 -18 65 -10 0
-22 -3 -25 -7z"/>
<path d="M20427 3193 c-4 -3 -7 -73 -7 -155 l0 -148 25 0 c24 0 25 2 25 70 l0
70 80 0 80 0 0 -70 c0 -63 2 -70 20 -70 19 0 20 7 20 155 0 148 -1 155 -20
155 -18 0 -20 -7 -20 -65 l0 -65 -80 0 -80 0 0 65 c0 56 -2 65 -18 65 -10 0
-22 -3 -25 -7z"/>
<path d="M25503 3124 c-39 -20 -60 -49 -72 -107 -25 -109 53 -206 157 -194 80
9 132 70 132 157 0 121 -112 195 -217 144z m142 -48 c46 -46 45 -143 -2 -190
-28 -28 -86 -36 -124 -16 -57 31 -67 162 -15 207 38 32 108 32 141 -1z"/>
<path d="M22786 3121 c-3 -5 14 -14 39 -20 57 -14 65 -14 65 3 0 8 -15 16 -37
20 -51 8 -61 8 -67 -3z"/>
<path d="M3190 3110 c0 -6 28 -10 65 -10 37 0 65 4 65 10 0 6 -28 10 -65 10
-37 0 -65 -4 -65 -10z"/>
<path d="M5350 2873 l0 -208 -230 -132 c-126 -73 -235 -133 -242 -133 -6 0
-87 43 -180 97 -105 60 -172 93 -178 87 -6 -6 60 -50 174 -116 l184 -106 267
155 c241 139 271 154 292 144 14 -6 94 -51 178 -101 95 -55 157 -85 161 -78 8
12 15 7 -153 104 l-133 76 0 209 c0 179 -2 209 -15 209 -13 0 -15 -29 -15
-200 0 -199 0 -201 -20 -190 -12 6 -30 8 -40 5 -19 -6 -20 -1 -20 189 0 168
-2 196 -15 196 -13 0 -15 -30 -15 -207z"/>
<path d="M8590 2872 l0 -208 -229 -132 c-126 -73 -235 -132 -242 -132 -8 0
-88 43 -178 96 -101 58 -168 91 -174 85 -8 -8 38 -38 261 -165 45 -26 80 -52
76 -57 -3 -5 2 -9 10 -9 9 0 16 4 16 9 0 9 515 311 530 311 4 0 82 -43 172
-95 89 -52 169 -95 176 -95 32 0 0 24 -133 100 l-145 83 0 209 c0 178 -2 208
-15 208 -13 0 -15 -29 -15 -200 0 -198 0 -200 -20 -188 -16 10 -24 10 -40 0
-20 -12 -20 -10 -20 188 0 171 -2 200 -15 200 -13 0 -15 -30 -15 -208z"/>
<path d="M11830 2871 l0 -208 -228 -132 c-126 -72 -236 -131 -244 -131 -9 0
-18 -7 -22 -15 -3 -8 -1 -15 4 -15 6 0 10 -115 10 -305 0 -190 -4 -305 -10
-305 -5 0 -7 -7 -3 -15 3 -9 10 -14 17 -12 6 2 83 -38 172 -90 88 -51 166 -93
172 -93 33 0 -3 26 -158 115 l-170 98 0 302 0 303 253 145 c138 80 259 148
268 152 10 4 82 -32 189 -94 153 -88 203 -110 185 -82 -2 5 -70 46 -150 92
l-145 83 0 208 c0 178 -2 208 -15 208 -13 0 -15 -28 -15 -195 l0 -195 -25 6
c-15 4 -32 1 -40 -6 -13 -11 -15 12 -15 189 0 172 -2 201 -15 201 -13 0 -15
-30 -15 -209z"/>
<path d="M15070 2871 l0 -209 -221 -127 c-121 -70 -229 -129 -239 -132 -11 -3
-81 32 -185 92 -107 62 -171 93 -177 87 -6 -6 51 -44 159 -106 92 -54 173
-104 179 -112 14 -17 34 -18 34 -1 1 10 404 249 499 296 27 13 35 10 194 -82
174 -101 187 -108 193 -92 2 6 -64 48 -146 95 l-150 85 0 208 c0 131 -4 207
-10 207 -6 0 -10 -74 -10 -201 l0 -201 -22 14 c-20 14 -25 14 -45 1 l-23 -15
0 201 c0 172 -2 201 -15 201 -13 0 -15 -30 -15 -209z"/>
<path d="M18311 2873 l1 -208 -227 -132 c-125 -73 -233 -133 -241 -133 -7 0
-88 43 -179 96 -108 63 -170 93 -176 87 -7 -7 50 -45 161 -109 95 -54 174
-104 177 -111 7 -17 29 -17 36 0 5 13 506 307 523 307 5 0 86 -45 179 -100
105 -61 174 -95 179 -90 12 12 21 6 -119 85 -66 38 -132 77 -147 87 l-28 19 0
205 c0 129 -4 204 -10 204 -6 0 -10 -74 -10 -201 l0 -201 -23 15 c-20 13 -25
13 -45 -1 l-22 -14 0 201 c0 174 -2 201 -15 201 -14 0 -16 -27 -14 -207z"/>
<path d="M21551 2874 c1 -113 -3 -209 -7 -214 -16 -15 -442 -258 -459 -262
-15 -3 -17 -34 -18 -321 l-2 -319 -160 -64 c-88 -36 -164 -69 -168 -74 -5 -4
-2 -20 7 -34 9 -14 23 -37 32 -51 l15 -26 87 68 c48 37 114 89 148 115 l60 47
265 -154 c157 -91 268 -150 273 -144 5 5 8 10 5 12 -2 3 -121 72 -264 155
l-260 150 0 308 0 308 255 147 c140 82 260 148 265 148 6 1 87 -44 180 -98
101 -59 174 -96 179 -90 12 11 23 4 -141 99 l-143 82 0 209 c0 179 -2 209 -15
209 -13 0 -15 -29 -15 -201 l0 -201 -23 15 c-20 13 -25 13 -45 -1 l-22 -14 0
201 c0 175 -2 201 -16 201 -13 0 -15 -26 -13 -206z"/>
<path d="M22770 3005 c0 -16 78 -37 86 -23 8 13 4 16 -44 26 -32 8 -42 7 -42
-3z"/>
<path d="M3210 2975 c0 -11 12 -15 44 -15 30 0 46 5 50 15 4 12 -4 15 -44 15
-38 0 -50 -4 -50 -15z"/>
<path d="M22756 2883 c-3 -7 0 -13 7 -13 7 0 22 -3 35 -6 16 -5 22 -2 22 9 0
19 -57 29 -64 10z"/>
<path d="M3230 2840 c0 -5 14 -10 30 -10 17 0 30 5 30 10 0 6 -13 10 -30 10
-16 0 -30 -4 -30 -10z"/>
<path d="M4418 2728 l-3 -121 -78 117 c-64 97 -81 116 -102 116 l-26 0 3 -152
c3 -145 4 -153 23 -153 19 0 20 8 25 114 l5 114 78 -116 c55 -84 83 -117 97
-117 19 0 20 7 20 154 0 144 -1 154 -20 159 -18 5 -20 -1 -22 -115z"/>
<path d="M13940 2689 c0 -152 1 -159 20 -159 19 0 20 7 20 123 l0 122 80 -120
c63 -94 85 -120 102 -120 23 0 23 2 26 153 l3 152 -25 0 c-25 0 -25 0 -28
-112 l-3 -112 -73 111 c-54 81 -80 112 -98 116 l-24 4 0 -158z"/>
<path d="M17180 2689 c0 -152 1 -159 20 -159 18 0 20 8 22 121 l3 121 80 -118
c58 -86 86 -119 100 -119 19 0 20 8 23 153 l3 152 -25 0 c-25 0 -25 0 -28
-112 l-3 -112 -73 111 c-54 81 -80 112 -98 116 l-24 4 0 -158z"/>
<path d="M7460 2684 c0 -143 1 -155 18 -152 15 3 18 19 22 117 l5 114 78 -116
c55 -84 83 -117 97 -117 19 0 20 7 20 155 0 148 -1 155 -20 155 -19 0 -20 -7
-20 -117 l0 -118 -78 117 c-60 92 -82 118 -99 118 -23 0 -23 -1 -23 -156z"/>
<path d="M10700 2684 c0 -143 1 -155 18 -152 15 3 18 19 22 120 l5 117 79
-120 c110 -166 116 -165 116 36 0 148 -1 155 -20 155 -19 0 -20 -7 -20 -117
l0 -118 -78 117 c-60 92 -82 118 -99 118 -23 0 -23 -1 -23 -156z"/>
<path d="M20422 2688 c3 -135 5 -153 20 -156 16 -3 18 10 20 118 l3 122 80
-118 c58 -86 86 -119 100 -119 19 0 20 8 23 153 2 146 2 152 -17 152 -19 0
-21 -8 -23 -116 l-3 -117 -78 117 c-64 97 -81 116 -102 116 l-26 0 3 -152z"/>
<path d="M22740 2766 c0 -10 9 -16 25 -16 14 0 25 5 25 10 0 6 -4 10 -9 10 -5
0 -16 3 -25 6 -11 4 -16 1 -16 -10z"/>
<path d="M6315 2599 c-93 -54 -172 -106 -173 -115 -4 -19 -13 -23 197 98 91
53 160 86 170 83 9 -3 115 -63 236 -133 l220 -127 3 -213 c2 -179 5 -212 17
-212 13 0 15 30 15 200 0 183 5 222 25 190 4 -7 12 -7 25 0 10 5 21 10 24 10
3 0 6 -92 6 -205 0 -176 2 -205 15 -205 13 0 15 31 15 218 l0 217 145 83 c129
74 166 102 135 102 -5 0 -84 -43 -174 -95 -91 -52 -171 -95 -178 -95 -7 0
-130 68 -272 150 -143 83 -264 150 -270 149 -6 0 -87 -45 -181 -100z"/>
<path d="M26655 2660 c-10 -11 -15 -23 -12 -27 8 -7 47 25 47 39 0 14 -16 9
-35 -12z"/>
<path d="M22721 2647 c-6 -8 -91 -49 -188 -92 -98 -43 -180 -80 -182 -82 -3
-2 0 -7 5 -12 5 -5 80 23 184 69 96 44 180 79 187 79 13 1 409 -437 406 -449
-1 -5 -288 -505 -297 -517 -2 -3 -586 124 -590 128 -2 2 -12 85 -21 184 -17
168 -25 208 -41 192 -6 -5 32 -398 38 -402 2 -1 73 -16 158 -34 85 -17 226
-47 312 -65 l157 -33 147 256 c81 141 154 266 161 277 13 21 2 35 -193 250
-113 126 -208 237 -211 247 -6 20 -17 22 -32 4z"/>
<path d="M20734 2588 c-38 -70 -38 -68 -21 -68 19 0 72 99 60 111 -6 6 -21
-10 -39 -43z"/>
<path d="M11006 2586 c-14 -25 -26 -50 -26 -56 0 -24 22 -3 51 48 23 39 27 52
16 52 -8 0 -27 -20 -41 -44z"/>
<path d="M26735 2580 c-16 -16 -25 -33 -22 -37 8 -7 67 45 67 59 0 16 -17 8
-45 -22z"/>
<path d="M11121 2527 c-11 -19 -21 -39 -21 -46 0 -22 18 -10 40 25 28 49 11
68 -19 21z"/>
<path d="M20842 2519 c-25 -44 -26 -49 -9 -49 19 0 60 77 44 83 -7 3 -22 -12
-35 -34z"/>
<path d="M26816 2501 c-21 -22 -37 -44 -35 -50 3 -7 26 11 54 39 29 29 43 50
34 50 -8 0 -32 -18 -53 -39z"/>
<path d="M5832 2378 c3 -145 4 -153 23 -153 19 0 20 8 25 114 l5 114 78 -116
c55 -84 83 -117 97 -117 19 0 20 7 20 155 0 148 -1 155 -20 155 -18 0 -20 -8
-22 -116 l-3 -117 -78 117 c-64 97 -81 116 -102 116 l-26 0 3 -152z"/>
<path d="M9080 2375 c0 -148 1 -155 20 -155 18 0 20 8 22 116 l3 117 78 -117
c55 -83 83 -116 97 -116 19 0 20 7 20 155 0 148 -1 155 -20 155 -18 0 -20 -8
-22 -115 l-3 -116 -78 116 c-55 81 -84 115 -97 115 -19 0 -20 -8 -20 -155z"/>
<path d="M12320 2375 c0 -148 1 -155 20 -155 19 0 20 7 20 123 l0 122 82 -122
c112 -170 118 -169 118 32 0 148 -1 155 -20 155 -19 0 -20 -7 -20 -117 l0
-118 -78 117 c-60 92 -82 118 -99 118 -23 0 -23 -1 -23 -155z"/>
<path d="M15560 2375 c0 -148 1 -155 20 -155 19 0 20 7 20 123 l0 122 80 -120
c63 -94 85 -120 102 -120 23 0 23 2 26 153 l3 152 -25 0 c-25 0 -25 0 -28
-112 l-3 -113 -75 112 c-58 87 -80 113 -97 113 -23 0 -23 -1 -23 -155z"/>
<path d="M18800 2375 c0 -148 1 -155 20 -155 18 0 20 8 22 122 l3 121 80 -121
c63 -95 85 -122 103 -122 22 0 22 1 22 155 0 148 -1 155 -20 155 -18 0 -20 -8
-22 -117 l-3 -118 -79 118 c-63 94 -84 117 -103 117 l-23 0 0 -155z"/>
<path d="M22040 2375 c0 -148 1 -155 20 -155 18 0 20 8 22 122 l3 121 80 -121
c63 -95 85 -122 103 -122 22 0 22 1 22 155 0 148 -1 155 -20 155 -18 0 -20 -8
-22 -117 l-3 -118 -79 118 c-63 94 -84 117 -103 117 l-23 0 0 -155z"/>
<path d="M11226 2451 c-14 -27 -15 -31 -2 -31 21 0 41 39 28 52 -7 7 -16 0
-26 -21z"/>
<path d="M20952 2455 c-15 -33 -15 -35 1 -35 15 0 39 44 30 54 -12 11 -20 6
-31 -19z"/>
<path d="M26951 2442 c-52 -26 -74 -63 -78 -129 -9 -130 100 -210 212 -157 40
19 59 45 75 102 35 131 -93 244 -209 184z m120 -32 c33 -18 52 -68 47 -127 -8
-89 -67 -130 -142 -99 -76 32 -90 155 -25 215 25 23 86 28 120 11z"/>
<path d="M27220 2299 c0 -152 1 -159 20 -159 18 0 20 7 20 75 l0 75 80 0 80 0
0 -75 c0 -68 2 -75 20 -75 19 0 20 7 20 154 0 145 -1 154 -20 159 -18 5 -20 0
-20 -59 l0 -64 -80 0 -80 0 0 59 c0 50 -3 59 -20 64 -19 5 -20 0 -20 -154z"/>
<path d="M8096 2245 c-4 -11 1 -15 19 -15 16 0 25 6 25 15 0 8 -9 15 -19 15
-10 0 -21 -7 -25 -15z"/>
<path d="M14580 2245 c0 -9 9 -15 25 -15 16 0 25 6 25 15 0 9 -9 15 -25 15
-16 0 -25 -6 -25 -15z"/>
<path d="M17820 2245 c0 -9 9 -15 25 -15 16 0 25 6 25 15 0 9 -9 15 -25 15
-16 0 -25 -6 -25 -15z"/>
<path d="M15560 2025 c0 -148 1 -155 20 -155 18 0 20 7 20 75 l0 75 80 0 80 0
0 -75 c0 -68 2 -75 20 -75 19 0 20 7 20 155 0 148 -1 155 -20 155 -18 0 -20
-7 -20 -65 l0 -65 -80 0 -80 0 0 65 c0 58 -2 65 -20 65 -19 0 -20 -7 -20 -155z"/>
<path d="M18800 2019 c0 -152 1 -159 20 -159 18 0 20 7 20 75 l0 75 80 0 79 0
3 -72 c3 -65 5 -73 23 -73 19 0 20 8 23 153 l3 152 -26 0 c-24 0 -25 -3 -25
-60 l0 -60 -80 0 -80 0 0 59 c0 50 -3 59 -20 64 -19 5 -20 0 -20 -154z"/>
<path d="M5840 2015 c0 -148 1 -155 20 -155 18 0 20 7 20 70 l0 70 80 0 80 0
0 -70 c0 -63 2 -70 20 -70 19 0 20 7 20 155 0 148 -1 155 -20 155 -18 0 -20
-7 -20 -65 l0 -65 -80 0 -80 0 0 65 c0 58 -2 65 -20 65 -19 0 -20 -7 -20 -155z"/>
<path d="M9080 2015 c0 -148 1 -155 20 -155 18 0 20 7 20 70 l0 70 80 0 80 0
0 -70 c0 -63 2 -70 20 -70 19 0 20 7 20 155 0 148 -1 155 -20 155 -18 0 -20
-7 -20 -65 l0 -65 -80 0 -80 0 0 65 c0 58 -2 65 -20 65 -19 0 -20 -7 -20 -155z"/>
<path d="M12320 2015 c0 -148 1 -155 20 -155 18 0 20 7 20 70 l0 70 80 0 80 0
0 -70 c0 -63 2 -70 20 -70 19 0 20 7 20 155 0 148 -1 155 -20 155 -18 0 -20
-7 -20 -65 l0 -65 -80 0 -80 0 0 65 c0 58 -2 65 -20 65 -19 0 -20 -7 -20 -155z"/>
<path d="M8086 2125 c-4 -12 3 -15 29 -15 24 0 35 5 35 15 0 10 -10 15 -29 15
-16 0 -31 -6 -35 -15z"/>
<path d="M14570 2125 c0 -10 11 -15 35 -15 24 0 35 5 35 15 0 10 -11 15 -35
15 -24 0 -35 -5 -35 -15z"/>
<path d="M17810 2125 c0 -10 11 -15 35 -15 24 0 35 5 35 15 0 10 -11 15 -35
15 -24 0 -35 -5 -35 -15z"/>
<path d="M8076 2005 c-4 -12 4 -15 39 -15 33 0 45 4 45 15 0 11 -11 15 -39 15
-25 0 -41 -5 -45 -15z"/>
<path d="M14560 2005 c0 -11 12 -15 45 -15 33 0 45 4 45 15 0 11 -12 15 -45
15 -33 0 -45 -4 -45 -15z"/>
<path d="M17800 2005 c0 -11 12 -15 45 -15 33 0 45 4 45 15 0 11 -12 15 -45
15 -33 0 -45 -4 -45 -15z"/>
<path d="M3731 1892 c-52 -26 -74 -63 -78 -129 -9 -130 100 -210 212 -157 40
19 59 45 75 102 35 131 -93 244 -209 184z m120 -32 c28 -16 49 -63 49 -112 0
-55 -17 -87 -58 -111 -58 -34 -123 -2 -147 71 -12 40 4 108 32 136 28 28 87
35 124 16z"/>
<path d="M6970 1892 c-43 -21 -80 -89 -80 -147 0 -53 36 -116 80 -137 71 -36
157 -13 194 52 28 47 28 133 1 178 -38 65 -126 89 -195 54z m141 -51 c26 -26
29 -36 29 -89 0 -50 -4 -66 -25 -90 -40 -48 -104 -51 -148 -7 -25 25 -38 84
-27 130 19 84 112 115 171 56z"/>
<path d="M10210 1892 c-42 -22 -80 -90 -80 -142 0 -86 70 -160 150 -160 80 0
150 74 150 160 0 84 -71 160 -150 160 -19 0 -51 -8 -70 -18z m135 -45 c31 -26
45 -84 34 -136 -18 -86 -114 -116 -170 -53 -25 28 -29 40 -29 93 0 54 3 64 29
90 38 37 97 40 136 6z"/>
<path d="M13449 1889 c-51 -30 -73 -73 -74 -139 0 -102 68 -168 163 -157 24 3
56 13 71 24 81 60 81 207 -1 266 -40 30 -115 33 -159 6z m144 -49 c60 -71 39
-184 -38 -210 -44 -15 -80 -4 -110 32 -21 24 -25 40 -25 90 0 53 3 63 29 89
24 23 38 29 74 29 38 0 49 -5 70 -30z"/>
<path d="M16705 1896 c-100 -46 -121 -188 -39 -267 27 -26 43 -33 86 -37 44
-3 59 0 88 20 89 60 94 208 9 271 -34 25 -105 31 -144 13z m128 -52 c30 -29
42 -78 33 -127 -9 -48 -32 -75 -76 -88 -33 -10 -43 -9 -72 8 -46 27 -60 57
-55 127 3 49 8 63 31 83 39 33 104 32 139 -3z"/>
<path d="M19940 1892 c-53 -26 -80 -74 -80 -141 0 -103 62 -165 158 -158 45 3
59 9 90 40 33 34 37 42 40 104 3 58 0 73 -20 103 -27 40 -79 70 -123 70 -16 0
-46 -8 -65 -18z m121 -32 c46 -25 64 -122 33 -181 -35 -68 -135 -71 -175 -5
-33 54 -17 159 28 185 23 13 89 14 114 1z"/>
<path d="M8066 1885 c-4 -12 5 -15 49 -15 42 0 55 3 55 15 0 11 -12 15 -49 15
-34 0 -51 -4 -55 -15z"/>
<path d="M14550 1885 c0 -12 13 -15 55 -15 42 0 55 3 55 15 0 12 -13 15 -55
15 -42 0 -55 -3 -55 -15z"/>
<path d="M17790 1885 c0 -12 13 -15 55 -15 42 0 55 3 55 15 0 12 -13 15 -55
15 -42 0 -55 -3 -55 -15z"/>
<path d="M8056 1765 c-4 -11 2 -15 22 -16 16 0 135 -63 297 -157 l270 -157 5
-315 5 -314 273 -158 272 -157 273 157 272 158 0 324 0 324 -272 157 -273 158
-267 -155 c-158 -91 -274 -152 -283 -148 -39 14 -488 279 -480 282 6 2 10 10
10 18 0 21 -116 20 -124 -1z m1409 -178 l260 -152 3 -301 c2 -233 -1 -304 -10
-311 -7 -6 -127 -76 -265 -156 l-253 -146 -252 146 c-139 80 -259 150 -266
156 -9 7 -12 78 -10 311 l3 301 260 152 c143 83 262 151 265 151 3 0 122 -68
265 -151z"/>
<path d="M8986 1516 c-206 -119 -224 -131 -213 -142 9 -9 437 237 431 248 -3
4 -8 8 -12 8 -4 0 -97 -52 -206 -114z"/>
<path d="M9620 1130 c0 -160 4 -250 10 -250 6 0 10 90 10 250 0 160 -4 250
-10 250 -6 0 -10 -90 -10 -250z"/>
<path d="M8772 879 c7 -20 409 -251 427 -244 17 7 27 0 -219 143 -195 112
-215 122 -208 101z"/>
<path d="M14540 1765 c0 -9 9 -15 24 -15 13 0 63 -24 112 -53 49 -29 171 -100
271 -157 l183 -105 -3 -274 -2 -273 -173 -100 c-111 -64 -170 -104 -164 -110
6 -6 69 24 173 85 150 87 164 93 167 74 2 -12 12 -29 22 -37 18 -14 9 -21
-145 -110 -91 -52 -165 -100 -165 -107 0 -7 4 -13 8 -13 4 0 86 45 181 100
l173 100 128 -75 c149 -87 160 -92 160 -74 -1 8 -75 56 -165 108 l-165 93 0
313 0 312 -259 149 c-142 82 -253 150 -245 152 8 2 14 10 14 18 0 11 -15 14
-65 14 -51 0 -65 -3 -65 -15z"/>
<path d="M17780 1765 c0 -9 9 -15 24 -15 12 0 101 -45 195 -101 110 -64 179
-98 189 -94 11 4 -34 35 -143 97 -87 51 -153 94 -147 96 7 2 12 10 12 18 0 11
-16 14 -65 14 -51 0 -65 -3 -65 -15z"/>
<path d="M11230 1698 c0 -22 17 -41 29 -34 8 5 8 13 1 27 -12 21 -30 26 -30 7z"/>
<path d="M11120 1650 c0 -18 32 -60 41 -54 11 6 -17 64 -31 64 -6 0 -10 -5
-10 -10z"/>
<path d="M11016 1601 c-8 -13 26 -71 42 -71 17 0 15 7 -9 46 -22 37 -25 39
-33 25z"/>
<path d="M11854 1589 c-81 -23 -124 -130 -88 -218 64 -153 285 -103 284 64 -1
66 -32 123 -82 145 -47 21 -67 23 -114 9z m109 -50 c64 -50 54 -179 -16 -216
-41 -21 -90 -9 -121 28 -22 25 -26 41 -26 91 0 53 3 63 29 89 37 36 94 40 134
8z"/>
<path d="M18336 1590 c-61 -19 -96 -73 -96 -150 0 -65 23 -114 65 -140 39 -24
104 -26 149 -5 92 44 103 213 19 273 -35 25 -96 35 -137 22z m98 -41 c55 -25
72 -133 32 -194 -34 -52 -112 -57 -156 -10 -28 30 -38 110 -20 155 22 52 88
74 144 49z"/>
<path d="M20480 1578 c-52 -27 -80 -74 -80 -136 0 -91 49 -152 130 -160 86 -8
139 28 161 111 22 84 -24 175 -102 197 -48 14 -59 13 -109 -12z m121 -28 c53
-29 67 -147 23 -199 -75 -89 -197 -16 -180 109 10 79 91 125 157 90z"/>
<path d="M12100 1434 l0 -155 23 3 c20 3 22 9 25 76 l3 72 74 0 74 0 3 -72 c3
-67 5 -73 26 -76 l22 -3 0 155 0 156 -25 0 c-24 0 -25 -2 -25 -65 l0 -65 -75
0 -75 0 0 65 c0 63 -1 65 -25 65 l-25 0 0 -156z"/>
<path d="M18590 1435 c0 -148 1 -155 20 -155 18 0 20 7 20 75 l0 75 80 0 80 0
0 -75 c0 -68 2 -75 20 -75 19 0 20 7 20 155 0 147 -1 155 -20 155 -16 0 -19
-8 -22 -62 l-3 -63 -77 -3 -78 -3 0 66 c0 58 -2 65 -20 65 -19 0 -20 -7 -20
-155z"/>
<path d="M20100 1435 c0 -148 1 -155 20 -155 18 0 20 7 20 75 l0 75 80 0 80 0
0 -75 c0 -68 2 -75 20 -75 19 0 20 7 20 155 0 148 -1 155 -20 155 -18 0 -20
-7 -20 -65 l0 -65 -80 0 -80 0 0 65 c0 58 -2 65 -20 65 -19 0 -20 -7 -20 -155z"/>
<path d="M10907 1554 c-7 -8 28 -80 44 -89 22 -14 20 6 -5 50 -28 48 -29 48
-39 39z"/>
<path d="M10796 1502 c-6 -11 51 -112 64 -112 16 0 12 14 -16 64 -27 49 -40
61 -48 48z"/>
<path d="M14533 644 c-117 -58 -97 -258 28 -296 102 -30 189 41 189 154 0 119
-113 193 -217 142z m134 -40 c27 -17 47 -85 38 -130 -3 -19 -17 -47 -31 -64
-21 -25 -33 -30 -69 -30 -68 0 -97 31 -103 108 -5 72 11 105 61 128 35 15 69
11 104 -12z"/>
<path d="M15613 644 c-116 -58 -97 -258 28 -296 102 -30 189 41 189 154 0 119
-113 193 -217 142z m113 -29 c103 -43 72 -235 -39 -235 -49 0 -73 13 -92 50
-20 39 -19 119 1 149 15 20 64 49 87 51 4 0 23 -7 43 -15z"/>
<path d="M15887 653 c-4 -3 -7 -73 -7 -155 l0 -148 25 0 c24 0 25 2 25 70 l0
70 80 0 80 0 0 -70 c0 -63 2 -70 20 -70 19 0 20 7 20 155 0 148 -1 155 -20
155 -18 0 -20 -7 -20 -65 l0 -65 -80 0 -80 0 0 65 c0 56 -2 65 -18 65 -10 0
-22 -3 -25 -7z"/>
</g>
</svg>
