<?xml version="1.0" standalone="no"?>
<!DOCTYPE svg PUBLIC "-//W3C//DTD SVG 20010904//EN"
 "http://www.w3.org/TR/2001/REC-SVG-20010904/DTD/svg10.dtd">
<svg version="1.0" xmlns="http://www.w3.org/2000/svg"
 width="1007.000000pt" height="763.000000pt" viewBox="0 0 1007.000000 763.000000"
 preserveAspectRatio="xMidYMid meet">

<g transform="translate(0.000000,763.000000) scale(0.100000,-0.100000)"
fill="#ffffff" stroke="none">
<path d="M6230 7466 c-162 -35 -289 -156 -341 -327 -28 -89 -33 -263 -10 -344
65 -232 245 -370 478 -367 162 1 306 74 386 195 60 91 90 194 91 317 0 58 -5
130 -13 160 -68 275 -313 427 -591 366z m278 -141 c106 -57 165 -154 183 -296
17 -134 -7 -257 -67 -346 -64 -94 -148 -136 -274 -137 -77 -1 -92 2 -152 32
-150 74 -216 229 -190 449 18 155 70 241 182 298 59 30 82 34 175 32 78 -2 97
-7 143 -32z"/>
<path d="M6120 5432 l0 -858 -902 -519 c-496 -286 -906 -519 -911 -517 -6 2
-326 185 -713 407 -386 223 -706 405 -711 405 -5 0 -19 -18 -31 -39 l-23 -40
68 -39 c37 -22 358 -207 713 -412 355 -204 646 -372 647 -373 2 -3 -164 -1655
-171 -1705 l-5 -32 230 0 231 0 -6 28 c-17 88 -168 1704 -160 1711 5 5 451
264 992 576 l983 567 732 -424 c402 -233 736 -423 740 -423 5 0 20 18 33 40
l24 41 -650 374 -650 375 0 858 0 857 -50 0 -50 0 0 -825 c0 -454 -3 -825 -7
-825 -5 0 -33 15 -64 34 l-57 34 -58 -34 c-33 -18 -62 -34 -66 -34 -5 0 -8
371 -8 825 l0 825 -50 0 -50 0 0 -858z"/>
<path d="M2120 5124 c-231 -34 -359 -145 -415 -359 -34 -132 -11 -334 52 -465
37 -77 127 -162 200 -190 243 -92 485 -13 588 193 51 101 49 110 -29 128 l-63
16 -17 -51 c-51 -159 -212 -241 -378 -192 -152 44 -228 180 -228 405 0 263
133 413 354 399 115 -8 190 -60 232 -162 21 -51 17 -50 116 -25 l37 9 -15 42
c-45 129 -163 224 -304 247 -65 11 -83 11 -130 5z"/>
<path d="M190 4600 l0 -510 70 0 70 0 0 240 0 240 265 0 265 0 0 -240 0 -240
65 0 65 0 0 510 0 510 -65 0 -65 0 0 -210 0 -210 -265 0 -265 0 0 210 0 210
-70 0 -70 0 0 -510z"/>
<path d="M1266 4576 c-53 -20 -112 -80 -131 -134 -8 -25 -13 -47 -12 -49 2 -1
24 -6 49 -9 44 -6 45 -6 51 26 4 17 22 47 41 66 29 29 41 34 80 34 61 0 104
-23 122 -65 19 -47 18 -74 -6 -113 -22 -36 -72 -62 -119 -62 -30 0 -41 -14
-41 -56 0 -23 3 -24 58 -24 99 0 152 -51 152 -148 0 -157 -209 -211 -280 -73
-11 22 -20 47 -20 55 0 11 -10 13 -42 9 -24 -3 -46 -9 -51 -12 -10 -10 17 -84
43 -122 31 -43 101 -79 164 -86 112 -12 211 37 260 127 25 45 28 60 24 119 -4
81 -33 132 -90 159 -35 16 -49 32 -29 32 5 0 23 14 40 31 84 83 50 224 -69
284 -46 24 -145 29 -194 11z"/>
<path d="M8266 3934 c-126 -30 -244 -121 -299 -231 -58 -113 -79 -279 -53
-403 73 -346 407 -503 725 -341 267 137 324 610 101 845 -114 120 -301 172
-474 130z m248 -124 c29 -12 74 -39 100 -61 140 -123 167 -423 55 -593 -114
-171 -371 -194 -519 -46 -105 105 -137 309 -78 499 26 83 105 167 188 199 74
28 180 29 254 2z"/>
<path d="M9060 3420 l0 -510 65 0 65 0 0 240 0 240 265 0 265 0 0 -240 0 -241
68 3 67 3 3 508 2 507 -70 0 -70 0 0 -210 0 -210 -265 0 -265 0 0 210 0 210
-65 0 -65 0 0 -510z"/>
<path d="M3910 1070 l0 -510 65 0 65 0 0 397 0 398 265 -398 265 -397 70 0 70
0 0 510 0 510 -65 0 -65 0 0 -402 0 -403 -268 402 -267 402 -67 1 -68 0 0
-510z"/>
<path d="M4940 1070 l0 -510 70 0 70 0 0 240 0 240 263 -2 262 -3 3 -237 2
-238 65 0 65 0 0 510 0 510 -65 0 -65 0 0 -210 0 -210 -265 0 -265 0 0 210 0
210 -70 0 -70 0 0 -510z"/>
<path d="M6090 1051 c-63 -10 -117 -38 -146 -77 -27 -35 -57 -120 -48 -135 3
-5 25 -9 48 -9 42 0 44 2 50 34 8 44 41 85 82 102 99 41 204 -20 204 -119 0
-74 -47 -136 -200 -267 -140 -120 -183 -175 -204 -263 l-6 -27 255 0 255 0 0
45 0 45 -187 2 -188 3 51 50 c28 28 98 94 157 148 59 54 119 118 133 142 79
136 8 296 -145 325 -30 5 -56 9 -60 9 -3 -1 -26 -5 -51 -8z"/>
</g>
</svg>
