<?xml version="1.0" standalone="no"?>
<!DOCTYPE svg PUBLIC "-//W3C//DTD SVG 20010904//EN"
 "http://www.w3.org/TR/2001/REC-SVG-20010904/DTD/svg10.dtd">
<svg version="1.0" xmlns="http://www.w3.org/2000/svg"
 width="1361.000000pt" height="755.000000pt" viewBox="0 0 1361.000000 755.000000"
 preserveAspectRatio="xMidYMid meet">

<g transform="translate(0.000000,755.000000) scale(0.100000,-0.100000)"
fill="#ffffff" stroke="none">
<path d="M10639 7035 c-56 -18 -115 -74 -142 -134 -29 -65 -34 -174 -12 -241
69 -209 351 -242 461 -54 23 40 29 62 32 133 5 103 -8 156 -51 213 -61 80
-185 116 -288 83z m168 -64 c79 -36 121 -143 102 -260 -20 -128 -120 -194
-241 -161 -47 13 -104 76 -119 132 -16 60 -7 164 19 213 45 86 146 118 239 76z"/>
<path d="M1654 6956 c-4 -11 -10 -13 -18 -7 -16 14 -1279 -1376 -1271 -1398 3
-8 1 -18 -6 -21 -12 -8 560 -1820 575 -1820 5 0 14 -6 20 -14 7 -9 349 -84
916 -200 498 -103 912 -189 921 -192 8 -2 161 -260 338 -572 178 -312 325
-569 327 -571 2 -2 15 2 29 9 16 9 24 19 20 29 -3 8 -148 264 -321 568 -174
305 -314 557 -312 562 2 5 280 313 618 685 411 453 620 676 630 673 14 -4
1662 -737 1667 -741 3 -3 -187 -1839 -191 -1843 -2 -2 -304 -69 -672 -148
-368 -79 -679 -147 -691 -150 -16 -4 -23 -13 -23 -31 0 -13 6 -27 13 -29 6 -3
324 62 706 145 382 82 698 150 702 150 5 0 6 7 3 15 -4 9 0 15 9 15 10 0 17
13 21 37 6 37 186 1793 186 1812 0 5 367 221 815 481 804 465 814 471 842 456
115 -59 1587 -918 1585 -924 -2 -4 -180 -239 -395 -522 -216 -282 -393 -519
-395 -526 -4 -17 290 -177 299 -162 4 6 124 282 266 614 179 417 263 602 273
602 8 0 377 209 820 466 442 256 807 466 810 466 3 0 271 -153 595 -340 589
-338 590 -339 608 -318 10 12 16 25 15 29 -5 16 -1203 697 -1209 687 -3 -5
-13 -6 -21 -3 -10 4 -310 -163 -821 -459 -443 -256 -808 -466 -812 -466 -3 0
-368 210 -811 466 -517 299 -811 463 -821 459 -9 -3 -19 -2 -22 3 -3 5 -370
-201 -816 -459 -445 -258 -815 -469 -820 -469 -6 0 -393 170 -860 378 l-850
378 -295 902 c-182 555 -300 902 -307 902 -7 0 -13 6 -13 13 0 8 -289 72 -906
201 -499 104 -915 191 -925 193 -11 3 -21 -1 -25 -11z m920 -242 c490 -102
895 -189 900 -194 10 -10 587 -1771 584 -1781 -7 -19 -1241 -1369 -1251 -1369
-27 0 -1813 373 -1820 380 -13 12 -568 1760 -565 1777 4 23 1231 1372 1247
1373 8 0 415 -84 905 -186z"/>
<path d="M1716 6605 c-4 -15 -5 -30 -2 -32 5 -5 1570 -343 1572 -340 1 1 5 16
8 32 l6 30 -767 164 c-423 91 -778 166 -789 169 -17 3 -23 -2 -28 -23z"/>
<path d="M728 5487 l-26 -12 248 -758 c136 -417 250 -760 252 -763 10 -9 60
16 55 29 -2 6 -113 347 -247 757 -133 410 -245 748 -249 752 -3 3 -18 1 -33
-5z"/>
<path d="M10580 5610 l0 -700 30 0 30 0 0 700 0 700 -30 0 -30 0 0 -700z"/>
<path d="M10900 5610 l0 -700 30 0 30 0 0 700 0 700 -30 0 -30 0 0 -700z"/>
<path d="M3720 3889 c-239 -263 -453 -500 -474 -525 l-39 -45 21 -22 22 -21
24 24 c13 14 227 249 476 524 l451 498 -22 24 c-12 13 -23 24 -23 24 -1 -1
-197 -217 -436 -481z"/>
<path d="M12286 4196 c-85 -32 -138 -93 -162 -186 -36 -143 17 -282 131 -343
31 -17 58 -22 115 -22 87 0 137 22 188 80 120 135 81 379 -71 457 -53 27 -149
33 -201 14z m151 -61 c48 -20 71 -41 94 -86 41 -81 33 -211 -18 -277 -92 -121
-281 -78 -322 73 -14 51 -14 91 0 155 25 115 141 179 246 135z"/>
<path d="M12810 3925 l0 -275 35 0 35 0 0 130 0 131 143 -3 142 -3 3 -127 3
-128 34 0 35 0 0 275 0 275 -35 0 -35 0 0 -115 0 -115 -145 0 -145 0 0 115 0
115 -35 0 -35 0 0 -275z"/>
<path d="M9198 3827 l-136 -81 14 -28 c8 -16 18 -27 22 -25 28 16 258 151 261
154 3 2 -2 16 -10 32 l-14 28 -137 -80z"/>
<path d="M5450 3758 c0 -7 -31 -319 -70 -693 -38 -374 -70 -688 -70 -697 0
-13 8 -18 30 -18 17 0 30 1 31 3 0 1 33 317 73 702 63 618 70 701 56 707 -25
11 -50 9 -50 -4z"/>
<path d="M9318 3612 l-127 -75 15 -29 15 -29 32 19 c18 11 77 46 132 78 55 32
102 59 104 61 9 6 -19 53 -31 52 -7 0 -70 -35 -140 -77z"/>
<path d="M9485 3409 c-55 -33 -115 -68 -132 -79 -30 -18 -32 -21 -21 -45 6
-14 15 -25 20 -25 9 0 245 136 261 150 8 7 -12 60 -22 60 -3 -1 -51 -28 -106
-61z"/>
<path d="M9580 3164 c-69 -41 -126 -78 -128 -83 -1 -4 5 -17 15 -29 l18 -21
123 73 c68 40 128 78 133 83 12 12 -9 54 -26 52 -5 0 -66 -34 -135 -75z"/>
<path d="M9721 2945 c-68 -40 -128 -78 -133 -83 -10 -10 10 -52 25 -52 12 0
267 152 267 159 0 3 -8 16 -18 28 l-17 21 -124 -73z"/>
<path d="M6850 2265 l0 -275 35 0 35 0 0 130 0 131 143 -3 142 -3 3 -127 3
-128 34 0 35 0 0 275 0 275 -35 0 -35 0 0 -115 0 -115 -145 0 -145 0 0 115 0
115 -35 0 -35 0 0 -275z"/>
<path d="M7900 2265 l0 -275 30 0 30 0 2 216 3 215 142 -215 c141 -214 142
-216 178 -216 l35 0 0 275 0 275 -35 0 -35 0 -2 -212 -3 -211 -140 211 c-134
203 -141 212 -172 212 l-33 0 0 -275z"/>
<path d="M9820 2265 l0 -275 30 0 29 0 3 128 3 127 143 3 142 3 0 -131 0 -130
35 0 35 0 0 275 0 275 -35 0 -35 0 0 -115 0 -115 -145 0 -145 0 0 115 0 115
-30 0 -30 0 0 -275z"/>
<path d="M7596 2280 c-41 -13 -85 -58 -98 -102 -13 -43 -12 -44 23 -53 23 -6
27 -3 33 22 12 46 34 71 71 82 75 20 140 -24 138 -96 -1 -48 -40 -98 -140
-183 -89 -76 -143 -147 -143 -187 l0 -23 175 0 175 0 0 30 0 30 -130 0 c-71 0
-130 4 -130 9 0 5 49 55 109 110 125 116 156 166 149 235 -3 24 -14 55 -24 70
-40 54 -131 79 -208 56z"/>
<path d="M3500 1645 l0 -275 30 0 30 0 2 218 3 217 144 -217 c140 -213 144
-218 177 -218 l34 0 0 275 0 275 -30 0 -30 0 0 -210 c0 -115 -3 -210 -7 -210
-5 0 -71 95 -147 210 -135 204 -140 210 -173 210 l-33 0 0 -275z"/>
<path d="M3500 565 l0 -275 35 0 35 0 0 130 0 131 143 -3 142 -3 3 -127 3
-128 29 0 30 0 0 275 0 275 -30 0 -30 0 0 -115 0 -115 -145 0 -145 0 0 115 0
115 -35 0 -35 0 0 -275z"/>
</g>
</svg>
