<?xml version="1.0" standalone="no"?>
<!DOCTYPE svg PUBLIC "-//W3C//DTD SVG 20010904//EN"
 "http://www.w3.org/TR/2001/REC-SVG-20010904/DTD/svg10.dtd">
<svg version="1.0" xmlns="http://www.w3.org/2000/svg"
 width="1383.000000pt" height="888.000000pt" viewBox="0 0 1383.000000 888.000000"
 preserveAspectRatio="xMidYMid meet">

<g transform="translate(0.000000,888.000000) scale(0.100000,-0.100000)"
fill="#ffffff" stroke="none">
<path d="M10455 8747 c-58 -19 -82 -34 -132 -80 -81 -75 -123 -189 -123 -335
0 -189 76 -324 219 -391 49 -23 68 -26 161 -26 93 0 112 3 161 26 145 68 219
199 219 386 0 150 -39 260 -122 340 -67 65 -125 86 -243 90 -63 2 -115 -2
-140 -10z m259 -111 c95 -56 140 -155 140 -306 -1 -152 -50 -247 -157 -302
-58 -30 -175 -30 -233 0 -90 46 -138 124 -154 247 -19 147 23 279 107 339 66
46 100 56 179 52 56 -2 82 -9 118 -30z"/>
<path d="M7310 7595 l0 -415 55 0 55 0 0 190 0 190 225 0 225 0 0 -190 0 -190
55 0 55 0 0 415 0 415 -55 0 -55 0 0 -180 0 -180 -225 0 -225 0 0 180 0 180
-55 0 -55 0 0 -415z"/>
<path d="M10408 7773 c-17 -4 -18 -42 -18 -608 l0 -603 -67 -38 c-85 -47
-1160 -666 -1189 -684 -19 -12 -63 11 -492 259 -259 149 -475 271 -480 271
-10 0 -46 -50 -40 -54 13 -10 951 -548 970 -556 23 -11 87 24 753 409 401 232
732 421 735 421 3 0 228 -128 498 -285 271 -157 494 -285 497 -285 2 0 11 13
20 30 l15 29 -57 34 c-32 18 -221 127 -420 242 l-363 208 0 609 0 609 -40 -3
-40 -2 0 -583 0 -582 -50 29 c-28 17 -56 30 -62 30 -6 0 -33 -13 -60 -30 -26
-16 -50 -30 -53 -30 -3 0 -5 263 -5 585 0 640 4 593 -52 578z"/>
<path d="M160 6645 l0 -415 50 0 50 0 0 190 0 190 230 0 230 0 0 -190 0 -190
50 0 50 0 0 415 0 415 -50 0 -50 0 0 -175 0 -175 -230 0 -230 0 0 175 0 175
-50 0 -50 0 0 -415z"/>
<path d="M1440 6645 l0 -415 50 0 50 0 0 326 c0 204 4 323 10 319 5 -3 109
-149 232 -325 l222 -320 48 0 48 0 0 415 0 415 -50 0 -50 0 -2 -322 -3 -323
-225 323 -224 322 -53 0 -53 0 0 -415z"/>
<path d="M7310 6645 l0 -415 50 0 50 0 0 325 c0 179 3 325 8 325 4 -1 108
-146 232 -323 l225 -322 53 -3 52 -3 0 415 0 416 -55 0 -55 0 -2 -322 -3 -321
-224 321 -225 322 -53 0 -53 0 0 -415z"/>
<path d="M4410 6505 c-157 -92 -484 -281 -727 -422 l-442 -255 -478 275 -478
274 -18 -29 c-10 -17 -17 -31 -15 -32 16 -12 969 -557 980 -561 13 -5 557 303
1328 752 126 74 147 83 168 74 19 -9 873 -503 1177 -681 l80 -47 3 -571 2
-572 35 0 35 0 2 550 3 550 55 -33 55 -33 55 32 55 32 3 -549 2 -549 40 0 40
0 -1 570 c-1 314 0 573 2 575 3 2 180 105 394 230 215 124 391 230 393 235 5
13 -17 50 -29 50 -6 0 -211 -115 -457 -256 -246 -141 -459 -263 -473 -271 -24
-15 -37 -8 -405 204 -786 455 -1067 616 -1083 619 -9 3 -144 -70 -301 -161z"/>
<path d="M1057 6626 c-66 -24 -117 -88 -117 -146 0 -16 6 -20 35 -20 25 0 35
4 35 16 0 61 89 116 154 94 78 -25 99 -105 47 -177 -16 -22 -83 -98 -150 -168
-84 -89 -121 -136 -121 -152 l0 -23 195 0 195 0 0 30 0 30 -140 0 c-77 0 -140
3 -140 6 0 3 46 55 102 115 138 149 151 168 156 237 3 47 0 63 -20 91 -45 66
-151 97 -231 67z"/>
<path d="M11935 6207 c-139 -47 -223 -141 -255 -288 -18 -81 -8 -249 18 -316
40 -105 122 -185 224 -219 70 -23 225 -16 290 13 138 62 218 209 218 396 -1
190 -77 331 -213 393 -50 23 -79 28 -152 31 -56 2 -105 -2 -130 -10z m235
-107 c81 -42 135 -130 150 -244 17 -135 -15 -252 -90 -324 -106 -104 -298 -92
-385 23 -114 149 -89 425 47 522 25 19 66 38 90 43 57 12 144 2 188 -20z"/>
<path d="M12550 5795 l0 -415 50 0 50 0 0 190 0 190 228 -2 227 -3 3 -187 2
-188 50 0 50 0 0 415 0 415 -50 0 -50 0 0 -180 0 -180 -230 0 -230 0 0 180 0
180 -50 0 -50 0 0 -415z"/>
<path d="M9060 5645 l0 -35 53 0 53 0 -4 35 c-4 35 -5 35 -53 35 l-49 0 0 -35z"/>
<path d="M9030 5365 l0 -35 86 0 c74 0 85 2 80 16 -3 9 -6 24 -6 35 0 17 -8
19 -80 19 l-80 0 0 -35z"/>
<path d="M8998 5080 l-4 -40 118 0 c128 0 127 0 112 58 -6 21 -11 22 -114 22
l-108 0 -4 -40z"/>
<path d="M8970 4811 c0 -11 -3 -26 -6 -35 -5 -14 11 -16 146 -16 l151 0 -3 33
-3 32 -142 3 c-136 2 -143 2 -143 -17z"/>
<path d="M8936 4528 c-13 -49 -17 -48 175 -48 l180 0 -3 33 -3 32 -171 3
c-171 2 -172 2 -178 -20z"/>
<path d="M6090 4520 c-204 -43 -326 -248 -292 -489 23 -165 93 -271 214 -327
56 -26 74 -29 163 -29 89 0 107 3 162 29 75 34 144 104 179 180 52 115 54 286
3 422 -30 80 -114 164 -192 193 -67 25 -173 34 -237 21z m185 -104 c63 -27
104 -66 136 -132 26 -52 32 -79 37 -154 12 -221 -91 -360 -268 -360 -123 0
-190 41 -242 148 -32 64 -33 72 -33 182 0 97 4 122 22 163 38 81 95 137 162
157 44 14 150 11 186 -4z"/>
<path d="M11325 3819 c-346 -253 -655 -477 -685 -498 l-55 -38 -725 419 -725
418 -18 -21 c-10 -12 -16 -27 -14 -32 3 -11 165 -105 1004 -589 l452 -260 163
-495 162 -495 30 6 c16 4 31 8 33 10 3 2 -68 224 -156 492 -89 268 -158 491
-154 494 5 4 304 221 666 483 l657 477 283 -203 c155 -112 348 -251 429 -310
81 -59 151 -107 155 -107 5 0 16 12 26 25 l17 24 -72 54 c-206 151 -837 607
-840 606 -2 0 -286 -208 -633 -460z"/>
<path d="M8906 4254 c-3 -9 -6 -24 -6 -35 0 -18 10 -19 210 -19 l210 0 0 35 0
35 -204 0 c-177 0 -205 -2 -210 -16z"/>
<path d="M11470 3544 c-278 -201 -522 -378 -542 -393 l-37 -27 22 -28 22 -28
540 392 c297 216 541 393 543 395 2 1 -7 15 -20 29 l-23 27 -505 -367z"/>
<path d="M13000 3256 l0 -416 50 0 50 0 2 327 3 326 226 -324 226 -324 51 -3
52 -3 0 415 0 416 -50 0 -50 0 -2 -325 -3 -326 -225 323 -225 323 -53 3 -52 3
0 -415z"/>
<path d="M12815 2748 c-38 -100 -272 -845 -267 -850 4 -3 18 -9 32 -13 l26 -6
137 423 c76 233 138 428 137 434 0 7 -10 14 -22 18 -33 8 -38 8 -43 -6z"/>
<path d="M12980 2268 c-72 -222 -146 -448 -164 -503 l-33 -100 -577 -3 -577
-2 3 -33 3 -32 597 -3 598 -2 13 32 c44 107 329 1020 321 1027 -5 5 -19 12
-30 15 -21 6 -29 -14 -154 -396z"/>
<path d="M10787 2054 c-4 -4 -7 -191 -7 -416 l0 -408 50 0 50 0 0 320 c0 176
3 320 8 320 4 0 107 -144 230 -320 l223 -320 54 0 55 0 -2 413 -3 412 -50 0
-50 0 -5 -323 -5 -324 -225 324 -226 323 -45 3 c-24 2 -48 0 -52 -4z"/>
<path d="M10387 688 l-297 -410 22 -18 c13 -11 26 -19 30 -20 6 0 564 762 591
806 3 6 -6 20 -21 31 l-28 20 -297 -409z"/>
</g>
</svg>
