<?xml version="1.0" standalone="no"?>
<!DOCTYPE svg PUBLIC "-//W3C//DTD SVG 20010904//EN"
 "http://www.w3.org/TR/2001/REC-SVG-20010904/DTD/svg10.dtd">
<svg version="1.0" xmlns="http://www.w3.org/2000/svg"
 width="3096.000000pt" height="1123.000000pt" viewBox="0 0 3096.000000 1123.000000"
 preserveAspectRatio="xMidYMid meet">

<g transform="translate(0.000000,1123.000000) scale(0.100000,-0.100000)"
fill="#ffffff" stroke="none">
<path d="M19048 11134 c-55 -29 -80 -119 -53 -189 57 -149 265 -104 265 57 0
93 -50 148 -134 148 -28 -1 -63 -7 -78 -16z m143 -43 c25 -26 29 -37 29 -85 0
-47 -4 -61 -28 -87 -51 -57 -140 -36 -163 40 -26 86 17 161 91 161 33 0 48 -6
71 -29z"/>
<path d="M19320 11005 c0 -138 1 -145 20 -145 18 0 20 7 20 70 l0 70 75 0 75
0 0 -70 c0 -63 2 -70 20 -70 19 0 20 7 20 145 0 138 -1 145 -20 145 -18 0 -20
-7 -20 -60 l0 -60 -75 0 -75 0 0 60 c0 53 -2 60 -20 60 -19 0 -20 -7 -20 -145z"/>
<path d="M17850 10872 c-130 -75 -248 -145 -263 -155 l-27 -17 0 -299 0 -298
-197 -113 c-316 -182 -316 -181 -306 -191 6 -6 105 46 253 132 133 77 249 143
256 146 7 2 127 -61 266 -142 139 -80 260 -144 269 -142 9 3 132 71 273 152
l256 148 0 301 1 301 154 88 c138 79 176 107 146 107 -5 0 -76 -39 -158 -86
-81 -48 -152 -87 -158 -87 -5 0 -124 66 -263 146 -140 81 -257 147 -260 146
-4 0 -113 -62 -242 -137z m500 -35 l245 -143 3 -295 2 -295 -251 -144 c-138
-80 -254 -144 -258 -143 -3 1 -118 65 -254 144 l-247 142 0 296 1 296 247 142
c136 78 252 142 257 142 6 0 120 -64 255 -142z"/>
<path d="M17880 10765 c-175 -103 -221 -135 -192 -135 20 0 412 232 406 241
-3 5 -8 9 -12 8 -4 0 -95 -51 -202 -114z"/>
<path d="M18490 10395 c0 -202 2 -235 15 -235 13 0 15 33 15 235 0 202 -2 235
-15 235 -13 0 -15 -33 -15 -235z"/>
<path d="M17685 10160 c-4 -6 -5 -12 -4 -14 2 -1 95 -55 206 -119 116 -66 205
-111 209 -106 8 13 26 1 -171 114 -93 54 -184 106 -202 117 -21 13 -34 15 -38
8z"/>
<path d="M9684 9848 c-3 -5 -4 -11 -3 -12 5 -4 349 -136 354 -136 3 0 5 6 5
13 0 15 -348 148 -356 135z"/>
<path d="M10180 9783 c-34 -13 -50 -37 -50 -74 0 -45 17 -59 101 -83 85 -24
105 -66 46 -94 -43 -21 -95 -8 -115 29 -9 16 -24 29 -33 29 -26 0 -11 -46 24
-76 27 -23 38 -26 89 -22 71 5 102 30 102 82 0 47 -17 63 -83 82 -100 29 -125
58 -76 90 35 23 92 11 107 -22 15 -32 52 -34 43 -1 -12 40 -41 60 -92 63 -26
2 -55 1 -63 -3z"/>
<path d="M17043 9693 c-34 -4 -36 -7 -25 -33 11 -25 112 -6 112 21 0 20 -11
21 -87 12z"/>
<path d="M14919 9613 c-42 -26 -63 -71 -64 -134 0 -64 19 -100 68 -129 64 -39
154 -15 189 51 22 41 24 119 3 160 -33 63 -135 90 -196 52z m137 -36 c35 -30
45 -116 20 -165 -20 -39 -76 -59 -118 -43 -73 28 -90 148 -29 203 40 36 89 37
127 5z"/>
<path d="M2830 9475 c0 -138 1 -145 20 -145 18 0 20 7 20 70 l0 71 78 -3 77
-3 3 -67 c2 -52 6 -68 17 -68 13 0 15 25 15 145 0 120 -2 145 -15 145 -10 0
-15 -15 -17 -57 l-3 -58 -77 -3 -78 -3 0 61 c0 53 -2 60 -20 60 -19 0 -20 -7
-20 -145z"/>
<path d="M3300 9475 c0 -138 1 -145 20 -145 18 0 20 8 22 113 l3 112 75 -112
c104 -156 110 -154 110 32 0 121 -2 145 -15 145 -12 0 -15 -21 -17 -112 l-3
-112 -74 112 c-59 90 -78 112 -97 112 l-24 0 0 -145z"/>
<path d="M17105 9613 c-59 -11 -65 -14 -65 -34 0 -19 4 -20 43 -14 51 9 57 12
57 30 0 17 -10 22 -35 18z"/>
<path d="M16000 9405 c0 -138 1 -145 20 -145 18 0 20 7 20 70 l0 70 75 0 75 0
0 -70 c0 -63 2 -70 20 -70 19 0 20 7 20 145 0 138 -1 145 -20 145 -18 0 -20
-7 -20 -60 l0 -60 -75 0 -75 0 0 60 c0 53 -2 60 -20 60 -19 0 -20 -7 -20 -145z"/>
<path d="M17088 9523 c-31 -5 -31 -5 -22 -27 6 -16 30 -21 58 -10 19 7 22 45
4 43 -7 -1 -25 -4 -40 -6z"/>
<path d="M3139 9432 c-16 -14 -20 -24 -15 -38 7 -18 8 -18 18 1 21 38 47 45
72 19 25 -25 20 -38 -44 -102 -33 -33 -60 -64 -60 -71 0 -7 25 -11 70 -11 40
0 70 4 70 10 0 6 -23 10 -52 10 l-52 0 52 53 c40 40 52 60 52 83 0 58 -63 84
-111 46z"/>
<path d="M17090 9422 c0 -25 7 -31 31 -25 29 8 25 43 -6 43 -18 0 -25 -5 -25
-18z"/>
<path d="M10233 9413 c3 -10 25 -99 48 -198 24 -99 44 -181 45 -183 3 -6 548
-212 560 -212 45 0 -14 28 -243 115 -142 53 -267 103 -279 110 -16 10 -29 51
-64 199 -30 127 -49 186 -58 186 -8 0 -11 -7 -9 -17z"/>
<path d="M17114 9334 c3 -9 6 -18 6 -20 0 -2 5 -4 10 -4 6 0 10 9 10 20 0 12
-7 20 -16 20 -11 0 -14 -5 -10 -16z"/>
<path d="M15050 9265 c0 -14 73 -326 86 -368 5 -15 1 -17 -20 -11 -16 4 -32 1
-41 -6 -9 -7 -17 -11 -18 -9 -2 2 -23 87 -47 189 -24 102 -47 189 -51 194 -23
25 -17 -18 25 -191 25 -104 46 -195 46 -204 0 -8 -49 -55 -110 -104 -102 -82
-124 -105 -101 -105 5 0 70 49 144 109 l134 109 272 -104 c149 -57 277 -104
284 -104 7 0 67 43 132 96 148 119 149 120 137 128 -6 3 -68 -41 -139 -98
l-130 -105 -234 90 c-129 50 -239 96 -245 102 -7 7 -33 101 -59 210 -26 108
-51 197 -56 197 -5 0 -9 -7 -9 -15z"/>
<path d="M16916 9035 c-126 -102 -233 -185 -239 -185 -6 0 -89 30 -185 66
-153 59 -206 72 -176 45 5 -4 72 -32 149 -61 77 -29 142 -54 144 -56 2 -2 25
-91 51 -199 46 -191 54 -215 66 -202 5 4 -60 299 -82 370 -5 15 -1 17 20 11
15 -3 32 -1 40 5 8 7 16 8 19 4 2 -4 23 -87 47 -183 41 -166 53 -201 65 -188
3 3 -16 94 -43 202 l-50 196 77 63 c42 35 133 110 204 166 l127 104 165 -63
c145 -55 201 -69 169 -41 -7 6 -327 131 -337 131 -1 0 -105 -83 -231 -185z"/>
<path d="M16000 9055 c0 -122 2 -145 15 -145 12 0 15 19 15 110 0 61 3 110 8
110 4 0 40 -50 80 -110 52 -79 78 -110 92 -110 19 0 20 7 20 145 0 138 -1 145
-20 145 -19 0 -20 -7 -20 -112 l0 -113 -75 113 c-54 80 -81 112 -95 112 -19 0
-20 -7 -20 -145z"/>
<path d="M3426 9162 c-3 -5 15 -74 41 -154 l46 -145 267 -102 c146 -57 273
-106 280 -111 9 -6 29 -108 60 -302 l46 -293 280 -107 c153 -59 283 -108 287
-108 5 0 7 5 5 12 -2 6 -125 58 -273 115 -148 57 -271 105 -273 108 -2 2 -25
135 -50 297 l-47 293 -281 108 -280 109 -44 136 c-46 142 -54 160 -64 144z"/>
<path d="M17580 9005 c0 -138 1 -145 20 -145 18 0 20 8 22 112 l3 112 74 -112
c104 -157 111 -155 111 33 0 121 -2 145 -15 145 -12 0 -15 -22 -17 -112 l-3
-113 -75 112 c-58 87 -80 113 -97 113 -23 0 -23 -1 -23 -145z"/>
<path d="M17890 9005 c0 -120 2 -145 15 -145 11 0 15 16 17 68 l3 67 75 0 75
0 3 -67 c2 -52 6 -68 17 -68 13 0 15 25 15 145 0 122 -2 145 -15 145 -12 0
-15 -13 -15 -60 l0 -60 -80 0 -80 0 0 60 c0 47 -3 60 -15 60 -13 0 -15 -23
-15 -145z"/>
<path d="M11838 9124 c-55 -29 -80 -119 -53 -189 57 -149 265 -104 265 57 0
93 -50 148 -134 148 -28 -1 -63 -7 -78 -16z m143 -43 c25 -26 29 -37 29 -85 0
-47 -4 -61 -28 -87 -51 -57 -140 -36 -163 40 -26 86 17 161 91 161 33 0 48 -6
71 -29z"/>
<path d="M12920 8915 c0 -138 1 -145 20 -145 18 0 20 7 20 70 l0 70 75 0 75 0
0 -70 c0 -63 2 -70 20 -70 19 0 20 7 20 145 0 138 -1 145 -20 145 -18 0 -20
-7 -20 -60 l0 -60 -75 0 -75 0 0 60 c0 53 -2 60 -20 60 -19 0 -20 -7 -20 -145z"/>
<path d="M18203 8970 c-21 -9 -40 -46 -29 -57 3 -4 17 6 30 20 28 30 30 31 57
17 32 -18 22 -51 -29 -99 -27 -26 -54 -56 -61 -68 -12 -23 -11 -23 64 -23 43
0 75 4 75 10 0 6 -26 10 -57 10 l-58 0 52 48 c66 61 77 96 39 129 -29 24 -47
27 -83 13z"/>
<path d="M11970 8776 c0 -8 18 -88 40 -178 22 -90 42 -173 45 -185 5 -20 3
-22 -18 -14 -18 7 -28 5 -40 -7 -20 -20 -17 -28 -62 163 -52 218 -55 229 -66
218 -6 -6 7 -79 36 -197 25 -103 45 -195 45 -204 0 -10 -48 -55 -110 -105 -61
-48 -108 -92 -104 -98 3 -6 10 -6 17 -1 7 5 69 54 139 110 l127 102 258 -99
c142 -55 265 -102 273 -105 23 -9 68 -613 48 -631 -53 -50 -390 -315 -400
-315 -7 0 -135 47 -283 104 -149 57 -274 101 -280 97 -5 -4 -112 -90 -237
-191 -156 -125 -228 -190 -228 -203 0 -21 89 -590 93 -592 9 -7 560 -215 568
-215 12 0 479 378 479 388 0 4 -20 133 -45 287 -25 154 -45 285 -45 291 0 6
89 82 197 170 109 87 223 180 254 206 l56 47 -68 278 c-67 270 -69 278 -50
293 198 158 240 195 232 203 -6 6 -58 -30 -138 -95 l-128 -105 -240 92 c-131
51 -243 99 -247 106 -4 8 -26 93 -49 189 -22 96 -43 183 -46 193 -5 21 -23 23
-23 3z m-45 -1473 c138 -52 255 -100 261 -107 6 -6 30 -138 54 -293 l44 -282
-25 -20 c-13 -10 -115 -93 -227 -184 l-203 -164 -272 104 c-150 58 -273 106
-273 107 -1 0 -22 129 -47 286 l-45 285 21 22 c64 64 434 352 447 347 8 -3
128 -48 265 -101z"/>
<path d="M11475 7164 c-175 -141 -199 -164 -175 -164 18 0 371 290 365 301 -4
5 -7 9 -8 9 -1 0 -83 -66 -182 -146z"/>
<path d="M12100 7113 c0 -32 68 -444 74 -450 19 -19 16 28 -13 214 -18 115
-35 218 -38 231 -6 26 -23 30 -23 5z"/>
<path d="M11372 6528 c2 -6 78 -40 169 -75 274 -106 269 -104 269 -89 0 8 -83
45 -213 94 -117 45 -216 82 -221 82 -4 0 -6 -5 -4 -12z"/>
<path d="M10920 8723 c-63 -10 -68 -13 -63 -33 5 -17 11 -19 47 -14 60 8 66
11 66 34 0 20 -3 21 -50 13z"/>
<path d="M13839 8549 c-123 -100 -229 -183 -235 -186 -6 -2 -87 26 -181 62
-171 66 -193 72 -193 56 0 -4 67 -34 150 -66 148 -57 150 -58 160 -94 5 -20
28 -111 51 -203 23 -93 45 -168 50 -168 5 0 9 7 9 15 0 13 -70 303 -86 357 -4
14 1 17 23 16 15 -1 35 2 43 6 13 5 23 -26 60 -179 40 -169 52 -206 66 -192 2
2 -16 86 -41 187 -25 101 -45 191 -45 201 0 12 67 73 181 166 100 82 191 154
204 162 21 13 36 9 185 -48 147 -56 191 -67 164 -42 -9 9 -320 131 -334 131
-4 0 -108 -82 -231 -181z"/>
<path d="M7181 8693 c-22 -11 -40 -31 -52 -57 -50 -111 11 -226 120 -226 57 0
97 23 121 70 25 49 25 103 1 156 -31 68 -116 93 -190 57z m130 -41 c57 -51 50
-165 -12 -197 -84 -44 -158 18 -146 122 6 57 50 103 97 103 18 0 42 -11 61
-28z"/>
<path d="M12920 8565 c0 -121 2 -145 15 -145 12 0 15 22 17 118 l3 117 79
-117 c109 -163 116 -162 116 27 0 138 -1 145 -20 145 -18 0 -20 -8 -22 -107
l-3 -107 -70 107 c-54 83 -75 107 -92 107 -23 0 -23 -1 -23 -145z"/>
<path d="M6820 8555 c0 -138 1 -145 20 -145 18 0 20 7 20 70 l0 70 80 0 80 0
0 -70 c0 -56 3 -70 15 -70 13 0 15 23 15 145 0 120 -2 145 -15 145 -10 0 -15
-15 -17 -57 l-3 -58 -75 0 -75 0 -3 58 c-3 49 -6 57 -22 57 -19 0 -20 -8 -20
-145z"/>
<path d="M8771 8643 c-54 -27 -73 -66 -69 -147 4 -64 6 -70 41 -102 32 -29 44
-34 88 -34 94 0 139 48 139 147 0 70 -23 112 -73 136 -44 21 -83 21 -126 0z
m97 -24 c109 -38 80 -229 -35 -229 -104 0 -138 175 -43 222 41 21 39 21 78 7z"/>
<path d="M14500 8515 c0 -138 1 -145 20 -145 18 0 20 8 22 113 l3 112 75 -112
c104 -156 110 -154 110 32 0 121 -2 145 -15 145 -12 0 -15 -21 -17 -112 l-3
-112 -74 112 c-59 90 -78 112 -97 112 l-24 0 0 -145z"/>
<path d="M10908 8633 c-28 -4 -38 -26 -18 -38 6 -4 29 -4 50 0 30 5 40 11 40
26 0 19 -11 21 -72 12z"/>
<path d="M9840 8425 c0 -138 1 -145 20 -145 18 0 20 7 20 70 l0 70 75 0 75 0
0 -70 c0 -63 2 -70 20 -70 19 0 20 7 20 145 0 138 -1 145 -20 145 -18 0 -20
-7 -20 -60 l0 -60 -75 0 -75 0 0 60 c0 53 -2 60 -20 60 -19 0 -20 -7 -20 -145z"/>
<path d="M10908 8544 c-12 -11 5 -45 19 -40 8 3 23 6 34 6 12 0 19 7 19 20 0
16 -7 20 -33 20 -19 0 -36 -3 -39 -6z"/>
<path d="M7446 8481 c-4 -5 -3 -12 1 -14 16 -10 353 -137 363 -137 16 0 11 17
-7 25 -10 4 -85 33 -168 65 -82 32 -157 61 -166 65 -10 3 -20 2 -23 -4z"/>
<path d="M10948 8463 c-29 -7 -23 -43 7 -43 20 0 25 5 25 25 0 25 -1 26 -32
18z"/>
<path d="M16686 8369 c-38 -30 -56 -71 -56 -127 0 -90 73 -159 155 -147 56 8
84 30 107 82 32 73 8 167 -52 198 -43 22 -122 20 -154 -6z m149 -33 c30 -30
41 -87 26 -137 -14 -47 -47 -71 -98 -71 -29 0 -43 7 -65 31 -24 26 -28 40 -28
87 0 48 4 59 29 85 39 38 100 41 136 5z"/>
<path d="M10951 8373 c2 -25 15 -41 27 -34 16 9 5 41 -14 41 -8 0 -14 -3 -13
-7z"/>
<path d="M8895 8298 c-5 -12 57 -295 81 -372 5 -16 2 -18 -17 -13 -13 3 -29 1
-36 -5 -8 -7 -17 -7 -22 -2 -5 5 -28 90 -51 189 -41 171 -52 206 -65 193 -3
-3 14 -90 39 -194 25 -104 46 -196 48 -205 2 -10 -38 -49 -110 -108 -62 -51
-110 -96 -107 -102 7 -11 6 -12 163 115 l123 99 267 -103 c147 -56 270 -105
273 -109 4 -3 26 -127 49 -276 23 -148 43 -277 45 -285 3 -10 -46 -46 -159
-115 l-164 -99 36 -48 c21 -26 39 -47 42 -47 3 0 61 60 130 133 69 74 130 134
136 135 7 1 133 -46 280 -103 148 -57 271 -99 273 -94 1 5 1 11 -1 14 -3 2
-124 50 -269 105 -145 56 -267 104 -271 108 -3 3 -25 123 -47 266 -23 143 -44
272 -47 286 -4 23 9 36 125 130 72 57 131 107 131 112 0 20 -34 -1 -146 -93
-67 -55 -126 -100 -131 -100 -4 0 -115 41 -245 91 l-238 92 -10 36 c-5 20 -27
112 -50 205 -22 93 -42 172 -45 174 -2 3 -7 -2 -10 -10z"/>
<path d="M14510 8165 c0 -122 2 -145 15 -145 12 0 15 14 15 70 l0 70 80 0 80
0 0 -70 c0 -56 3 -70 15 -70 13 0 15 23 15 145 0 120 -2 145 -15 145 -10 0
-15 -15 -17 -57 l-3 -58 -75 0 -75 0 -3 58 c-2 42 -7 57 -17 57 -13 0 -15 -25
-15 -145z"/>
<path d="M7815 8231 c-33 -5 -39 -10 -37 -26 2 -11 5 -21 5 -22 3 -2 111 18
115 21 1 2 0 11 -4 20 -6 17 -12 17 -79 7z"/>
<path d="M10966 8231 c-3 -4 -104 -88 -225 -185 l-219 -177 -169 65 c-92 35
-176 68 -185 71 -12 5 -18 2 -18 -7 0 -10 50 -33 143 -68 78 -29 147 -58 153
-64 7 -6 33 -100 59 -208 26 -109 51 -198 56 -198 5 0 9 6 9 14 0 13 -74 329
-86 369 -5 17 -3 17 16 7 16 -9 25 -9 33 -1 6 6 16 11 22 11 6 0 31 -82 55
-182 24 -101 47 -187 52 -192 23 -28 16 21 -26 188 -25 102 -46 194 -45 203 0
21 393 340 412 335 9 -2 209 -78 315 -119 6 -3 12 1 12 9 0 8 -62 37 -163 76
-162 62 -191 70 -201 53z"/>
<path d="M9840 8085 c0 -121 2 -145 15 -145 12 0 15 22 17 113 l3 112 75 -112
c58 -87 80 -113 98 -113 22 0 22 1 22 145 0 138 -1 145 -20 145 -18 0 -20 -8
-22 -112 l-3 -112 -74 112 c-104 157 -111 155 -111 -33z"/>
<path d="M5683 8150 c-43 -26 -63 -68 -63 -132 0 -90 53 -148 135 -148 83 0
135 58 135 150 0 65 -24 111 -69 135 -41 21 -99 19 -138 -5z m138 -36 c11 -10
24 -34 29 -56 22 -79 -26 -158 -95 -158 -111 0 -140 192 -35 233 24 10 81 -1
101 -19z"/>
<path d="M11430 8025 c0 -121 2 -145 15 -145 12 0 15 22 17 116 l3 117 78
-117 c55 -83 83 -116 97 -116 19 0 20 7 20 145 0 138 -1 145 -20 145 -19 0
-20 -7 -20 -112 l0 -113 -75 113 c-54 80 -81 112 -95 112 -19 0 -20 -7 -20
-145z"/>
<path d="M7818 8143 c-19 -5 -24 -28 -9 -38 6 -3 28 -3 50 1 31 5 41 11 41 25
0 15 -7 19 -32 18 -18 -1 -41 -3 -50 -6z"/>
<path d="M6760 7945 c0 -138 1 -145 20 -145 18 0 20 7 20 65 l0 65 75 0 75 0
0 -65 c0 -58 2 -65 20 -65 19 0 20 7 20 145 0 138 -1 145 -20 145 -18 0 -20
-7 -20 -60 l0 -60 -75 0 -75 0 0 60 c0 53 -2 60 -20 60 -19 0 -20 -7 -20 -145z"/>
<path d="M7853 8063 c-36 -5 -36 -4 -27 -27 4 -10 18 -16 40 -16 30 0 34 3 34
25 0 14 -3 24 -7 23 -5 0 -23 -3 -40 -5z"/>
<path d="M7861 7971 c-19 -12 -6 -43 16 -39 21 4 31 48 11 48 -7 0 -19 -4 -27
-9z"/>
<path d="M13619 7890 c-44 -23 -69 -72 -69 -135 0 -89 51 -145 132 -145 95 0
142 49 142 150 1 117 -104 184 -205 130z m128 -36 c28 -18 48 -82 39 -127 -16
-84 -108 -116 -167 -58 -25 25 -29 37 -29 84 0 104 76 154 157 101z"/>
<path d="M7874 7874 c3 -9 6 -18 6 -20 0 -2 7 -4 15 -4 8 0 15 9 15 20 0 14
-7 20 -21 20 -15 0 -19 -4 -15 -16z"/>
<path d="M11430 7685 c0 -138 1 -145 20 -145 18 0 20 7 20 65 l0 65 75 0 75 0
0 -65 c0 -58 2 -65 20 -65 19 0 20 7 20 145 0 138 -1 145 -20 145 -18 0 -20
-7 -20 -60 l0 -60 -75 0 -75 0 0 60 c0 53 -2 60 -20 60 -19 0 -20 -7 -20 -145z"/>
<path d="M5810 7806 c0 -8 18 -88 40 -178 22 -90 42 -172 45 -184 4 -18 0 -21
-23 -21 -15 1 -33 -1 -41 -4 -11 -3 -25 40 -60 185 -26 106 -51 191 -58 194
-17 5 -19 14 36 -211 l49 -199 -87 -71 c-47 -40 -99 -82 -115 -95 -18 -13 -26
-26 -20 -31 5 -6 64 35 144 100 74 60 139 109 144 109 22 0 538 -204 541 -214
2 -6 13 -134 24 -285 11 -150 22 -276 25 -278 2 -2 138 -56 301 -118 164 -63
299 -116 302 -119 6 -6 87 -516 82 -519 -129 -102 -309 -252 -309 -258 0 -20
25 -3 167 111 126 103 148 118 151 100 2 -12 14 -26 27 -32 25 -11 15 -21
-240 -224 -22 -18 -35 -36 -31 -42 4 -7 65 36 163 116 86 70 161 126 167 125
6 -2 69 -25 141 -53 82 -32 133 -46 139 -40 6 6 0 13 -15 19 -13 5 -89 34
-168 65 -80 30 -147 60 -151 66 -3 5 -26 136 -50 290 -24 154 -46 284 -49 289
-4 5 -114 51 -246 101 -132 51 -244 96 -248 100 -7 7 -96 346 -142 542 l-13
58 126 102 c70 56 129 103 131 105 3 2 0 7 -5 13 -5 5 -52 -26 -119 -81 -60
-50 -119 -97 -131 -105 -19 -13 -42 -6 -260 77 -131 50 -240 92 -242 94 -2 1
-26 95 -53 209 -28 113 -55 206 -60 206 -5 0 -9 -7 -9 -14z"/>
<path d="M7794 7667 c-61 -51 -166 -136 -232 -189 l-120 -98 -182 70 c-166 64
-211 76 -184 50 5 -5 70 -32 144 -60 74 -28 140 -57 146 -63 6 -7 33 -99 59
-204 30 -124 52 -193 60 -193 9 0 -1 56 -36 193 -27 105 -49 193 -49 194 0 1
11 -2 24 -6 17 -7 27 -5 39 7 9 9 18 14 20 11 2 -2 23 -86 47 -186 24 -100 47
-188 51 -195 24 -38 16 22 -26 196 -26 108 -45 200 -43 205 1 5 93 82 202 170
137 112 204 160 215 155 27 -10 192 -74 259 -99 46 -18 62 -21 62 -11 0 10
-255 118 -335 141 -5 2 -60 -38 -121 -88z"/>
<path d="M4728 7743 c-36 -6 -40 -43 -5 -43 58 0 97 13 97 31 0 20 -23 22 -92
12z"/>
<path d="M6760 7595 c0 -122 2 -145 15 -145 12 0 15 19 15 110 0 61 3 110 8
110 4 0 40 -50 80 -110 52 -79 78 -110 92 -110 19 0 20 7 20 145 0 138 -1 145
-20 145 -19 0 -20 -7 -20 -112 l0 -113 -75 113 c-54 80 -81 112 -95 112 -19 0
-20 -7 -20 -145z"/>
<path d="M8350 7545 c0 -121 2 -145 15 -145 12 0 15 21 17 112 l3 112 74 -112
c59 -90 78 -112 97 -112 l24 0 0 145 c0 138 -1 145 -20 145 -18 0 -20 -8 -22
-112 l-3 -112 -75 112 c-104 154 -110 152 -110 -33z"/>
<path d="M2583 7646 c-35 -32 -37 -38 -41 -102 -2 -56 1 -75 18 -102 50 -80
180 -80 230 0 17 27 20 46 18 102 -4 64 -6 70 -41 102 -32 30 -43 34 -92 34
-49 0 -60 -4 -92 -34z m150 -17 c59 -46 56 -162 -6 -199 -18 -11 -41 -20 -52
-20 -39 0 -83 37 -95 80 -22 81 25 160 95 160 18 0 44 -9 58 -21z"/>
<path d="M4767 7660 c-45 -8 -49 -12 -41 -34 5 -12 13 -16 28 -12 11 3 31 6
44 6 17 0 22 6 22 25 0 14 -3 24 -7 24 -5 -1 -25 -5 -46 -9z"/>
<path d="M9385 7640 c-4 -6 -3 -16 3 -22 6 -6 12 -6 17 2 4 6 3 16 -3 22 -6 6
-12 6 -17 -2z"/>
<path d="M9326 7621 c-8 -13 20 -45 32 -37 9 5 8 12 -1 26 -13 22 -23 25 -31
11z"/>
<path d="M9270 7597 c0 -21 37 -64 46 -54 10 10 -16 59 -33 65 -7 2 -13 -3
-13 -11z"/>
<path d="M3680 7455 c0 -137 1 -145 20 -145 17 0 19 8 22 68 l3 67 75 0 75 0
3 -67 c2 -52 6 -68 17 -68 13 0 15 25 15 145 0 122 -2 145 -15 145 -12 0 -15
-13 -15 -60 l0 -60 -80 0 -80 0 0 60 c0 53 -2 60 -20 60 -19 0 -20 -7 -20
-145z"/>
<path d="M9210 7584 c0 -11 44 -84 50 -84 18 0 18 17 -2 51 -12 22 -28 39 -35
39 -7 0 -13 -3 -13 -6z"/>
<path d="M4769 7573 c-21 -3 -26 -8 -22 -24 8 -30 67 -23 71 9 3 22 2 23 -49
15z"/>
<path d="M9160 7560 c0 -6 12 -32 26 -56 35 -60 57 -44 23 17 -23 42 -49 62
-49 39z"/>
<path d="M8860 7405 c0 -120 2 -145 15 -145 11 0 15 16 17 68 l3 67 75 0 75 0
3 -67 c2 -52 6 -68 17 -68 13 0 15 25 15 145 0 122 -2 145 -15 145 -12 0 -15
-13 -15 -60 l0 -60 -80 0 -80 0 0 60 c0 47 -3 60 -15 60 -13 0 -15 -23 -15
-145z"/>
<path d="M4774 7475 c-8 -21 3 -34 26 -28 27 7 27 43 0 43 -11 0 -23 -7 -26
-15z"/>
<path d="M10532 7400 c-39 -24 -62 -73 -62 -130 0 -22 6 -56 14 -75 39 -93
189 -101 241 -12 26 42 27 133 2 171 -42 63 -131 85 -195 46z m139 -36 c26
-24 43 -85 35 -127 -4 -23 -19 -46 -38 -62 -27 -22 -39 -26 -71 -22 -22 3 -49
14 -59 25 -23 22 -33 85 -24 137 13 67 105 96 157 49z"/>
<path d="M4797 7380 c3 -11 12 -20 19 -20 8 0 14 9 14 20 0 13 -7 20 -19 20
-14 0 -18 -5 -14 -20z"/>
<path d="M8350 7195 c0 -138 1 -145 20 -145 18 0 20 7 20 70 l0 70 75 0 75 0
0 -70 c0 -63 2 -70 20 -70 19 0 20 7 20 145 0 138 -1 145 -20 145 -18 0 -20
-7 -20 -60 l0 -60 -75 0 -75 0 0 60 c0 53 -2 60 -20 60 -19 0 -20 -7 -20 -145z"/>
<path d="M2730 7321 c0 -6 20 -94 45 -197 25 -102 45 -188 45 -190 0 -3 -11
-2 -25 2 -14 3 -31 1 -39 -5 -8 -7 -16 -8 -18 -4 -3 4 -24 92 -49 196 -30 128
-48 187 -57 187 -8 0 -11 -7 -8 -17 3 -10 23 -97 46 -193 23 -96 43 -181 45
-188 3 -6 -47 -54 -110 -105 -66 -54 -110 -96 -105 -101 5 -5 65 36 145 101
l136 110 272 -104 c150 -58 273 -105 273 -106 1 -1 11 -130 23 -286 11 -156
22 -285 24 -287 1 -1 92 -36 201 -78 133 -51 203 -73 209 -67 7 7 0 14 -19 21
-16 6 -82 31 -146 56 -114 44 -118 47 -127 82 -6 20 -39 155 -74 300 l-64 263
129 105 c70 58 126 110 122 115 -3 6 -10 6 -17 1 -7 -5 -66 -53 -132 -106 -66
-53 -124 -94 -130 -92 -5 2 -111 43 -235 91 -124 47 -229 90 -234 95 -5 5 -28
87 -51 182 -23 95 -45 185 -48 201 -7 25 -27 39 -27 18z"/>
<path d="M4725 7187 c-55 -45 -159 -130 -230 -188 l-131 -106 -178 68 c-187
72 -200 76 -194 58 2 -7 71 -38 153 -69 l150 -57 48 -202 c32 -131 53 -201 62
-201 12 0 -15 127 -69 337 l-14 53 24 -6 c14 -4 31 -1 39 6 9 7 17 11 19 9 2
-2 24 -89 50 -193 25 -104 48 -191 51 -194 19 -20 9 51 -30 206 -25 100 -45
187 -45 195 0 11 375 325 401 335 4 2 80 -25 168 -59 104 -40 165 -59 172 -52
6 6 -51 32 -158 73 -93 35 -172 65 -178 66 -5 2 -55 -34 -110 -79z"/>
<path d="M3680 7105 c0 -138 1 -145 20 -145 18 0 20 8 22 112 l3 112 74 -112
c104 -157 111 -155 111 33 0 121 -2 145 -15 145 -12 0 -15 -22 -17 -112 l-3
-113 -75 112 c-58 87 -80 113 -97 113 -23 0 -23 -1 -23 -145z"/>
<path d="M5270 7055 c0 -121 2 -145 15 -145 12 0 15 22 17 113 l3 112 75 -112
c58 -87 80 -113 98 -113 22 0 22 1 22 145 0 138 -1 145 -20 145 -18 0 -20 -8
-22 -112 l-3 -112 -74 112 c-104 157 -111 155 -111 -33z"/>
<path d="M7459 6915 c-38 -21 -60 -60 -65 -118 -6 -63 15 -111 65 -144 119
-80 259 67 194 204 -9 20 -30 44 -47 54 -37 22 -110 24 -147 4z m120 -30 c37
-19 55 -64 48 -121 -7 -63 -42 -99 -97 -99 -55 0 -90 36 -97 99 -12 103 63
165 146 121z"/>
<path d="M9042 6860 c-39 -24 -62 -73 -62 -130 0 -22 6 -56 14 -75 39 -93 189
-101 241 -12 26 42 27 133 2 171 -42 63 -131 85 -195 46z m139 -36 c26 -24 43
-85 35 -127 -4 -23 -19 -46 -38 -62 -27 -22 -39 -26 -71 -22 -22 3 -49 14 -59
25 -23 22 -33 85 -24 137 13 67 105 96 157 49z"/>
<path d="M8690 6725 c0 -138 1 -145 20 -145 18 0 20 7 20 70 l0 70 75 0 75 0
0 -70 c0 -63 2 -70 20 -70 19 0 20 7 20 145 0 138 -1 145 -20 145 -18 0 -20
-7 -20 -60 l0 -60 -75 0 -75 0 0 60 c0 53 -2 60 -20 60 -19 0 -20 -7 -20 -145z"/>
<path d="M5270 6705 c0 -138 1 -145 20 -145 18 0 20 7 20 70 l0 70 75 0 75 0
0 -70 c0 -63 2 -70 20 -70 19 0 20 7 20 145 0 138 -1 145 -20 145 -18 0 -20
-7 -20 -60 l0 -60 -75 0 -75 0 0 60 c0 53 -2 60 -20 60 -19 0 -20 -7 -20 -145z"/>
<path d="M1890 6565 c0 -138 1 -145 20 -145 18 0 20 7 20 70 l0 70 75 0 75 0
0 -70 c0 -63 2 -70 20 -70 19 0 20 7 20 145 0 138 -1 145 -20 145 -18 0 -20
-7 -20 -60 l0 -60 -75 0 -75 0 0 60 c0 53 -2 60 -20 60 -19 0 -20 -7 -20 -145z"/>
<path d="M2190 6565 c0 -122 2 -145 15 -145 12 0 15 20 15 118 l0 117 78 -117
c60 -92 82 -118 100 -118 22 0 22 1 22 145 0 138 -1 145 -20 145 -18 0 -20 -8
-22 -110 l-3 -109 -74 109 c-104 154 -111 151 -111 -35z"/>
<path d="M4365 6418 c-75 -59 -71 -194 7 -252 19 -14 44 -20 78 -20 34 0 59 6
78 20 78 58 82 193 7 252 -21 17 -41 22 -85 22 -44 0 -64 -5 -85 -22z m136
-18 c43 -24 63 -116 36 -170 -7 -14 -29 -33 -50 -43 -36 -18 -38 -18 -74 0
-50 24 -65 55 -60 122 3 44 9 59 31 78 29 25 83 31 117 13z"/>
<path d="M2304 6333 c3 -10 24 -96 47 -192 34 -145 39 -175 28 -186 -8 -6 -99
-81 -203 -165 l-189 -153 -176 68 c-191 73 -221 82 -221 68 0 -6 80 -41 178
-78 97 -37 181 -70 186 -73 5 -3 1 -11 -9 -18 -12 -9 -16 -21 -13 -39 3 -14 5
-25 4 -25 0 0 -82 32 -181 70 -99 38 -186 70 -192 70 -42 0 9 -26 176 -90 103
-39 192 -75 198 -78 5 -4 27 -76 48 -159 20 -84 41 -153 46 -153 15 0 10 28
-35 207 l-43 171 223 181 c123 100 228 181 234 181 15 0 533 -250 546 -263 6
-7 28 -120 48 -252 21 -132 40 -249 42 -261 4 -17 56 -40 277 -124 150 -57
276 -107 281 -111 5 -4 28 -87 52 -184 24 -98 45 -180 48 -183 23 -23 4 87
-50 294 -4 17 21 42 146 143 83 67 148 127 144 132 -3 6 -10 6 -17 1 -7 -5
-72 -58 -146 -117 -103 -83 -135 -105 -142 -94 -5 8 -9 17 -9 20 0 3 -9 10
-21 15 -19 9 -6 22 125 128 80 65 143 122 140 127 -7 12 -9 11 -164 -114 -74
-60 -140 -111 -146 -114 -10 -4 -480 169 -491 181 -1 1 -25 145 -53 321 -28
175 -53 321 -55 323 -2 2 -118 37 -257 78 -139 41 -262 78 -274 83 -17 7 -28
41 -64 195 -31 129 -48 186 -58 186 -8 0 -11 -7 -8 -17z"/>
<path d="M3921 6053 c-54 -27 -73 -66 -69 -147 4 -64 6 -70 41 -102 32 -29 44
-34 88 -34 94 0 139 48 139 147 0 70 -23 112 -73 136 -44 21 -83 21 -126 0z
m97 -24 c109 -38 80 -229 -35 -229 -104 0 -138 175 -43 222 41 21 39 21 78 7z"/>
<path d="M4180 5915 c0 -138 1 -145 20 -145 18 0 20 7 20 70 l0 70 75 0 75 0
0 -70 c0 -63 2 -70 20 -70 19 0 20 7 20 145 0 138 -1 145 -20 145 -18 0 -20
-7 -20 -60 l0 -60 -75 0 -75 0 0 60 c0 53 -2 60 -20 60 -19 0 -20 -7 -20 -145z"/>
<path d="M1311 5943 c-48 -25 -73 -63 -79 -121 -9 -95 48 -162 138 -162 85 0
140 58 140 147 0 109 -109 184 -199 136z m128 -48 c47 -46 36 -166 -18 -195
-25 -13 -77 -13 -102 0 -53 29 -65 146 -19 195 38 41 97 41 139 0z"/>
<path d="M7649 5730 c-44 -23 -69 -72 -69 -135 0 -89 51 -145 132 -145 95 0
142 49 142 150 1 117 -104 184 -205 130z m128 -36 c28 -18 48 -82 39 -127 -16
-84 -108 -116 -167 -58 -25 25 -29 37 -29 84 0 104 76 154 157 101z"/>
<path d="M7910 5595 c0 -138 1 -145 20 -145 18 0 20 7 20 70 l0 71 78 -3 77
-3 3 -67 c2 -52 6 -68 17 -68 13 0 15 25 15 145 0 120 -2 145 -15 145 -10 0
-15 -15 -17 -57 l-3 -58 -77 -3 -78 -3 0 61 c0 53 -2 60 -20 60 -19 0 -20 -7
-20 -145z"/>
<path d="M6605 5558 c-75 -59 -71 -194 7 -252 19 -14 44 -20 78 -20 34 0 59 6
78 20 78 58 82 193 7 252 -21 17 -41 22 -85 22 -44 0 -64 -5 -85 -22z m136
-18 c43 -24 63 -116 36 -170 -7 -14 -29 -33 -50 -43 -36 -18 -38 -18 -74 0
-50 24 -65 55 -60 122 3 44 9 59 31 78 29 25 83 31 117 13z"/>
<path d="M9500 5435 c0 -121 2 -145 15 -145 12 0 15 22 17 118 l3 117 79 -117
c109 -163 116 -162 116 27 0 138 -1 145 -20 145 -18 0 -20 -8 -22 -107 l-3
-107 -70 107 c-54 83 -75 107 -92 107 -23 0 -23 -1 -23 -145z"/>
<path d="M9800 5435 c0 -138 1 -145 20 -145 18 0 20 7 20 70 l0 70 75 0 75 0
0 -70 c0 -63 2 -70 20 -70 19 0 20 7 20 145 0 138 -1 145 -20 145 -18 0 -20
-7 -20 -60 l0 -60 -75 0 -75 0 0 60 c0 53 -2 60 -20 60 -19 0 -20 -7 -20 -145z"/>
<path d="M27170 5435 c0 -121 2 -145 15 -145 12 0 15 22 17 116 l3 117 78
-117 c55 -83 83 -116 97 -116 19 0 20 7 20 145 0 138 -1 145 -20 145 -19 0
-20 -7 -20 -112 l0 -113 -75 113 c-54 80 -81 112 -95 112 -19 0 -20 -7 -20
-145z"/>
<path d="M27470 5435 c0 -138 1 -145 20 -145 18 0 20 7 20 70 l0 70 75 0 75 0
0 -70 c0 -63 2 -70 20 -70 19 0 20 7 20 145 0 138 -1 145 -20 145 -18 0 -20
-7 -20 -60 l0 -60 -75 0 -75 0 0 60 c0 53 -2 60 -20 60 -19 0 -20 -7 -20 -145z"/>
<path d="M3996 5449 c-38 -30 -56 -71 -56 -127 0 -90 73 -159 155 -147 56 8
84 30 107 82 32 73 8 167 -52 198 -43 22 -122 20 -154 -6z m149 -33 c30 -30
41 -87 26 -137 -14 -47 -47 -71 -98 -71 -29 0 -43 7 -65 31 -24 26 -28 40 -28
87 0 48 4 59 29 85 39 38 100 41 136 5z"/>
<path d="M905 5398 c2 -13 23 -144 46 -293 23 -148 47 -275 53 -282 6 -6 119
-53 251 -103 132 -51 251 -96 264 -101 22 -9 14 -16 -105 -106 -71 -53 -131
-98 -133 -100 -3 -2 15 -23 39 -48 l43 -44 98 131 c58 77 100 125 103 117 3
-8 30 -131 60 -274 l55 -260 -87 -80 c-48 -44 -107 -98 -131 -121 -24 -22 -40
-44 -34 -47 5 -4 58 37 116 89 l106 95 183 -60 c164 -53 217 -64 191 -41 -4 4
-80 31 -168 60 -165 54 -185 63 -166 74 6 4 11 20 11 35 l0 29 165 -54 c91
-30 172 -54 180 -54 44 0 -4 22 -166 75 -138 46 -184 65 -190 80 -5 11 -29
119 -54 240 -25 121 -48 227 -51 236 -4 14 87 94 255 226 3 2 0 7 -5 12 -5 6
-53 -26 -119 -81 -60 -49 -120 -96 -131 -104 -20 -14 -43 -7 -289 88 -203 77
-269 107 -276 122 -4 12 -27 144 -50 294 -31 199 -46 272 -56 272 -9 0 -12 -8
-8 -22z"/>
<path d="M10096 5388 c-9 -12 -16 -26 -16 -30 0 -16 26 -7 38 12 24 40 89 14
74 -30 -2 -8 -29 -38 -58 -66 -75 -70 -73 -84 16 -84 56 0 70 3 70 15 0 11
-12 15 -52 15 l-52 0 52 53 c55 56 66 92 36 121 -24 25 -90 21 -108 -6z"/>
<path d="M27766 5388 c-20 -28 -20 -38 -2 -38 7 0 16 9 19 21 4 16 12 20 39
17 27 -2 34 -8 36 -30 3 -21 -8 -37 -52 -79 -31 -29 -56 -61 -56 -71 0 -16 9
-18 70 -18 56 0 70 3 70 15 0 11 -12 15 -51 15 l-52 0 52 54 c55 59 64 91 33
119 -28 25 -87 22 -106 -5z"/>
<path d="M9610 5021 l0 -199 258 -149 257 -149 5 -303 5 -302 225 -130 c124
-72 228 -133 232 -137 6 -7 61 -613 55 -618 -1 -1 -71 -41 -154 -89 -139 -80
-173 -105 -143 -105 6 0 78 39 161 87 l150 86 42 -23 c23 -13 125 -72 227
-131 l185 -107 3 -201 c1 -123 6 -201 12 -201 6 0 10 75 10 196 0 173 2 195
15 184 8 -7 25 -10 40 -6 l25 6 0 -190 c0 -162 2 -190 15 -190 13 0 15 29 15
203 l1 202 120 69 c74 42 117 72 111 78 -5 5 -65 -23 -154 -75 l-146 -85 -251
145 -251 145 0 39 c0 21 9 145 21 274 11 130 19 243 17 251 -2 9 -129 89 -283
178 l-280 162 -5 302 -5 303 -255 147 -255 148 -3 192 c-1 117 -6 192 -12 192
-6 0 -10 -76 -10 -199z"/>
<path d="M27280 5028 l-1 -193 -259 -149 -260 -149 0 -301 -1 -301 -269 -155
c-148 -85 -276 -160 -285 -166 -13 -10 -12 -42 9 -295 13 -156 24 -285 23
-285 -1 -1 -71 -41 -154 -89 -92 -52 -153 -93 -153 -102 0 -12 7 -11 38 7 143
85 283 161 290 158 5 -1 106 -59 225 -128 l217 -125 0 -202 c0 -174 2 -203 15
-203 13 0 15 28 15 188 l0 187 40 0 40 0 0 -187 c0 -160 2 -188 15 -188 13 0
15 29 15 203 l0 202 121 69 c75 43 117 72 111 78 -6 6 -62 -20 -149 -71 -77
-45 -146 -81 -153 -81 -12 0 -367 201 -470 265 l-36 23 26 306 25 307 230 133
230 134 5 302 5 302 255 148 255 148 3 201 c1 132 -1 201 -8 201 -6 0 -10 -68
-10 -192z"/>
<path d="M1910 5005 c0 -122 2 -145 15 -145 12 0 15 19 15 110 0 61 3 110 8
110 4 0 40 -50 80 -110 52 -79 78 -110 92 -110 19 0 20 7 20 145 0 138 -1 145
-20 145 -19 0 -20 -7 -20 -112 l0 -113 -75 113 c-54 80 -81 112 -95 112 -19 0
-20 -7 -20 -145z"/>
<path d="M2210 5005 c0 -138 1 -145 20 -145 18 0 20 7 20 70 l0 70 75 0 75 0
0 -70 c0 -63 2 -70 20 -70 19 0 20 7 20 145 0 138 -1 145 -20 145 -18 0 -20
-7 -20 -60 l0 -60 -75 0 -75 0 0 60 c0 53 -2 60 -20 60 -19 0 -20 -7 -20 -145z"/>
<path d="M25140 4972 c-47 -23 -74 -74 -74 -137 0 -95 49 -145 142 -145 81 0
132 56 132 145 0 68 -25 114 -74 136 -51 23 -82 24 -126 1z m133 -53 c23 -25
27 -38 27 -85 0 -48 -4 -59 -29 -85 -59 -59 -151 -26 -167 59 -11 55 14 113
56 135 44 22 77 15 113 -24z"/>
<path d="M29301 4973 c-48 -25 -73 -63 -79 -121 -9 -95 48 -162 138 -162 85 0
140 58 140 147 0 109 -109 184 -199 136z m128 -48 c31 -31 40 -108 17 -153
-19 -37 -44 -52 -86 -52 -68 0 -105 51 -98 132 10 98 101 138 167 73z"/>
<path d="M30329 4970 c-44 -23 -69 -72 -69 -135 0 -89 51 -145 132 -145 95 0
142 49 142 150 1 117 -104 184 -205 130z m128 -36 c28 -18 48 -82 39 -127 -16
-84 -108 -116 -167 -58 -25 25 -29 37 -29 84 0 104 76 154 157 101z"/>
<path d="M25400 4835 c0 -138 1 -145 20 -145 18 0 20 7 20 70 l0 70 75 0 75 0
0 -70 c0 -63 2 -70 20 -70 19 0 20 7 20 145 0 138 -1 145 -20 145 -18 0 -20
-7 -20 -60 l0 -60 -75 0 -75 0 0 60 c0 53 -2 60 -20 60 -19 0 -20 -7 -20 -145z"/>
<path d="M30600 4835 c0 -120 2 -145 15 -145 11 0 15 16 17 68 l3 67 78 3 77
3 0 -71 c0 -56 3 -70 15 -70 13 0 15 23 15 145 0 122 -2 145 -15 145 -12 0
-15 -13 -15 -60 l0 -61 -77 3 -78 3 -3 58 c-2 42 -7 57 -17 57 -13 0 -15 -25
-15 -145z"/>
<path d="M23903 4687 l-263 -152 0 -300 0 -300 -285 -165 -286 -164 6 -41 c3
-22 14 -150 26 -284 16 -198 17 -246 7 -253 -7 -4 -77 -45 -155 -90 -131 -74
-162 -98 -132 -98 6 0 79 39 161 86 128 75 152 85 171 76 12 -6 114 -64 227
-130 l205 -120 3 -201 c1 -123 6 -201 12 -201 6 0 10 72 10 188 l0 187 40 0
40 0 0 -187 c0 -160 2 -188 15 -188 13 0 15 29 15 203 l1 202 120 69 c75 42
117 72 111 78 -5 5 -64 -23 -154 -75 l-145 -85 -252 145 c-244 141 -251 146
-251 177 1 47 47 587 51 590 15 11 447 256 452 256 4 0 119 -65 257 -145 138
-80 256 -145 263 -145 7 0 127 67 267 148 l255 148 5 303 5 303 155 89 c143
82 180 109 150 109 -6 0 -80 -40 -165 -89 l-153 -89 -258 149 c-142 82 -261
149 -264 149 -3 -1 -123 -69 -267 -153z m524 -20 l248 -143 3 -295 2 -294 -72
-41 c-40 -23 -155 -89 -254 -147 l-182 -104 -253 146 -254 146 -3 292 -2 291
252 146 c139 80 256 146 260 146 3 0 118 -64 255 -143z"/>
<path d="M23961 4596 c-107 -62 -197 -119 -199 -126 -7 -20 15 -9 225 112 106
61 190 115 187 120 -3 4 -8 8 -12 8 -4 -1 -95 -52 -201 -114z"/>
<path d="M24570 4231 c0 -209 2 -241 15 -241 13 0 15 31 13 237 -2 178 -6 237
-15 241 -10 3 -13 -49 -13 -237z"/>
<path d="M23760 3988 c0 -12 365 -228 397 -236 7 -2 13 1 13 6 0 9 -392 242
-406 242 -2 0 -4 -6 -4 -12z"/>
<path d="M19690 4645 c0 -138 1 -145 20 -145 18 0 20 7 20 65 l0 65 75 0 75 0
0 -65 c0 -58 2 -65 20 -65 19 0 20 7 20 145 0 138 -1 145 -20 145 -18 0 -20
-7 -20 -60 l0 -60 -75 0 -75 0 0 60 c0 53 -2 60 -20 60 -19 0 -20 -7 -20 -145z"/>
<path d="M20160 4645 c0 -121 2 -145 15 -145 12 0 15 22 17 113 l3 112 75
-112 c58 -87 80 -113 98 -113 22 0 22 1 22 145 0 138 -1 145 -20 145 -18 0
-20 -8 -22 -112 l-3 -112 -74 112 c-104 157 -111 155 -111 -33z"/>
<path d="M29575 4771 c-5 -9 49 -43 255 -161 92 -53 88 -49 67 -61 -9 -6 -17
-21 -17 -34 0 -14 -2 -25 -4 -25 -3 0 -79 43 -169 95 -91 52 -170 95 -176 95
-31 0 4 -25 158 -114 93 -53 174 -103 180 -110 8 -9 11 -92 9 -267 l-3 -254
-280 -162 c-154 -89 -281 -168 -283 -176 -2 -7 6 -121 18 -252 11 -131 20
-255 20 -276 l0 -37 -152 -88 c-178 -102 -164 -92 -152 -103 5 -6 71 27 163
80 89 52 160 88 169 84 8 -3 111 -61 228 -128 l213 -122 1 -202 c0 -174 2
-203 15 -203 13 0 15 28 15 188 l0 187 40 0 40 0 0 -187 c0 -116 4 -188 10
-188 6 0 11 78 12 201 l3 201 131 76 c75 44 130 82 127 88 -3 8 -66 -24 -165
-81 l-160 -93 -217 125 c-119 69 -233 135 -254 147 -37 20 -38 22 -33 66 3 25
15 162 27 305 11 143 24 263 27 267 4 4 108 65 232 137 l225 130 5 302 5 303
156 90 c92 53 155 95 152 102 -3 8 -51 -15 -132 -62 -70 -41 -132 -74 -139
-74 -6 0 -80 40 -164 88 -199 115 -196 114 -203 103z"/>
<path d="M896 4761 c-3 -5 1 -14 8 -20 16 -13 32 2 21 19 -8 12 -22 13 -29 1z"/>
<path d="M844 4729 c-8 -14 21 -43 35 -35 8 5 8 13 1 27 -12 21 -25 25 -36 8z"/>
<path d="M793 4702 c-9 -6 -6 -16 12 -37 17 -22 26 -27 35 -19 15 15 -29 68
-47 56z"/>
<path d="M736 4671 c-8 -12 38 -81 54 -81 22 0 17 20 -14 55 -22 27 -35 35
-40 26z"/>
<path d="M681 4641 c-11 -7 -6 -19 24 -55 25 -31 41 -44 48 -37 10 10 1 28
-40 78 -12 15 -22 20 -32 14z"/>
<path d="M19997 4600 c-29 -23 -36 -50 -12 -50 8 0 15 7 15 15 0 22 36 38 60
25 34 -18 24 -52 -35 -110 -30 -30 -55 -60 -55 -67 0 -9 20 -13 70 -13 40 0
70 4 70 10 0 6 -22 10 -50 10 -27 0 -50 3 -50 6 0 3 23 27 50 53 34 32 50 55
50 72 0 59 -65 87 -113 49z"/>
<path d="M463 4590 c-43 -26 -63 -68 -63 -132 0 -90 53 -148 135 -148 83 0
135 58 135 150 0 65 -24 111 -69 135 -41 21 -99 19 -138 -5z m138 -36 c11 -10
24 -34 29 -56 22 -79 -26 -158 -95 -158 -111 0 -140 192 -35 233 24 10 81 -1
101 -19z"/>
<path d="M110 4455 c0 -138 1 -145 20 -145 18 0 20 7 20 70 l0 70 75 0 75 0 0
-70 c0 -63 2 -70 20 -70 19 0 20 7 20 145 0 138 -1 145 -20 145 -18 0 -20 -7
-20 -60 l0 -60 -75 0 -75 0 0 60 c0 53 -2 60 -20 60 -19 0 -20 -7 -20 -145z"/>
<path d="M8050 4233 l0 -299 -283 -163 -282 -163 22 -266 c12 -147 22 -276 22
-287 1 -16 -32 -40 -154 -110 -143 -83 -174 -105 -143 -105 6 0 78 38 159 85
81 47 151 85 155 85 5 -1 108 -58 229 -128 l220 -128 3 -202 c1 -123 6 -202
12 -202 6 0 10 72 10 188 l0 189 45 0 45 0 0 -189 c0 -116 4 -188 10 -188 6 0
11 79 12 202 l3 203 114 65 c97 57 119 75 107 87 -1 2 -67 -35 -147 -81 -126
-74 -146 -83 -164 -72 -11 7 -125 72 -252 146 -211 120 -233 135 -233 159 1
41 49 593 52 595 58 40 452 256 461 253 7 -3 122 -68 256 -146 149 -86 248
-138 254 -132 5 5 -8 19 -35 34 -23 14 -137 80 -253 146 l-210 121 -5 297 c-4
225 -8 297 -17 301 -10 3 -13 -61 -13 -295z"/>
<path d="M17407 4523 c-4 -3 -7 -138 -7 -298 l0 -292 -245 -142 c-134 -77
-250 -141 -257 -141 -7 1 -119 74 -248 165 -129 90 -238 161 -241 159 -11 -6
-61 -95 -57 -99 2 -3 123 -61 269 -129 l264 -126 0 -292 0 -293 -150 -87 c-82
-48 -154 -89 -160 -91 -7 -3 -7 -8 0 -15 7 -7 56 17 155 75 80 47 151 87 157
90 7 3 114 -53 237 -124 l225 -128 1 -202 c0 -129 4 -203 10 -203 6 0 10 69
10 188 l0 189 45 -1 45 -1 0 -187 c0 -119 4 -188 10 -188 6 0 10 73 10 200 l0
200 103 59 c122 71 144 87 135 96 -4 4 -70 -29 -146 -73 -77 -45 -144 -82
-149 -84 -6 -2 -123 62 -262 142 l-251 145 2 295 3 294 258 149 257 149 0 304
c0 167 -4 304 -8 304 -5 0 -12 -3 -15 -7z"/>
<path d="M3590 4355 c0 -121 2 -145 15 -145 12 0 15 22 17 118 l3 117 79 -117
c109 -163 116 -162 116 27 0 138 -1 145 -20 145 -18 0 -20 -8 -22 -107 l-3
-107 -70 107 c-54 83 -75 107 -92 107 -23 0 -23 -1 -23 -145z"/>
<path d="M3890 4355 c0 -138 1 -145 20 -145 18 0 20 7 20 70 l0 70 75 0 75 0
0 -70 c0 -63 2 -70 20 -70 19 0 20 7 20 145 0 138 -1 145 -20 145 -18 0 -20
-7 -20 -60 l0 -60 -75 0 -75 0 0 60 c0 53 -2 60 -20 60 -19 0 -20 -7 -20 -145z"/>
<path d="M20371 4263 c22 -82 42 -161 46 -176 5 -27 -10 -45 -227 -262 l-234
-234 23 -276 c12 -152 21 -278 19 -280 -2 -2 -71 -43 -153 -91 -174 -100 -159
-90 -151 -103 4 -5 74 30 160 80 84 49 157 89 162 89 5 0 108 -58 229 -128
l220 -128 3 -202 c1 -123 6 -202 12 -202 6 0 10 75 10 195 0 192 0 195 20 185
11 -6 31 -8 45 -4 l25 6 0 -191 c0 -118 4 -191 10 -191 6 0 11 79 12 202 l3
202 115 67 c101 59 139 89 113 89 -4 0 -71 -37 -148 -81 -77 -45 -144 -82
-150 -82 -9 0 -491 276 -503 288 -2 2 8 147 23 322 l26 318 159 160 159 159
103 -27 c57 -15 140 -37 185 -49 45 -12 86 -19 90 -14 12 12 -8 19 -186 65
-162 42 -170 46 -155 63 9 10 14 26 11 38 -3 11 -1 20 4 20 6 0 87 -21 180
-46 156 -42 199 -48 173 -25 -5 4 -91 30 -190 56 l-182 48 -38 143 c-23 89
-42 144 -50 144 -9 0 -1 -43 27 -147z"/>
<path d="M1020 4205 c0 -138 1 -145 20 -145 18 0 20 7 20 65 l0 65 75 0 75 0
0 -65 c0 -58 2 -65 20 -65 19 0 20 7 20 145 0 138 -1 145 -20 145 -18 0 -20
-7 -20 -60 l0 -60 -75 0 -75 0 0 60 c0 53 -2 60 -20 60 -19 0 -20 -7 -20 -145z"/>
<path d="M4198 4318 c-8 -7 -18 -21 -21 -30 -9 -25 15 -23 31 2 27 43 98 7 73
-37 -5 -10 -32 -39 -60 -66 -71 -66 -68 -77 19 -77 56 0 70 3 70 15 0 11 -13
15 -52 15 l-53 0 53 49 c57 53 68 93 34 124 -22 20 -72 22 -94 5z"/>
<path d="M20939 4040 c-44 -23 -69 -72 -69 -135 0 -89 51 -145 132 -145 95 0
142 49 142 150 1 117 -104 184 -205 130z m128 -36 c28 -18 48 -82 39 -127 -16
-84 -108 -116 -167 -58 -25 25 -29 37 -29 84 0 104 76 154 157 101z"/>
<path d="M2183 3980 c-43 -26 -63 -68 -63 -132 0 -90 53 -148 135 -148 83 0
135 58 135 150 0 65 -24 111 -69 135 -41 21 -99 19 -138 -5z m138 -36 c29 -26
42 -86 29 -133 -29 -107 -161 -107 -190 0 -18 65 9 132 60 152 24 10 81 -1
101 -19z"/>
<path d="M3906 3932 c-8 -14 -5 -15 234 -152 118 -68 217 -125 219 -126 4 -3
50 -543 51 -590 0 -30 -7 -35 -152 -119 -178 -102 -162 -91 -154 -104 4 -6 71
27 161 79 85 50 157 90 161 90 4 0 107 -57 230 -127 l223 -128 1 -202 c0 -129
4 -203 10 -203 6 0 10 69 10 188 l0 189 45 -1 45 -1 0 -187 c0 -116 4 -188 10
-188 6 0 11 79 12 202 l3 202 108 62 c115 65 135 80 124 90 -3 4 -71 -31 -149
-76 -79 -46 -147 -83 -153 -83 -8 1 -492 277 -503 288 -4 3 48 607 53 615 2 4
105 65 229 136 198 113 243 144 213 146 -5 0 -119 -64 -255 -142 -136 -79
-251 -143 -257 -143 -8 0 -169 93 -472 270 -23 13 -44 20 -47 15z"/>
<path d="M3309 3770 c-44 -23 -69 -72 -69 -135 0 -89 51 -145 132 -145 95 0
142 49 142 150 1 117 -104 184 -205 130z m128 -36 c28 -18 48 -82 39 -127 -16
-84 -108 -116 -167 -58 -25 25 -29 37 -29 84 0 104 76 154 157 101z"/>
<path d="M6431 3773 c-54 -27 -73 -66 -69 -147 4 -64 6 -70 41 -102 32 -29 44
-34 88 -34 94 0 139 48 139 147 0 70 -23 112 -73 136 -44 21 -83 21 -126 0z
m97 -24 c109 -38 80 -229 -35 -229 -104 0 -138 175 -43 222 41 21 39 21 78 7z"/>
<path d="M9551 3773 c-54 -27 -73 -66 -69 -147 4 -64 6 -70 41 -102 32 -29 44
-34 88 -34 94 0 139 48 139 147 0 70 -23 112 -73 136 -44 21 -83 21 -126 0z
m97 -24 c109 -38 80 -229 -35 -229 -104 0 -138 175 -43 222 41 21 39 21 78 7z"/>
<path d="M12670 3772 c-47 -23 -74 -74 -74 -137 0 -95 49 -145 142 -145 81 0
132 56 132 145 0 68 -25 114 -74 136 -51 23 -82 24 -126 1z m133 -53 c23 -25
27 -38 27 -85 0 -48 -4 -59 -29 -85 -59 -59 -151 -26 -167 59 -11 55 14 113
56 135 44 22 77 15 113 -24z"/>
<path d="M15791 3773 c-48 -25 -73 -63 -79 -121 -9 -95 48 -162 138 -162 85 0
140 58 140 147 0 109 -109 184 -199 136z m128 -48 c31 -31 40 -108 17 -153
-19 -37 -44 -52 -86 -52 -68 0 -105 51 -98 132 10 98 101 138 167 73z"/>
<path d="M18899 3770 c-44 -23 -69 -72 -69 -135 0 -89 51 -145 132 -145 95 0
142 49 142 150 1 117 -104 184 -205 130z m128 -36 c28 -18 48 -82 39 -127 -16
-84 -108 -116 -167 -58 -25 25 -29 37 -29 84 0 104 76 154 157 101z"/>
<path d="M22021 3773 c-54 -27 -73 -66 -69 -147 4 -64 6 -70 41 -102 32 -29
44 -34 88 -34 94 0 139 48 139 147 0 70 -23 112 -73 136 -44 21 -83 21 -126 0z
m97 -24 c109 -38 80 -229 -35 -229 -104 0 -138 175 -43 222 41 21 39 21 78 7z"/>
<path d="M25140 3772 c-47 -23 -74 -74 -74 -137 0 -95 49 -145 142 -145 81 0
132 56 132 145 0 68 -25 114 -74 136 -51 23 -82 24 -126 1z m133 -53 c23 -25
27 -38 27 -85 0 -48 -4 -59 -29 -85 -59 -59 -151 -26 -167 59 -11 55 14 113
56 135 44 22 77 15 113 -24z"/>
<path d="M28261 3773 c-48 -25 -73 -63 -79 -121 -9 -95 48 -162 138 -162 85 0
140 58 140 147 0 109 -109 184 -199 136z m128 -48 c31 -31 40 -108 17 -153
-19 -37 -44 -52 -86 -52 -68 0 -105 51 -98 132 10 98 101 138 167 73z"/>
<path d="M1120 3635 c0 -138 1 -145 20 -145 18 0 20 8 22 112 l3 112 74 -112
c104 -157 111 -155 111 33 0 121 -2 145 -15 145 -12 0 -15 -22 -17 -112 l-3
-113 -75 112 c-58 87 -80 113 -97 113 -23 0 -23 -1 -23 -145z"/>
<path d="M647 3753 c-105 -180 -297 -517 -297 -523 0 -6 164 -192 399 -453 7
-7 546 225 565 243 7 8 -48 388 -59 398 -18 18 -15 -31 10 -193 16 -102 26
-187 24 -189 -3 -3 -121 -57 -264 -121 -246 -109 -260 -114 -276 -98 -58 60
-362 400 -366 410 -7 18 276 503 295 503 9 0 92 -16 185 -36 153 -33 193 -37
174 -17 -7 6 -348 82 -374 83 -6 0 -14 -3 -16 -7z"/>
<path d="M13720 3603 c1 -16 11 -149 24 -298 13 -148 23 -271 22 -271 0 -1
-70 -41 -153 -89 -88 -49 -153 -93 -153 -101 0 -11 10 -9 43 10 23 13 93 54
156 91 63 36 120 64 126 63 6 -2 108 -59 228 -128 l217 -125 0 -202 c0 -174 2
-203 15 -203 13 0 15 28 15 188 l0 187 40 0 40 0 0 -187 c0 -160 2 -188 15
-188 13 0 15 29 15 203 l0 202 120 69 c75 43 117 73 112 78 -6 6 -66 -23 -156
-75 l-147 -85 -252 146 c-139 80 -253 145 -253 146 -1 1 9 123 22 271 31 366
36 325 -36 325 -59 0 -60 -1 -60 -27z"/>
<path d="M2230 3385 c0 -122 2 -145 15 -145 12 0 15 14 15 70 l0 70 80 0 80 0
0 -70 c0 -56 3 -70 15 -70 13 0 15 23 15 145 0 120 -2 145 -15 145 -10 0 -15
-15 -17 -57 l-3 -58 -75 0 -75 0 -3 58 c-2 42 -7 57 -17 57 -13 0 -15 -25 -15
-145z"/>
<path d="M5340 3385 c0 -138 1 -145 20 -145 18 0 20 7 20 70 l0 70 80 0 80 0
0 -70 c0 -56 3 -70 15 -70 13 0 15 23 15 145 0 120 -2 145 -15 145 -10 0 -15
-15 -17 -57 l-3 -58 -75 0 -75 0 -3 58 c-3 49 -6 57 -22 57 -19 0 -20 -8 -20
-145z"/>
<path d="M8460 3385 c0 -138 1 -145 20 -145 18 0 20 7 20 70 l0 70 75 0 75 0
0 -70 c0 -63 2 -70 20 -70 19 0 20 7 20 145 0 138 -1 145 -20 145 -18 0 -20
-7 -20 -60 l0 -60 -75 0 -75 0 0 60 c0 53 -2 60 -20 60 -19 0 -20 -7 -20 -145z"/>
<path d="M11580 3385 c0 -138 1 -145 20 -145 18 0 20 7 20 70 l0 70 75 0 75 0
0 -70 c0 -63 2 -70 20 -70 19 0 20 7 20 145 0 138 -1 145 -20 145 -18 0 -20
-7 -20 -60 l0 -60 -75 0 -75 0 0 60 c0 53 -2 60 -20 60 -19 0 -20 -7 -20 -145z"/>
<path d="M14700 3385 c0 -122 2 -145 15 -145 12 0 15 14 15 70 l0 70 80 0 80
0 0 -70 c0 -56 3 -70 15 -70 13 0 15 23 15 145 0 120 -2 145 -15 145 -10 0
-15 -15 -17 -57 l-3 -58 -75 0 -75 0 -3 58 c-2 42 -7 57 -17 57 -13 0 -15 -25
-15 -145z"/>
<path d="M17810 3385 c0 -138 1 -145 20 -145 18 0 20 7 20 70 l0 70 80 0 80 0
0 -70 c0 -56 3 -70 15 -70 13 0 15 23 15 145 0 120 -2 145 -15 145 -10 0 -15
-15 -17 -57 l-3 -58 -75 0 -75 0 -3 58 c-3 49 -6 57 -22 57 -19 0 -20 -8 -20
-145z"/>
<path d="M20930 3385 c0 -138 1 -145 20 -145 18 0 20 7 20 70 l0 70 75 0 75 0
0 -70 c0 -63 2 -70 20 -70 19 0 20 7 20 145 0 138 -1 145 -20 145 -18 0 -20
-7 -20 -60 l0 -60 -75 0 -75 0 0 60 c0 53 -2 60 -20 60 -19 0 -20 -7 -20 -145z"/>
<path d="M24050 3385 c0 -138 1 -145 20 -145 18 0 20 7 20 70 l0 70 75 0 75 0
0 -70 c0 -63 2 -70 20 -70 19 0 20 7 20 145 0 138 -1 145 -20 145 -18 0 -20
-7 -20 -60 l0 -60 -75 0 -75 0 0 60 c0 53 -2 60 -20 60 -19 0 -20 -7 -20 -145z"/>
<path d="M27170 3385 c0 -138 1 -145 20 -145 18 0 20 7 20 70 l0 70 75 0 75 0
0 -70 c0 -63 2 -70 20 -70 19 0 20 7 20 145 0 138 -1 145 -20 145 -18 0 -20
-7 -20 -60 l0 -60 -75 0 -75 0 0 60 c0 53 -2 60 -20 60 -19 0 -20 -7 -20 -145z"/>
<path d="M16260 3335 c0 -122 2 -145 15 -145 12 0 15 14 15 70 l0 70 80 0 80
0 0 -70 c0 -56 3 -70 15 -70 13 0 15 23 15 145 0 120 -2 145 -15 145 -10 0
-15 -15 -17 -57 l-3 -58 -75 0 -75 0 -3 58 c-2 42 -7 57 -17 57 -13 0 -15 -25
-15 -145z"/>
<path d="M3320 3211 l0 -208 -226 -131 -227 -130 -153 89 c-149 87 -174 98
-174 80 0 -9 312 -191 329 -191 5 0 123 66 262 146 138 80 257 143 265 140 7
-3 72 -39 144 -81 73 -41 136 -75 141 -75 27 0 -1 24 -83 71 -51 29 -105 61
-120 71 l-28 19 0 205 c0 129 -4 204 -10 204 -6 0 -10 -73 -10 -200 l0 -200
-25 12 c-19 8 -28 8 -40 -2 -13 -11 -15 9 -15 189 0 172 -2 201 -15 201 -13 0
-15 -30 -15 -209z"/>
<path d="M6440 3212 l0 -208 -226 -129 c-124 -72 -229 -129 -233 -128 -4 1
-73 40 -155 87 -81 47 -151 86 -157 86 -30 0 8 -28 146 -107 l154 -88 1 -296
0 -296 -197 -113 c-315 -181 -316 -181 -306 -191 6 -6 114 51 269 141 l259
149 5 290 5 289 125 -99 125 -98 29 50 c16 29 25 54 20 59 -5 5 -67 32 -139
60 -71 28 -133 55 -137 58 -6 6 460 282 477 282 4 0 70 -36 147 -81 84 -49
144 -77 149 -72 6 6 -39 37 -111 78 l-120 69 0 208 c0 132 -4 208 -10 208 -6
0 -10 -73 -10 -200 l0 -200 -24 11 c-17 8 -29 8 -45 0 l-21 -12 0 201 c0 127
-4 200 -10 200 -6 0 -10 -76 -10 -208z"/>
<path d="M9560 3216 c0 -151 -3 -206 -12 -214 -22 -18 -433 -254 -443 -255 -5
0 -79 39 -163 88 -84 48 -155 85 -159 81 -4 -3 -2 -10 3 -15 16 -16 305 -181
316 -181 6 0 124 65 263 145 138 80 255 145 259 145 4 0 70 -37 147 -81 86
-50 144 -78 149 -73 6 6 -37 36 -110 79 l-120 69 0 208 c0 178 -2 208 -15 208
-13 0 -15 -29 -15 -201 0 -180 -2 -200 -15 -189 -12 10 -21 10 -40 2 l-25 -12
0 200 c0 127 -4 200 -10 200 -6 0 -10 -75 -10 -204z"/>
<path d="M12670 3211 l0 -209 -222 -129 c-122 -70 -227 -127 -233 -125 -5 2
-77 42 -158 89 -90 52 -152 82 -157 77 -9 -9 298 -194 321 -194 7 0 116 61
244 135 127 74 243 139 256 145 22 10 40 2 167 -71 78 -45 146 -79 150 -75 9
10 -12 25 -130 92 l-98 55 0 210 c0 179 -2 209 -15 209 -13 0 -15 -29 -15
-200 0 -198 0 -201 -20 -190 -14 8 -26 8 -40 0 -20 -11 -20 -8 -20 190 0 171
-2 200 -15 200 -13 0 -15 -30 -15 -209z"/>
<path d="M15790 3211 l0 -208 -226 -130 -226 -131 -153 89 c-85 49 -158 89
-164 89 -30 0 3 -24 147 -107 l157 -91 5 -303 5 -303 255 -147 255 -147 3
-296 c1 -186 6 -296 12 -296 6 0 10 111 10 303 l0 303 -260 149 -260 150 0
283 c0 272 1 283 18 270 10 -7 67 -51 127 -98 59 -47 111 -83 114 -81 3 2 18
26 34 52 l27 49 -32 13 c-18 8 -84 33 -145 57 -62 24 -113 46 -113 51 0 4 107
69 237 144 204 118 240 135 259 126 13 -5 77 -42 144 -80 66 -39 125 -71 130
-71 28 0 0 24 -82 71 -51 29 -105 61 -120 71 l-28 19 0 205 c0 129 -4 204 -10
204 -6 0 -10 -73 -10 -200 0 -198 0 -201 -20 -190 -14 8 -26 8 -40 0 -20 -11
-20 -8 -20 190 0 171 -2 200 -15 200 -13 0 -15 -30 -15 -209z"/>
<path d="M18910 3212 l0 -208 -222 -128 c-123 -71 -227 -129 -233 -129 -5 0
-77 39 -158 87 -147 85 -167 94 -167 77 0 -9 311 -191 327 -191 5 0 124 66
262 146 149 85 259 143 268 140 8 -3 73 -40 144 -81 71 -41 133 -75 139 -75
29 0 -2 24 -110 86 l-120 69 0 208 c0 131 -4 207 -10 207 -6 0 -10 -73 -10
-200 l0 -200 -25 12 c-19 9 -28 9 -37 0 -7 -7 -16 -12 -20 -12 -4 0 -8 90 -8
200 0 127 -4 200 -10 200 -6 0 -10 -76 -10 -208z"/>
<path d="M22030 3213 l0 -208 -224 -129 c-123 -71 -228 -129 -233 -128 -4 0
-77 40 -161 88 -84 48 -156 84 -159 80 -10 -10 2 -18 162 -110 83 -48 158 -85
167 -82 9 2 126 67 261 145 134 77 247 141 251 141 4 0 70 -37 147 -81 84 -49
144 -78 150 -72 5 5 -39 36 -111 78 l-120 69 0 208 c0 132 -4 208 -10 208 -6
0 -10 -73 -10 -200 0 -110 -4 -200 -8 -200 -4 0 -13 5 -20 12 -9 9 -18 9 -37
0 l-25 -12 0 200 c0 127 -4 200 -10 200 -6 0 -10 -76 -10 -207z"/>
<path d="M25150 3215 l0 -205 -37 -23 c-21 -13 -124 -73 -229 -134 l-192 -110
-157 90 c-89 51 -160 86 -165 81 -8 -8 282 -184 317 -192 7 -2 119 58 248 133
129 74 245 140 258 146 20 9 42 -1 165 -72 78 -45 146 -79 150 -75 9 10 -12
25 -130 92 l-98 56 0 209 c0 179 -2 209 -15 209 -13 0 -15 -29 -15 -200 0
-198 0 -201 -20 -190 -14 8 -26 8 -40 0 -20 -11 -20 -8 -20 190 0 127 -4 200
-10 200 -6 0 -10 -75 -10 -205z"/>
<path d="M28260 3211 l0 -209 -226 -130 -225 -130 -153 89 c-146 85 -176 99
-176 81 0 -9 314 -192 330 -192 6 0 124 65 261 145 138 80 254 145 258 145 3
0 69 -36 145 -80 77 -44 144 -80 149 -80 26 0 -10 28 -113 88 l-115 68 -3 207
c-1 127 -6 207 -12 207 -6 0 -10 -76 -10 -200 0 -198 0 -201 -20 -190 -14 8
-26 8 -40 0 -20 -11 -20 -8 -20 190 0 171 -2 200 -15 200 -13 0 -15 -30 -15
-209z"/>
<path d="M16578 3211 c-25 -45 -27 -61 -7 -61 11 0 60 91 53 101 -10 17 -19 9
-46 -40z"/>
<path d="M16631 3185 c-24 -42 -26 -55 -8 -55 11 0 45 55 48 77 2 22 -21 9
-40 -22z"/>
<path d="M30329 3170 c-44 -23 -69 -72 -69 -135 0 -89 51 -145 132 -145 95 0
142 49 142 150 1 117 -104 184 -205 130z m128 -36 c28 -18 48 -82 39 -127 -16
-84 -108 -116 -167 -58 -25 25 -29 37 -29 84 0 104 76 154 157 101z"/>
<path d="M2220 3035 c0 -138 1 -145 20 -145 19 0 20 7 20 118 l0 117 78 -117
c106 -161 112 -160 112 27 0 121 -2 145 -15 145 -12 0 -15 -21 -17 -112 l-3
-112 -74 112 c-59 90 -78 112 -97 112 l-24 0 0 -145z"/>
<path d="M5340 3035 c0 -138 1 -145 20 -145 18 0 20 8 22 112 l3 112 74 -112
c104 -157 111 -155 111 33 0 122 -2 145 -15 145 -12 0 -15 -18 -15 -105 0 -58
-3 -105 -7 -105 -5 0 -39 47 -78 105 -54 80 -75 104 -92 105 -23 0 -23 -1 -23
-145z"/>
<path d="M8460 3035 c0 -121 2 -145 15 -145 12 0 15 22 17 118 l3 117 79 -117
c109 -163 116 -162 116 27 0 138 -1 145 -20 145 -18 0 -20 -8 -22 -107 l-3
-107 -70 107 c-54 83 -75 107 -92 107 -23 0 -23 -1 -23 -145z"/>
<path d="M11580 3035 c0 -121 2 -145 15 -145 12 0 15 22 17 116 l3 117 78
-117 c55 -83 83 -116 97 -116 19 0 20 7 20 145 0 138 -1 145 -20 145 -19 0
-20 -7 -20 -112 l0 -113 -75 113 c-54 80 -81 112 -95 112 -19 0 -20 -7 -20
-145z"/>
<path d="M14690 3035 c0 -138 1 -145 20 -145 19 0 20 7 20 118 l0 117 78 -117
c106 -161 112 -160 112 27 0 121 -2 145 -15 145 -12 0 -15 -21 -17 -112 l-3
-112 -74 112 c-59 90 -78 112 -97 112 l-24 0 0 -145z"/>
<path d="M16678 3150 c-11 -20 -13 -32 -6 -36 12 -7 47 33 48 54 0 23 -25 12
-42 -18z"/>
<path d="M17810 3035 c0 -138 1 -145 20 -145 18 0 20 8 22 112 l3 112 74 -112
c104 -157 111 -155 111 33 0 122 -2 145 -15 145 -12 0 -15 -18 -15 -105 0 -58
-3 -105 -7 -105 -5 0 -39 47 -78 105 -54 80 -75 104 -92 105 -23 0 -23 -1 -23
-145z"/>
<path d="M20930 3035 c0 -121 2 -145 15 -145 12 0 15 22 17 118 l3 117 79
-117 c109 -163 116 -162 116 27 0 138 -1 145 -20 145 -18 0 -20 -8 -22 -107
l-3 -107 -70 107 c-54 83 -75 107 -92 107 -23 0 -23 -1 -23 -145z"/>
<path d="M24050 3035 c0 -121 2 -145 15 -145 12 0 15 22 17 116 l3 117 78
-117 c55 -83 83 -116 97 -116 19 0 20 7 20 145 0 138 -1 145 -20 145 -19 0
-20 -7 -20 -112 l0 -113 -75 113 c-54 80 -81 112 -95 112 -19 0 -20 -7 -20
-145z"/>
<path d="M27170 3035 c0 -121 2 -145 15 -145 12 0 15 22 17 116 l3 117 78
-117 c55 -83 83 -116 97 -116 19 0 20 7 20 145 0 138 -1 145 -20 145 -19 0
-20 -7 -20 -112 l0 -113 -75 113 c-54 80 -81 112 -95 112 -19 0 -20 -7 -20
-145z"/>
<path d="M30600 3035 c0 -120 2 -145 15 -145 11 0 15 16 17 68 l3 67 78 3 77
3 0 -71 c0 -56 3 -70 15 -70 13 0 15 23 15 145 0 122 -2 145 -15 145 -12 0
-15 -13 -15 -60 l0 -61 -77 3 -78 3 -3 58 c-2 42 -7 57 -17 57 -13 0 -15 -25
-15 -145z"/>
<path d="M16732 3125 c-8 -16 -8 -26 -1 -31 6 -3 11 -4 12 -3 2 2 8 11 15 20
10 13 10 19 -1 28 -11 8 -16 5 -25 -14z"/>
<path d="M16785 3100 c-4 -6 -3 -16 3 -22 6 -6 12 -6 17 2 4 6 3 16 -3 22 -6
6 -12 6 -17 -2z"/>
<path d="M1400 2971 c0 -5 6 -14 14 -20 16 -13 32 2 21 19 -8 12 -35 13 -35 1z"/>
<path d="M1475 2929 c-9 -29 15 -45 33 -22 15 21 11 37 -10 41 -10 2 -19 -6
-23 -19z"/>
<path d="M1554 2895 c-16 -25 -13 -55 5 -55 12 0 41 40 41 56 0 24 -30 23 -46
-1z"/>
<path d="M1973 2827 c-79 -45 -143 -88 -143 -95 0 -9 7 -11 20 -7 20 6 20 2
20 -184 0 -118 4 -191 10 -191 6 0 11 78 12 201 l3 202 118 67 c109 62 132 81
110 87 -4 1 -72 -35 -150 -80z"/>
<path d="M1624 2845 c-17 -32 -17 -36 -3 -51 15 -14 18 -12 42 28 18 30 22 45
14 50 -22 14 -34 8 -53 -27z"/>
<path d="M3780 2735 c0 -138 1 -145 20 -145 18 0 20 8 22 112 l3 112 74 -112
c104 -157 111 -155 111 33 0 122 -2 145 -15 145 -12 0 -15 -18 -15 -105 0 -58
-3 -105 -7 -105 -5 0 -39 47 -78 105 -54 80 -75 104 -92 105 -23 0 -23 -1 -23
-145z"/>
<path d="M6900 2735 c0 -138 1 -145 20 -145 18 0 20 8 22 112 l3 112 74 -112
c104 -157 111 -155 111 33 0 122 -2 145 -15 145 -12 0 -15 -18 -15 -105 0 -58
-3 -105 -7 -105 -5 0 -39 47 -78 105 -54 80 -75 104 -92 105 -23 0 -23 -1 -23
-145z"/>
<path d="M10020 2735 c0 -121 2 -145 15 -145 12 0 15 22 17 118 l3 117 79
-117 c109 -163 116 -162 116 27 0 138 -1 145 -20 145 -18 0 -20 -8 -22 -107
l-3 -107 -70 107 c-54 83 -75 107 -92 107 -23 0 -23 -1 -23 -145z"/>
<path d="M13140 2735 c0 -121 2 -145 15 -145 12 0 15 22 17 116 l3 117 78
-117 c55 -83 83 -116 97 -116 19 0 20 7 20 145 0 138 -1 145 -20 145 -19 0
-20 -7 -20 -112 l0 -113 -75 113 c-54 80 -81 112 -95 112 -19 0 -20 -7 -20
-145z"/>
<path d="M16250 2735 c0 -138 1 -145 20 -145 19 0 20 7 20 118 l0 117 78 -117
c106 -161 112 -160 112 27 0 121 -2 145 -15 145 -12 0 -15 -21 -17 -112 l-3
-112 -74 112 c-59 90 -78 112 -97 112 l-24 0 0 -145z"/>
<path d="M19370 2735 c0 -138 1 -145 20 -145 18 0 20 8 22 112 l3 112 74 -112
c104 -157 111 -155 111 33 0 122 -2 145 -15 145 -12 0 -15 -18 -15 -105 0 -58
-3 -105 -7 -105 -5 0 -39 47 -78 105 -54 80 -75 104 -92 105 -23 0 -23 -1 -23
-145z"/>
<path d="M22490 2735 c0 -121 2 -145 15 -145 12 0 15 22 17 118 l3 117 79
-117 c109 -163 116 -162 116 27 0 138 -1 145 -20 145 -18 0 -20 -8 -22 -107
l-3 -107 -70 107 c-54 83 -75 107 -92 107 -23 0 -23 -1 -23 -145z"/>
<path d="M25610 2735 c0 -121 2 -145 15 -145 12 0 15 22 17 116 l3 117 78
-117 c55 -83 83 -116 97 -116 19 0 20 7 20 145 0 138 -1 145 -20 145 -19 0
-20 -7 -20 -112 l0 -113 -75 113 c-54 80 -81 112 -95 112 -19 0 -20 -7 -20
-145z"/>
<path d="M28720 2735 c0 -138 1 -145 20 -145 19 0 20 7 20 118 l0 117 78 -117
c106 -161 112 -160 112 27 0 121 -2 145 -15 145 -12 0 -15 -21 -17 -112 l-3
-112 -74 112 c-59 90 -78 112 -97 112 l-24 0 0 -145z"/>
<path d="M1698 2800 c-27 -48 -27 -50 -9 -60 17 -9 23 -3 50 42 21 38 26 55
18 60 -23 14 -32 8 -59 -42z"/>
<path d="M1760 2555 c0 -176 2 -205 15 -205 13 0 15 29 15 205 0 176 -2 205
-15 205 -13 0 -15 -29 -15 -205z"/>
<path d="M2850 2600 c0 -13 7 -20 19 -20 14 0 18 5 14 20 -3 11 -12 20 -19 20
-8 0 -14 -9 -14 -20z"/>
<path d="M9090 2600 c0 -11 7 -20 15 -20 8 0 15 9 15 20 0 11 -7 20 -15 20 -8
0 -15 -9 -15 -20z"/>
<path d="M12207 2600 c-4 -15 0 -20 15 -20 13 0 18 6 16 17 -5 24 -25 27 -31
3z"/>
<path d="M18440 2600 c0 -11 7 -20 15 -20 8 0 15 9 15 20 0 11 -7 20 -15 20
-8 0 -15 -9 -15 -20z"/>
<path d="M21560 2595 c0 -16 6 -25 15 -25 9 0 15 9 15 25 0 16 -6 25 -15 25
-9 0 -15 -9 -15 -25z"/>
<path d="M24677 2600 c-4 -15 0 -20 14 -20 12 0 19 7 19 20 0 11 -6 20 -14 20
-7 0 -16 -9 -19 -20z"/>
<path d="M6380 2435 c0 -138 1 -145 20 -145 18 0 20 7 20 70 l0 70 80 0 80 0
0 -70 c0 -56 3 -70 15 -70 13 0 15 23 15 145 0 120 -2 145 -15 145 -10 0 -15
-15 -17 -57 l-3 -58 -75 0 -75 0 -3 58 c-3 49 -6 57 -22 57 -19 0 -20 -8 -20
-145z"/>
<path d="M15740 2435 c0 -122 2 -145 15 -145 12 0 15 14 15 70 l0 70 80 0 80
0 0 -70 c0 -56 3 -70 15 -70 13 0 15 23 15 145 0 120 -2 145 -15 145 -10 0
-15 -15 -17 -57 l-3 -58 -75 0 -75 0 -3 58 c-2 42 -7 57 -17 57 -13 0 -15 -25
-15 -145z"/>
<path d="M2847 2533 c-17 -16 -5 -33 22 -33 24 0 28 3 24 20 -5 19 -33 27 -46
13z"/>
<path d="M3780 2395 c0 -138 1 -145 20 -145 18 0 20 7 20 65 l0 65 80 0 80 0
0 -65 c0 -51 3 -65 15 -65 13 0 15 23 15 145 0 122 -2 145 -15 145 -12 0 -15
-13 -15 -60 l0 -60 -80 0 -80 0 0 60 c0 53 -2 60 -20 60 -19 0 -20 -7 -20
-145z"/>
<path d="M6900 2395 c0 -138 1 -145 20 -145 18 0 20 7 20 65 l0 65 80 0 80 0
0 -65 c0 -51 3 -65 15 -65 13 0 15 23 15 145 0 122 -2 145 -15 145 -12 0 -15
-13 -15 -60 l0 -60 -80 0 -80 0 0 60 c0 53 -2 60 -20 60 -19 0 -20 -7 -20
-145z"/>
<path d="M9080 2520 c0 -15 7 -20 25 -20 18 0 25 5 25 20 0 15 -7 20 -25 20
-18 0 -25 -5 -25 -20z"/>
<path d="M10020 2395 c0 -138 1 -145 20 -145 18 0 20 7 20 65 l0 65 75 0 75 0
0 -65 c0 -58 2 -65 20 -65 19 0 20 7 20 145 0 138 -1 145 -20 145 -18 0 -20
-7 -20 -60 l0 -60 -75 0 -75 0 0 60 c0 53 -2 60 -20 60 -19 0 -20 -7 -20 -145z"/>
<path d="M12196 2525 c-9 -25 -9 -25 25 -25 24 0 30 4 27 18 -4 23 -44 28 -52
7z"/>
<path d="M13140 2395 c0 -138 1 -145 20 -145 18 0 20 7 20 65 l0 65 75 0 75 0
0 -65 c0 -58 2 -65 20 -65 19 0 20 7 20 145 0 138 -1 145 -20 145 -18 0 -20
-7 -20 -60 l0 -60 -75 0 -75 0 0 60 c0 53 -2 60 -20 60 -19 0 -20 -7 -20 -145z"/>
<path d="M16260 2395 c0 -122 2 -145 15 -145 12 0 15 14 15 65 l0 65 80 0 80
0 0 -65 c0 -51 3 -65 15 -65 13 0 15 23 15 145 0 122 -2 145 -15 145 -12 0
-15 -13 -15 -60 l0 -60 -80 0 -80 0 0 60 c0 47 -3 60 -15 60 -13 0 -15 -23
-15 -145z"/>
<path d="M18430 2520 c0 -15 7 -20 25 -20 18 0 25 5 25 20 0 15 -7 20 -25 20
-18 0 -25 -5 -25 -20z"/>
<path d="M19370 2395 c0 -138 1 -145 20 -145 18 0 20 7 20 65 l0 65 80 0 80 0
0 -65 c0 -51 3 -65 15 -65 13 0 15 23 15 145 0 122 -2 145 -15 145 -12 0 -15
-13 -15 -60 l0 -60 -80 0 -80 0 0 60 c0 53 -2 60 -20 60 -19 0 -20 -7 -20
-145z"/>
<path d="M22490 2395 c0 -138 1 -145 20 -145 18 0 20 7 20 65 l0 65 75 0 75 0
0 -65 c0 -58 2 -65 20 -65 19 0 20 7 20 145 0 138 -1 145 -20 145 -18 0 -20
-7 -20 -60 l0 -60 -75 0 -75 0 0 60 c0 53 -2 60 -20 60 -19 0 -20 -7 -20 -145z"/>
<path d="M24667 2521 c-4 -18 0 -21 25 -21 23 0 29 4 26 18 -5 25 -44 28 -51
3z"/>
<path d="M25610 2395 c0 -138 1 -145 20 -145 18 0 20 7 20 65 l0 65 75 0 75 0
0 -65 c0 -58 2 -65 20 -65 19 0 20 7 20 145 0 138 -1 145 -20 145 -18 0 -20
-7 -20 -60 l0 -60 -75 0 -75 0 0 60 c0 53 -2 60 -20 60 -19 0 -20 -7 -20 -145z"/>
<path d="M28730 2395 c0 -122 2 -145 15 -145 12 0 15 14 15 65 l0 65 80 0 80
0 0 -65 c0 -51 3 -65 15 -65 13 0 15 23 15 145 0 122 -2 145 -15 145 -12 0
-15 -13 -15 -60 l0 -60 -80 0 -80 0 0 60 c0 47 -3 60 -15 60 -13 0 -15 -23
-15 -145z"/>
<path d="M21550 2485 c0 -20 5 -25 25 -25 20 0 25 5 25 25 0 20 -5 25 -25 25
-20 0 -25 -5 -25 -25z"/>
<path d="M2830 2430 c0 -17 7 -20 41 -20 33 0 40 3 35 16 -3 9 -6 18 -6 20 0
2 -16 4 -35 4 -28 0 -35 -4 -35 -20z"/>
<path d="M9067 2430 c-4 -17 0 -20 34 -20 32 0 39 3 39 20 0 16 -7 20 -34 20
-25 0 -35 -5 -39 -20z"/>
<path d="M12187 2443 c-19 -19 -5 -33 33 -33 33 0 40 3 40 20 0 16 -7 20 -33
20 -19 0 -37 -3 -40 -7z"/>
<path d="M18420 2430 c0 -17 7 -20 39 -20 34 0 38 3 34 20 -4 15 -14 20 -39
20 -27 0 -34 -4 -34 -20z"/>
<path d="M24656 2434 c-9 -24 -9 -24 34 -24 33 0 40 3 40 20 0 16 -7 20 -34
20 -22 0 -36 -6 -40 -16z"/>
<path d="M21538 2375 c-5 -23 -2 -25 33 -25 35 0 39 3 39 25 0 22 -4 25 -34
25 -28 0 -34 -4 -38 -25z"/>
<path d="M2820 2341 c0 -18 6 -21 51 -21 43 0 50 3 47 18 -2 13 -15 18 -51 20
-42 3 -47 1 -47 -17z"/>
<path d="M9056 2344 c-3 -9 -6 -18 -6 -20 0 -2 23 -4 50 -4 43 0 50 3 50 20 0
17 -7 20 -44 20 -31 0 -46 -5 -50 -16z"/>
<path d="M12170 2340 c0 -17 7 -20 50 -20 43 0 50 3 50 20 0 17 -7 20 -50 20
-43 0 -50 -3 -50 -20z"/>
<path d="M18410 2340 c0 -17 7 -20 51 -20 43 0 50 3 45 16 -3 9 -6 18 -6 20 0
2 -20 4 -45 4 -38 0 -45 -3 -45 -20z"/>
<path d="M24640 2340 c0 -17 7 -20 50 -20 43 0 50 3 50 20 0 17 -7 20 -50 20
-43 0 -50 -3 -50 -20z"/>
<path d="M1761 2273 c-48 -25 -73 -63 -79 -121 -9 -95 48 -162 138 -162 85 0
140 58 140 147 0 109 -109 184 -199 136z m128 -48 c31 -31 40 -108 17 -153
-19 -37 -44 -52 -86 -52 -68 0 -105 51 -98 132 10 98 101 138 167 73z"/>
<path d="M4869 2270 c-44 -23 -69 -72 -69 -135 0 -89 51 -145 132 -145 95 0
142 49 142 150 1 117 -104 184 -205 130z m128 -36 c28 -18 48 -82 39 -127 -16
-84 -108 -116 -167 -58 -25 25 -29 37 -29 84 0 104 76 154 157 101z"/>
<path d="M7991 2273 c-54 -27 -73 -66 -69 -147 4 -64 6 -70 41 -102 32 -29 44
-34 88 -34 94 0 139 48 139 147 0 70 -23 112 -73 136 -44 21 -83 21 -126 0z
m97 -24 c109 -38 80 -229 -35 -229 -104 0 -138 175 -43 222 41 21 39 21 78 7z"/>
<path d="M11110 2272 c-47 -23 -74 -74 -74 -137 0 -95 49 -145 142 -145 81 0
132 56 132 145 0 68 -25 114 -74 136 -51 23 -82 24 -126 1z m133 -53 c23 -25
27 -38 27 -85 0 -48 -4 -59 -29 -85 -59 -59 -151 -26 -167 59 -11 55 14 113
56 135 44 22 77 15 113 -24z"/>
<path d="M14231 2273 c-48 -25 -73 -63 -79 -121 -9 -95 48 -162 138 -162 85 0
140 58 140 147 0 109 -109 184 -199 136z m128 -48 c31 -31 40 -108 17 -153
-19 -37 -44 -52 -86 -52 -68 0 -105 51 -98 132 10 98 101 138 167 73z"/>
<path d="M17339 2270 c-44 -23 -69 -72 -69 -135 0 -89 51 -145 132 -145 95 0
142 49 142 150 1 117 -104 184 -205 130z m128 -36 c28 -18 48 -82 39 -127 -16
-84 -108 -116 -167 -58 -25 25 -29 37 -29 84 0 104 76 154 157 101z"/>
<path d="M20461 2273 c-54 -27 -73 -66 -69 -147 4 -64 6 -70 41 -102 32 -29
44 -34 88 -34 94 0 139 48 139 147 0 70 -23 112 -73 136 -44 21 -83 21 -126 0z
m97 -24 c109 -38 80 -229 -35 -229 -104 0 -138 175 -43 222 41 21 39 21 78 7z"/>
<path d="M21530 2281 c0 -5 -3 -16 -6 -25 -5 -13 2 -16 45 -16 48 0 51 2 51
25 0 23 -4 25 -45 25 -25 0 -45 -4 -45 -9z"/>
<path d="M23580 2272 c-47 -23 -74 -74 -74 -137 0 -95 49 -145 142 -145 81 0
132 56 132 145 0 68 -25 114 -74 136 -51 23 -82 24 -126 1z m133 -53 c23 -25
27 -38 27 -85 0 -48 -4 -59 -29 -85 -59 -59 -151 -26 -167 59 -11 55 14 113
56 135 44 22 77 15 113 -24z"/>
<path d="M26701 2273 c-48 -25 -73 -63 -79 -121 -9 -95 48 -162 138 -162 85 0
140 58 140 147 0 109 -109 184 -199 136z m128 -48 c31 -31 40 -108 17 -153
-19 -37 -44 -52 -86 -52 -68 0 -105 51 -98 132 10 98 101 138 167 73z"/>
<path d="M29821 2273 c-48 -25 -73 -63 -79 -121 -9 -95 48 -162 138 -162 85 0
140 58 140 147 0 109 -109 184 -199 136z m128 -48 c31 -31 40 -108 17 -153
-19 -37 -44 -52 -86 -52 -68 0 -105 51 -98 132 10 98 101 138 167 73z"/>
<path d="M2810 2255 c0 -24 2 -25 61 -25 57 0 60 1 57 23 -3 19 -10 22 -60 25
-56 3 -58 2 -58 -23z"/>
<path d="M9047 2273 c-4 -3 -7 -15 -7 -25 0 -15 8 -18 60 -18 57 0 60 1 60 25
0 24 -3 25 -53 25 -30 0 -57 -3 -60 -7z"/>
<path d="M12167 2273 c-4 -3 -7 -15 -7 -25 0 -15 8 -18 60 -18 57 0 60 1 60
25 0 24 -3 25 -53 25 -30 0 -57 -3 -60 -7z"/>
<path d="M18400 2255 c0 -24 3 -25 60 -25 60 0 66 4 54 34 -5 12 -20 16 -60
16 -51 0 -54 -1 -54 -25z"/>
<path d="M24637 2273 c-4 -3 -7 -15 -7 -25 0 -15 8 -18 60 -18 57 0 60 1 60
25 0 24 -3 25 -53 25 -30 0 -57 -3 -60 -7z"/>
<path d="M21516 2164 c-12 -30 -5 -34 58 -34 62 0 63 0 58 25 -4 23 -9 25 -57
25 -39 0 -54 -4 -59 -16z"/>
<path d="M2870 2127 c0 -8 112 -79 255 -161 l255 -148 0 -294 c0 -186 4 -294
10 -294 6 0 11 110 12 297 l3 297 245 142 c135 79 250 145 255 147 7 3 7 8 0
14 -7 7 -97 -40 -264 -138 -230 -133 -257 -146 -275 -134 -16 9 -442 256 -488
282 -5 2 -8 -2 -8 -10z"/>
<path d="M9103 2128 c-3 -7 -2 -13 3 -16 5 -2 119 -67 254 -145 l245 -142 3
-302 2 -301 261 -151 c143 -83 266 -151 272 -151 7 0 127 67 267 148 l255 148
3 311 2 311 -247 143 c-137 78 -255 147 -264 152 -12 7 -71 -23 -255 -128
-131 -76 -248 -144 -259 -151 -18 -12 -29 -8 -90 28 -391 227 -445 256 -452
246z m1297 -162 l245 -142 3 -295 2 -294 -72 -41 c-40 -23 -155 -89 -254 -147
l-182 -105 -253 147 -254 147 -3 291 -2 291 252 146 c139 80 258 145 263 145
6 0 120 -64 255 -143z"/>
<path d="M9935 1899 c-200 -116 -213 -125 -202 -135 9 -9 418 227 411 237 -3
5 -8 9 -12 9 -4 -1 -92 -50 -197 -111z"/>
<path d="M10540 1531 c0 -209 2 -241 15 -241 13 0 15 31 13 237 -2 178 -6 237
-15 241 -10 3 -13 -49 -13 -237z"/>
<path d="M9730 1288 c1 -18 403 -248 412 -235 4 6 -77 59 -199 129 -112 65
-207 118 -209 118 -2 0 -4 -6 -4 -12z"/>
<path d="M18455 2131 c-7 -13 -6 -13 282 -179 l223 -127 0 -301 0 -301 260
-149 259 -149 1 -187 c0 -160 2 -188 15 -188 13 0 15 28 15 193 l0 192 -260
150 -260 150 0 300 0 300 -243 139 c-133 77 -252 146 -264 153 -14 10 -23 11
-28 4z"/>
<path d="M24694 2128 c-4 -6 -1 -14 7 -19 8 -4 122 -70 254 -147 l240 -138 5
-303 5 -303 255 -147 255 -147 3 -187 c1 -113 6 -187 12 -187 6 0 10 74 10
194 l0 194 -257 148 -258 149 -5 303 -5 303 -258 148 c-152 88 -260 145 -263
139z"/>
<path d="M12220 2123 c0 -4 93 -101 206 -214 l206 -206 -45 -169 c-27 -99 -42
-173 -37 -178 12 -12 13 -9 54 147 19 71 36 130 38 131 2 1 77 22 168 46 196
52 213 57 206 69 -5 8 -157 -27 -320 -74 -48 -14 -48 -14 -42 7 3 13 -1 29
-10 39 -8 9 -12 19 -7 22 4 2 81 24 170 47 165 44 193 54 180 66 -3 4 -91 -16
-194 -44 l-188 -51 -185 185 c-173 172 -200 196 -200 177z"/>
<path d="M6077 2074 c-8 -8 1 -24 13 -24 4 0 10 7 14 15 5 15 -14 21 -27 9z"/>
<path d="M15208 2072 c-12 -5 -15 -11 -8 -22 7 -11 14 -12 27 -4 37 23 23 43
-19 26z"/>
<path d="M6126 2044 c-14 -37 15 -40 34 -3 9 16 7 19 -9 19 -10 0 -22 -7 -25
-16z"/>
<path d="M6176 2011 c-14 -25 -14 -30 -1 -35 10 -3 20 5 30 24 19 36 19 40 0
40 -8 0 -21 -13 -29 -29z"/>
<path d="M15112 2029 c-23 -9 -23 -16 0 -46 8 -9 14 -9 29 0 37 23 12 62 -29
46z"/>
<path d="M6230 1985 c-20 -32 -20 -55 -1 -55 6 0 24 31 49 83 2 4 -3 7 -11 7
-9 0 -25 -16 -37 -35z"/>
<path d="M13151 2003 c-54 -27 -73 -66 -69 -147 4 -64 6 -70 41 -102 32 -29
44 -34 88 -34 94 0 139 48 139 147 0 70 -23 112 -73 136 -44 21 -83 21 -126 0z
m97 -24 c109 -38 80 -229 -35 -229 -104 0 -138 175 -43 222 41 21 39 21 78 7z"/>
<path d="M6281 1955 c-17 -32 -21 -49 -14 -56 6 -6 13 -7 15 -2 3 4 17 29 33
56 24 42 25 47 8 47 -11 0 -27 -17 -42 -45z"/>
<path d="M6431 1973 c-54 -27 -73 -66 -69 -147 4 -64 6 -70 41 -102 32 -29 44
-34 88 -34 94 0 139 48 139 147 0 70 -23 112 -73 136 -44 21 -83 21 -126 0z
m97 -24 c109 -38 80 -229 -35 -229 -104 0 -138 175 -43 222 41 21 39 21 78 7z"/>
<path d="M15007 1983 c-10 -3 -17 -8 -15 -11 2 -4 10 -19 17 -34 16 -31 32
-35 50 -14 9 10 9 20 0 40 -12 26 -18 28 -52 19z"/>
<path d="M6690 1835 c0 -138 1 -145 20 -145 18 0 20 7 20 70 l0 71 78 -3 77
-3 3 -67 c2 -52 6 -68 17 -68 13 0 15 25 15 145 0 120 -2 145 -15 145 -10 0
-15 -15 -17 -57 l-3 -58 -77 -3 -78 -3 0 61 c0 53 -2 60 -20 60 -19 0 -20 -7
-20 -145z"/>
<path d="M14912 1939 c-21 -8 -22 -10 -8 -36 29 -56 39 -64 59 -48 21 15 17
37 -11 72 -13 16 -22 19 -40 12z"/>
<path d="M14808 1893 c-23 -6 -23 -4 10 -63 28 -52 42 -60 62 -35 9 11 7 23
-12 56 -24 44 -32 50 -60 42z"/>
<path d="M11890 1135 c0 -138 1 -145 20 -145 18 0 20 7 20 70 l0 70 80 0 80 0
0 -70 c0 -56 3 -70 15 -70 13 0 15 23 15 145 0 120 -2 145 -15 145 -10 0 -15
-15 -17 -57 l-3 -58 -75 0 -75 0 -3 58 c-3 49 -6 57 -22 57 -19 0 -20 -8 -20
-145z"/>
<path d="M12370 1135 c0 -121 2 -145 15 -145 12 0 15 22 17 116 l3 117 78
-117 c55 -83 83 -116 97 -116 19 0 20 7 20 145 0 138 -1 145 -20 145 -19 0
-20 -7 -20 -112 l0 -113 -75 113 c-54 80 -81 112 -95 112 -19 0 -20 -7 -20
-145z"/>
<path d="M12196 1094 c-18 -17 -21 -44 -6 -44 5 0 14 9 20 20 18 34 80 20 80
-17 0 -8 -27 -43 -60 -78 -33 -35 -60 -69 -60 -75 0 -6 29 -10 70 -10 56 0 70
3 70 15 0 11 -12 15 -51 15 l-51 0 51 48 c43 41 51 54 51 85 0 26 -6 39 -19
47 -29 15 -77 12 -95 -6z"/>
<path d="M19370 335 c0 -138 1 -145 20 -145 18 0 20 8 22 112 l3 112 74 -112
c104 -157 111 -155 111 33 0 122 -2 145 -15 145 -12 0 -15 -18 -15 -105 0 -58
-3 -105 -7 -105 -5 0 -39 47 -78 105 -54 80 -75 104 -92 105 -23 0 -23 -1 -23
-145z"/>
<path d="M19670 335 c0 -138 1 -145 20 -145 18 0 20 7 20 70 l0 70 80 0 80 0
0 -70 c0 -56 3 -70 15 -70 13 0 15 23 15 145 0 120 -2 145 -15 145 -10 0 -15
-15 -17 -57 l-3 -58 -75 0 -75 0 -3 58 c-3 49 -6 57 -22 57 -19 0 -20 -8 -20
-145z"/>
<path d="M25610 335 c0 -121 2 -145 15 -145 12 0 15 22 17 116 l3 117 78 -117
c55 -83 83 -116 97 -116 19 0 20 7 20 145 0 138 -1 145 -20 145 -19 0 -20 -7
-20 -112 l0 -113 -75 113 c-54 80 -81 112 -95 112 -19 0 -20 -7 -20 -145z"/>
<path d="M25910 335 c0 -138 1 -145 20 -145 18 0 20 7 20 70 l0 70 75 0 75 0
0 -70 c0 -63 2 -70 20 -70 19 0 20 7 20 145 0 138 -1 145 -20 145 -18 0 -20
-7 -20 -60 l0 -60 -75 0 -75 0 0 60 c0 53 -2 60 -20 60 -19 0 -20 -7 -20 -145z"/>
<path d="M19976 294 c-18 -17 -21 -44 -6 -44 5 0 14 9 20 20 18 34 80 20 80
-18 0 -8 -27 -41 -60 -74 -80 -78 -79 -88 10 -88 56 0 70 3 70 15 0 11 -13 15
-52 15 l-53 0 53 49 c43 40 52 54 52 82 0 19 -5 40 -12 47 -17 17 -84 15 -102
-4z"/>
<path d="M26206 288 c-20 -28 -20 -38 -2 -38 7 0 16 9 19 21 4 16 12 20 39 17
27 -2 34 -8 36 -30 3 -21 -8 -37 -52 -79 -31 -29 -56 -61 -56 -71 0 -16 9 -18
70 -18 56 0 70 3 70 15 0 11 -12 15 -51 15 l-52 0 52 54 c55 59 64 91 33 119
-28 25 -87 22 -106 -5z"/>
</g>
</svg>
