<?xml version="1.0" standalone="no"?>
<!DOCTYPE svg PUBLIC "-//W3C//DTD SVG 20010904//EN"
 "http://www.w3.org/TR/2001/REC-SVG-20010904/DTD/svg10.dtd">
<svg version="1.0" xmlns="http://www.w3.org/2000/svg"
 width="1014.000000pt" height="1357.000000pt" viewBox="0 0 1014.000000 1357.000000"
 preserveAspectRatio="xMidYMid meet">

<g transform="translate(0.000000,1357.000000) scale(0.100000,-0.100000)"
fill="#ffffff" stroke="none">
<path d="M2940 12105 l0 -675 90 0 90 0 2 516 3 517 342 -517 342 -516 95 0
96 0 0 675 0 675 -90 0 -90 0 -2 -516 -3 -517 -342 517 -342 516 -95 0 -96 0
0 -675z"/>
<path d="M4300 12105 l0 -675 90 0 90 0 0 320 0 320 350 0 350 0 0 -320 0
-320 90 0 90 0 0 675 0 675 -90 0 -90 0 0 -275 0 -275 -350 0 -350 0 0 275 0
275 -90 0 -90 0 0 -675z"/>
<path d="M5770 12017 c-99 -28 -166 -94 -195 -190 -20 -69 -19 -75 15 -81 95
-19 87 -21 94 23 21 133 224 190 329 92 60 -54 72 -121 38 -197 -25 -55 -121
-156 -257 -269 -168 -141 -235 -227 -250 -323 l-7 -42 332 0 331 0 0 60 0 60
-245 0 c-241 0 -245 0 -235 20 5 10 78 76 160 145 168 142 225 203 270 286 82
154 27 334 -122 399 -64 28 -190 36 -258 17z"/>
<path d="M3400 10136 l0 -964 -1310 -758 -1309 -759 0 -1550 0 -1550 853 -497
c469 -274 855 -498 858 -498 3 0 21 23 39 51 29 46 31 53 17 63 -9 6 -381 223
-827 481 l-810 470 0 1480 0 1480 1279 739 c749 432 1286 736 1295 732 8 -3
375 -215 815 -471 440 -256 806 -468 814 -471 10 -4 23 11 42 47 23 46 24 54
11 63 -8 6 -380 223 -826 481 l-810 470 -1 963 0 962 -65 0 -65 0 0 -964z"/>
<path d="M3473 8498 l-28 -53 693 -398 c381 -219 699 -400 707 -403 16 -7 72
94 58 106 -10 9 -1369 789 -1387 796 -9 4 -24 -14 -43 -48z"/>
<path d="M5570 7565 l0 -675 90 0 90 0 2 516 3 517 342 -517 342 -516 95 0 96
0 0 675 0 675 -90 0 -90 0 -2 -516 -3 -517 -342 517 -342 516 -95 0 -96 0 0
-675z"/>
<path d="M1320 6110 l0 -1200 65 0 65 0 0 1200 0 1200 -65 0 -65 0 0 -1200z"/>
<path d="M6030 5591 l0 -969 -818 -474 -819 -474 34 -49 c19 -28 39 -50 46
-49 7 1 312 176 678 389 365 213 669 388 674 388 6 0 427 -242 937 -537 511
-295 934 -539 942 -542 10 -4 23 10 40 45 14 28 26 52 26 55 0 2 -407 239
-905 527 -498 288 -905 526 -905 529 0 3 45 32 100 64 l99 58 3 117 3 118 905
-523 c498 -288 908 -524 912 -524 7 0 58 92 58 104 0 2 -423 248 -940 547
l-940 544 0 812 0 813 -65 0 -65 0 0 -969z"/>
<path d="M8575 3695 c-271 -59 -446 -262 -486 -562 -34 -255 38 -492 196 -641
154 -147 354 -201 573 -156 256 53 427 229 483 499 60 288 -33 596 -223 743
-146 112 -357 158 -543 117z m247 -156 c157 -34 270 -140 327 -308 22 -67 25
-93 25 -216 1 -165 -18 -245 -83 -342 -180 -269 -598 -254 -760 28 -55 96 -66
147 -65 314 1 134 4 159 27 231 30 91 65 145 128 196 114 93 258 127 401 97z"/>
<path d="M2940 3015 l0 -675 90 0 90 0 2 516 3 517 342 -517 342 -516 95 0 96
0 0 675 0 675 -90 0 -90 0 -2 -516 -3 -517 -342 517 -342 516 -95 0 -96 0 0
-675z"/>
<path d="M2940 1455 l0 -675 90 0 90 0 0 320 0 320 350 0 350 0 0 -320 0 -320
90 0 90 0 0 675 0 675 -90 0 -90 0 0 -275 0 -275 -350 0 -350 0 0 275 0 275
-90 0 -90 0 0 -675z"/>
</g>
</svg>
