<?xml version="1.0" standalone="no"?>
<!DOCTYPE svg PUBLIC "-//W3C//DTD SVG 20010904//EN"
 "http://www.w3.org/TR/2001/REC-SVG-20010904/DTD/svg10.dtd">
<svg version="1.0" xmlns="http://www.w3.org/2000/svg"
 width="783.000000pt" height="717.000000pt" viewBox="0 0 783.000000 717.000000"
 preserveAspectRatio="xMidYMid meet">

<g transform="translate(0.000000,717.000000) scale(0.100000,-0.100000)"
fill="#ffffff" stroke="none">
<path d="M1023 7080 c-107 -15 -190 -79 -239 -184 -21 -44 -24 -66 -24 -167 0
-109 2 -119 30 -177 59 -117 153 -176 281 -175 132 1 225 57 281 170 58 119
48 298 -24 404 -65 96 -183 145 -305 129z m145 -106 c158 -79 175 -362 29
-479 -36 -28 -45 -30 -121 -30 -73 0 -87 3 -124 27 -22 15 -54 49 -69 75 -26
45 -28 55 -28 158 0 95 3 116 22 152 60 111 181 152 291 97z"/>
<path d="M95 7067 c-3 -6 -4 -163 -3 -347 l3 -335 48 -3 47 -3 0 160 0 161
180 0 180 0 0 -160 0 -160 45 0 45 0 0 350 0 350 -45 0 -45 0 0 -145 0 -145
-180 0 -180 0 0 145 0 145 -45 0 c-27 0 -48 -5 -50 -13z"/>
<path d="M1474 6528 c-5 -17 0 -27 21 -44 34 -27 238 -148 623 -369 l292 -168
0 -920 0 -921 495 -1013 495 -1012 0 -526 0 -525 35 0 35 0 2 607 3 608 1144
5 1145 5 154 320 c84 176 284 591 443 922 l289 602 0 781 0 781 -32 -3 -33 -3
-3 -742 c-1 -409 -4 -743 -7 -743 -3 0 -218 109 -478 243 -671 345 -1093 557
-1110 557 -27 0 -30 -33 -5 -52 33 -25 222 -124 718 -378 618 -316 850 -440
850 -454 0 -14 -146 -249 -668 -1074 l-356 -562 -970 0 c-534 0 -980 3 -991 6
-13 3 -77 95 -175 247 -85 133 -237 370 -339 527 -284 440 -541 848 -541 860
0 6 366 192 813 415 446 222 820 410 830 417 28 21 12 51 -22 43 -45 -11 -339
-151 -776 -368 -231 -115 -519 -258 -641 -317 l-221 -107 -7 150 c-3 83 -6
490 -6 906 l0 756 -138 79 c-434 252 -845 486 -853 486 -4 0 -11 -10 -15 -22z"/>
<path d="M6554 6460 c-107 -15 -184 -76 -235 -183 -30 -66 -31 -71 -27 -185 3
-111 5 -120 36 -174 64 -111 148 -161 272 -161 218 0 346 166 318 413 -22 193
-176 316 -364 290z m136 -101 c59 -27 77 -44 107 -103 54 -106 39 -260 -34
-345 -45 -53 -85 -71 -157 -71 -68 0 -102 12 -144 53 -62 59 -77 100 -77 212
0 85 4 107 24 148 53 109 174 155 281 106z"/>
<path d="M7050 6110 l0 -350 45 0 45 0 0 160 0 160 180 0 180 0 0 -160 0 -160
45 0 45 0 0 350 0 350 -45 0 -45 0 0 -145 0 -145 -180 0 -180 0 0 145 0 145
-45 0 -45 0 0 -350z"/>
<path d="M4480 5477 c-91 -26 -147 -74 -198 -171 -25 -48 -27 -60 -27 -176 0
-117 2 -128 28 -178 32 -61 91 -122 145 -148 28 -15 59 -19 132 -19 84 0 102
3 153 29 162 79 222 310 131 502 -60 127 -226 200 -364 161z m176 -96 c110
-50 163 -210 118 -360 -19 -66 -92 -144 -143 -154 -201 -40 -330 122 -280 353
30 140 178 218 305 161z"/>
<path d="M3373 940 c-107 -15 -190 -79 -239 -184 -21 -44 -24 -66 -24 -166 0
-101 3 -121 24 -167 58 -124 155 -186 289 -186 182 1 304 124 315 318 14 252
-142 415 -365 385z m133 -99 c50 -23 111 -92 126 -145 6 -23 12 -76 12 -118 0
-66 -5 -86 -30 -134 -16 -31 -46 -71 -67 -88 -36 -29 -44 -31 -121 -31 -75 0
-87 3 -125 29 -81 56 -121 173 -100 289 14 80 22 98 61 142 62 71 160 94 244
56z"/>
<path d="M3875 927 c-3 -6 -4 -163 -3 -347 l3 -335 48 -3 47 -3 0 160 0 161
180 0 180 0 0 -160 0 -160 45 0 45 0 0 350 0 350 -45 0 -45 0 0 -145 0 -145
-180 0 -180 0 0 145 0 145 -45 0 c-27 0 -48 -5 -50 -13z"/>
</g>
</svg>
