<?xml version="1.0" standalone="no"?>
<!DOCTYPE svg PUBLIC "-//W3C//DTD SVG 20010904//EN"
 "http://www.w3.org/TR/2001/REC-SVG-20010904/DTD/svg10.dtd">
<svg version="1.0" xmlns="http://www.w3.org/2000/svg"
 width="788.000000pt" height="288.000000pt" viewBox="0 0 788.000000 288.000000"
 preserveAspectRatio="xMidYMid meet">

<g transform="translate(0.000000,288.000000) scale(0.100000,-0.100000)"
fill="#fff" stroke="none">
<path d="M2965 2592 c-82 -471 -255 -1000 -420 -1293 -25 -43 -45 -81 -45 -84
0 -10 64 -65 76 -65 14 0 116 172 201 340 l68 135 3 -722 2 -723 80 0 80 0 0
778 0 778 45 32 c28 20 45 39 45 52 0 25 -49 56 -102 65 -25 4 -38 12 -38 22
0 8 18 72 40 142 23 69 59 196 81 281 50 193 51 196 86 203 41 8 78 40 70 60
-11 30 -83 58 -229 91 -26 6 -26 6 -43 -92z"/>
<path d="M5751 2669 c-6 -13 -22 -55 -37 -94 -102 -266 -285 -564 -469 -763
l-68 -73 36 -37 37 -37 88 88 c48 48 91 87 95 87 4 0 7 -310 7 -689 l0 -689
-47 -10 c-27 -6 -74 -14 -106 -17 -34 -5 -61 -13 -64 -21 -6 -17 30 -127 60
-179 18 -32 28 -40 51 -40 24 0 31 6 45 44 l16 44 105 28 c146 40 363 112 498
166 63 25 117 41 121 37 12 -14 38 -94 52 -156 15 -72 36 -93 84 -84 90 17
117 97 73 217 -34 93 -107 196 -227 321 l-104 109 -29 -27 c-35 -35 -35 -47 1
-93 38 -47 101 -153 101 -168 0 -21 -428 -142 -450 -128 -6 4 -10 112 -10 271
l0 264 239 0 240 0 3 -37 3 -38 70 0 70 0 3 391 2 390 30 29 c45 43 39 64 -35
134 -36 33 -71 61 -78 61 -7 0 -28 -16 -47 -35 -33 -34 -37 -35 -107 -35 l-73
0 0 104 0 104 37 19 c103 54 54 102 -110 106 l-72 2 -3 -167 -2 -168 -92 0
c-95 0 -168 15 -168 35 0 6 24 43 54 81 69 90 160 226 227 342 30 50 59 92 65
92 40 0 261 -224 314 -319 54 -96 62 -105 93 -97 45 11 97 64 97 98 0 93 -154
248 -356 359 -77 42 -96 60 -75 67 7 2 24 14 39 27 23 20 24 25 13 39 -15 18
-113 51 -184 61 -43 7 -47 5 -56 -16z m337 -1011 l3 -108 -241 0 -240 0 0 103
c0 57 3 107 7 111 4 3 110 5 237 4 l231 -3 3 -107z m0 -365 l-3 -118 -235 0
-235 0 -3 118 -3 117 241 0 241 0 -3 -117z"/>
<path d="M995 2639 c-11 -68 -71 -270 -106 -359 l-32 -80 -201 0 -201 0 -96
34 c-53 19 -100 32 -103 29 -3 -4 -6 -467 -6 -1030 l0 -1023 90 0 90 0 0 90 0
90 655 0 655 0 0 -90 0 -90 90 0 90 0 0 909 0 909 45 36 c25 21 45 44 45 53 0
26 -36 68 -111 129 l-72 59 -47 -53 -47 -52 -366 0 c-202 0 -367 2 -367 5 0 3
24 44 54 90 29 47 66 110 82 139 26 49 34 56 89 78 72 28 83 54 37 86 -33 24
-157 68 -219 78 l-41 6 -7 -43z m743 -776 l2 -203 -655 0 -655 0 0 198 c0 109
3 202 7 205 3 4 297 6 652 5 l646 -3 3 -202z m-3 -548 l0 -210 -650 0 -650 0
-3 200 c-1 110 0 205 2 212 4 11 133 13 653 11 l648 -3 0 -210z m3 -562 l-3
-218 -650 0 -650 0 -3 218 -2 217 655 0 655 0 -2 -217z"/>
<path d="M3842 2606 c-64 -217 -220 -504 -350 -638 l-36 -38 34 -35 c19 -19
39 -35 46 -35 14 0 152 144 203 213 19 26 42 47 51 47 8 0 37 -30 65 -68 27
-37 99 -118 160 -181 l110 -113 -35 -30 c-117 -101 -390 -250 -558 -304 -45
-14 -82 -28 -82 -31 0 -13 44 -83 55 -87 21 -8 273 82 395 140 119 57 238 126
301 176 20 15 42 28 48 28 7 0 58 -28 114 -62 147 -89 408 -195 524 -214 39
-6 42 -5 58 26 9 18 35 52 57 76 l40 43 -23 9 c-13 5 -73 19 -134 30 -60 12
-153 35 -205 53 -120 39 -298 123 -306 144 -4 10 11 35 45 73 82 91 172 214
227 309 l51 88 146 5 147 5 21 34 21 34 -89 89 c-48 48 -93 88 -100 88 -6 0
-38 -29 -70 -65 l-58 -65 -392 0 c-216 0 -393 2 -393 4 0 2 16 38 35 79 32 72
36 77 77 87 52 14 68 26 68 51 0 25 -34 46 -120 73 -137 43 -124 46 -148 -38z
m650 -382 c6 -6 -35 -83 -87 -164 -36 -55 -164 -210 -175 -210 -4 0 -40 29
-81 63 -121 104 -285 289 -273 308 6 10 607 13 616 3z"/>
<path d="M6930 2481 l0 -201 -165 0 -165 0 0 29 c0 35 -13 46 -63 55 -27 5
-38 3 -41 -6 -2 -7 -10 -49 -19 -94 -18 -95 -56 -179 -109 -239 -48 -55 -48
-81 0 -128 45 -44 78 -47 120 -12 38 32 61 80 87 180 l20 80 423 3 c352 2 423
0 428 -12 4 -11 -17 -84 -40 -137 -5 -12 3 -22 29 -38 20 -11 42 -21 49 -21
13 0 68 67 109 132 12 20 28 28 61 33 63 10 81 25 72 60 -8 31 -161 195 -182
195 -7 0 -29 -20 -50 -45 l-36 -45 -127 0 c-69 0 -150 3 -178 6 l-53 7 0 127
0 128 29 12 c39 16 75 55 68 74 -8 21 -90 43 -186 52 l-81 7 0 -202z"/>
<path d="M3245 2168 c-3 -7 -4 -382 -3 -833 l3 -820 75 0 75 0 5 758 5 758 39
22 c106 60 58 102 -137 121 -42 5 -59 3 -62 -6z"/>
<path d="M7335 1890 l-39 -40 -296 0 c-289 0 -298 1 -369 25 -41 13 -77 22
-82 19 -5 -3 -9 -381 -9 -860 l0 -854 80 0 80 0 0 80 0 80 340 0 340 0 0 -80
0 -80 80 0 80 0 0 309 0 309 41 35 c53 45 49 56 -48 147 l-75 70 -49 -45 -48
-45 -328 2 -328 3 -3 143 -3 142 305 0 305 0 3 -47 3 -48 80 0 80 0 3 275 2
275 37 31 c34 29 37 34 28 60 -10 28 -136 134 -159 134 -7 0 -30 -18 -51 -40z
m-27 -329 c2 -125 -1 -166 -10 -173 -15 -9 -558 -11 -582 -2 -14 5 -16 30 -16
168 0 90 3 166 7 169 4 4 140 6 302 5 l296 -3 3 -164z m72 -911 l0 -180 -340
0 -340 0 0 180 0 180 340 0 340 0 0 -180z"/>
<path d="M4249 1432 c-143 -146 -397 -300 -624 -378 -44 -15 -84 -31 -89 -35
-14 -13 41 -89 64 -89 35 0 292 101 412 162 124 62 235 132 330 204 47 37 64
44 101 44 29 0 53 7 68 19 l24 20 -35 37 c-39 40 -132 104 -152 104 -7 0 -52
-40 -99 -88z"/>
<path d="M4457 1155 c-145 -139 -389 -303 -564 -379 -99 -43 -279 -106 -304
-106 -31 0 -32 -25 -3 -69 32 -48 14 -50 244 26 140 46 390 156 465 205 10 7
64 42 119 77 55 35 119 78 142 97 31 26 50 34 81 34 55 0 103 18 103 39 0 33
-151 152 -191 151 -8 -1 -49 -34 -92 -75z"/>
<path d="M4760 898 c-242 -222 -508 -386 -811 -499 -89 -33 -352 -103 -431
-114 -27 -4 -48 -11 -48 -16 0 -5 12 -28 26 -50 25 -41 26 -41 72 -35 76 10
339 72 442 104 278 87 588 246 809 416 53 41 65 46 111 46 99 0 115 32 48 97
-42 40 -137 103 -154 103 -5 -1 -34 -24 -64 -52z"/>
</g>
</svg>
