<?xml version="1.0" standalone="no"?>
<!DOCTYPE svg PUBLIC "-//W3C//DTD SVG 20010904//EN"
 "http://www.w3.org/TR/2001/REC-SVG-20010904/DTD/svg10.dtd">
<svg version="1.0" xmlns="http://www.w3.org/2000/svg"
 width="1388.000000pt" height="442.000000pt" viewBox="0 0 1388.000000 442.000000"
 preserveAspectRatio="xMidYMid meet">

<g transform="translate(0.000000,442.000000) scale(0.100000,-0.100000)"
fill="#ffffff" stroke="none">
<path d="M5896 4335 c-112 -40 -163 -130 -154 -272 9 -131 72 -213 180 -233
69 -13 139 1 185 36 33 25 73 90 73 117 0 15 -53 31 -58 19 -31 -84 -74 -117
-152 -117 -71 0 -104 21 -138 86 -20 38 -23 55 -20 132 5 96 17 123 78 165 24
16 47 22 88 22 50 0 58 -3 92 -37 20 -21 39 -44 41 -52 4 -10 14 -12 36 -7 40
9 35 34 -21 91 -60 63 -144 81 -230 50z"/>
<path d="M9991 4340 c-54 -13 -112 -60 -140 -115 -22 -43 -26 -62 -26 -140 1
-92 18 -147 64 -199 43 -48 139 -73 222 -55 59 13 128 72 147 127 12 34 10 36
-28 45 -22 5 -28 0 -45 -36 -30 -61 -65 -82 -135 -82 -71 0 -105 21 -137 85
-18 34 -23 61 -23 115 0 130 61 205 168 205 50 0 58 -3 92 -37 20 -21 39 -44
41 -52 4 -10 14 -12 36 -7 30 7 31 9 21 36 -5 16 -27 45 -48 64 -56 51 -125
66 -209 46z"/>
<path d="M6270 4085 l0 -255 35 0 35 0 0 120 0 120 135 0 135 0 0 -120 0 -120
30 0 30 0 0 255 0 255 -30 0 -29 0 -3 -102 -3 -103 -132 -3 -133 -3 0 106 0
105 -35 0 -35 0 0 -255z"/>
<path d="M10360 4085 l0 -255 30 0 30 0 0 120 0 120 135 0 135 0 0 -120 0
-120 30 0 30 0 0 255 0 255 -30 0 -30 0 0 -105 0 -105 -135 0 -135 0 0 105 0
105 -30 0 -30 0 0 -255z"/>
<path d="M1218 4180 c-117 -35 -179 -158 -156 -307 22 -143 104 -209 248 -201
58 3 75 8 107 34 35 28 93 117 83 127 -3 3 -19 8 -37 11 -28 7 -32 5 -38 -22
-13 -62 -90 -108 -163 -97 -110 16 -169 151 -127 291 23 77 74 116 155 117 56
1 93 -20 122 -69 17 -29 24 -33 46 -28 36 9 36 9 23 43 -36 86 -158 133 -263
101z"/>
<path d="M2399 4176 c-60 -21 -96 -54 -125 -111 -24 -51 -26 -63 -22 -148 6
-130 43 -195 130 -232 49 -20 151 -19 194 1 41 20 100 85 109 121 7 30 8 28
-27 37 -24 5 -29 2 -41 -27 -18 -42 -68 -84 -111 -92 -126 -24 -217 102 -187
260 18 98 71 147 160 148 57 1 94 -19 123 -69 17 -29 24 -33 46 -28 36 9 36 9
23 43 -38 90 -165 135 -272 97z"/>
<path d="M280 3930 l0 -250 30 0 29 0 3 118 3 117 130 0 130 0 3 -117 3 -118
34 0 35 0 0 250 0 250 -35 0 -34 0 -3 -102 -3 -103 -130 0 -130 0 -3 103 -3
102 -29 0 -30 0 0 -250z"/>
<path d="M2780 3930 l0 -250 35 0 35 0 0 120 0 120 130 0 130 0 0 -120 0 -120
35 0 35 0 0 250 0 250 -35 0 -35 0 0 -105 0 -105 -130 0 -130 0 0 105 0 105
-35 0 -35 0 0 -250z"/>
<path d="M6778 4063 c-25 -16 -48 -51 -48 -73 0 -21 38 -8 58 20 17 23 30 30
56 30 39 0 59 -19 59 -57 0 -30 -34 -63 -64 -63 -12 0 -19 -7 -19 -18 0 -14 8
-19 32 -20 65 -2 91 -80 43 -128 -36 -36 -83 -30 -110 13 -25 40 -71 48 -60
11 11 -36 56 -77 91 -84 75 -14 143 35 151 110 5 41 3 48 -25 74 -29 28 -29
28 -11 51 36 44 18 111 -38 140 -31 16 -84 13 -115 -6z"/>
<path d="M10844 4046 c-19 -19 -34 -41 -34 -50 0 -26 35 -18 58 14 30 40 83
42 109 4 15 -24 15 -29 2 -53 -8 -14 -29 -30 -47 -36 -43 -12 -44 -42 -1 -43
44 -1 69 -27 69 -73 0 -43 -35 -79 -77 -79 -23 0 -66 34 -74 59 -3 7 -15 11
-27 9 -22 -3 -22 -3 -5 -38 39 -76 136 -89 200 -25 45 45 47 103 5 145 -27 27
-28 28 -10 50 35 43 20 108 -32 135 -50 26 -97 20 -136 -19z"/>
<path d="M781 3893 c-38 -36 -44 -67 -13 -71 14 -2 22 2 22 12 0 8 12 24 27
36 44 35 103 8 103 -46 0 -25 -43 -64 -71 -64 -11 0 -19 -7 -19 -17 0 -14 9
-18 35 -19 43 -1 62 -18 71 -61 5 -27 1 -37 -24 -63 -17 -16 -39 -30 -49 -30
-26 0 -63 28 -73 55 -7 17 -14 22 -29 18 -24 -6 -25 -12 -9 -48 32 -71 163
-74 215 -5 32 43 16 131 -27 145 -22 7 -22 7 -2 28 28 32 34 56 21 94 -21 66
-124 86 -178 36z"/>
<path d="M3269 3891 c-34 -34 -39 -71 -10 -71 11 0 23 9 26 20 17 52 96 62
117 14 18 -38 3 -70 -42 -88 -51 -20 -52 -41 -3 -42 41 -1 73 -31 73 -71 0
-29 -50 -83 -77 -83 -26 0 -63 28 -73 55 -7 17 -14 22 -29 18 -30 -8 -26 -30
13 -69 29 -29 41 -34 80 -34 26 0 60 7 75 15 29 14 61 68 61 102 0 27 -37 83
-56 83 -12 0 -10 7 10 31 58 68 7 149 -94 149 -33 0 -48 -6 -71 -29z"/>
<path d="M5930 3353 l-1 -408 -486 -280 c-267 -154 -492 -281 -500 -283 -8 -2
-240 127 -517 287 -277 160 -506 291 -509 291 -3 0 -231 -130 -508 -290 -277
-159 -508 -290 -514 -290 -15 0 -980 559 -980 568 0 4 90 162 199 350 199 343
207 362 161 362 -5 0 -93 -145 -195 -321 -102 -177 -190 -328 -196 -336 -8
-12 -50 53 -204 320 -174 300 -196 334 -212 323 -10 -6 -18 -14 -18 -17 0 -4
88 -159 195 -344 108 -186 194 -340 191 -343 -3 -2 -229 -134 -503 -292 l-498
-287 -3 -604 -2 -604 522 -300 c286 -165 524 -299 527 -298 4 1 224 127 491
281 267 153 495 284 506 290 19 10 68 -15 394 -204 325 -187 375 -213 388
-200 8 8 12 18 8 24 -3 5 -172 105 -376 222 l-370 214 2 575 3 576 490 282
c270 156 495 283 502 283 8 0 714 -403 994 -567 25 -15 36 -10 523 272 274
158 505 289 515 292 10 3 211 -107 497 -272 263 -152 492 -283 507 -291 27
-15 36 -10 531 276 276 159 508 290 514 290 6 0 229 -125 494 -278 266 -154
493 -284 506 -291 20 -11 69 15 526 279 277 159 509 290 515 290 7 0 239 -131
516 -291 l505 -291 505 291 c277 160 510 291 517 291 7 0 175 -94 373 -209
317 -184 361 -207 373 -193 6 9 12 18 12 21 0 3 -73 48 -163 100 -89 51 -260
150 -379 218 l-217 126 -507 -293 c-284 -163 -514 -290 -523 -287 -9 2 -234
131 -501 285 l-485 280 -3 406 -2 406 -23 0 -22 0 2 -397 c2 -219 0 -403 -5
-409 -9 -14 -979 -574 -994 -574 -6 0 -237 131 -515 291 -498 288 -506 292
-532 276 -307 -180 -985 -567 -994 -567 -7 1 -232 128 -502 283 l-490 283 -3
407 -2 407 -25 0 -25 0 0 -407z m-3547 -738 l486 -280 1 -576 0 -576 -491
-283 c-270 -156 -497 -283 -504 -283 -7 0 -234 127 -504 283 l-491 284 2 575
3 576 490 283 c270 155 497 281 505 280 9 -2 235 -129 503 -283z"/>
<path d="M2690 1755 l0 -485 25 0 25 0 0 485 0 485 -25 0 -25 0 0 -485z"/>
<path d="M4005 3087 c-14 -20 -12 -22 43 -53 31 -17 241 -138 466 -268 403
-232 425 -243 426 -200 0 7 -55 43 -122 82 -68 38 -275 158 -461 265 -331 192
-337 195 -352 174z"/>
<path d="M8089 3089 c-6 -12 -8 -23 -6 -26 3 -3 212 -123 463 -268 440 -254
459 -263 472 -244 8 11 12 21 11 23 -2 1 -114 66 -249 143 -135 78 -343 197
-462 266 -207 119 -218 125 -229 106z"/>
<path d="M6132 3033 c-8 -16 47 -50 411 -260 381 -219 422 -241 433 -225 10
13 10 20 1 28 -18 17 -815 474 -826 474 -6 0 -14 -8 -19 -17z"/>
<path d="M10214 3033 c-9 -15 38 -46 410 -260 375 -216 422 -240 434 -226 6 9
12 19 12 22 -1 7 -814 475 -833 479 -6 1 -17 -5 -23 -15z"/>
<path d="M13000 2564 c-45 -20 -86 -59 -113 -109 -18 -33 -22 -57 -22 -136 0
-89 2 -99 30 -145 97 -156 335 -150 417 10 30 58 37 180 13 242 -23 60 -70
112 -120 135 -50 23 -156 24 -205 3z m149 -44 c45 -13 97 -64 112 -109 16 -48
14 -148 -4 -191 -28 -65 -85 -102 -157 -102 -73 0 -135 41 -160 107 -16 42
-15 155 3 197 35 83 119 123 206 98z"/>
<path d="M13430 2320 l0 -250 35 0 35 0 0 120 0 121 133 -3 132 -3 3 -117 3
-118 29 0 30 0 0 250 0 250 -30 0 -30 0 0 -100 0 -100 -135 0 -135 0 0 100 0
100 -35 0 -35 0 0 -250z"/>
<path d="M3852 801 c-29 -10 -64 -29 -79 -42 -101 -93 -97 -319 6 -412 102
-92 282 -64 342 55 24 46 20 64 -14 70 -21 4 -28 -2 -46 -39 -51 -106 -189
-113 -263 -13 -42 57 -42 212 1 270 32 44 80 70 130 70 59 0 90 -16 120 -63
24 -37 43 -45 71 -27 12 8 12 13 -2 43 -21 43 -70 81 -123 96 -55 15 -81 13
-143 -8z"/>
<path d="M4230 555 l0 -255 35 0 35 0 0 120 0 120 130 0 130 0 0 -120 0 -120
35 0 35 0 0 255 0 255 -35 0 -35 0 0 -105 0 -105 -130 0 -130 0 0 105 0 105
-35 0 -35 0 0 -255z"/>
<path d="M4744 534 c-28 -13 -54 -49 -54 -73 0 -5 9 -11 20 -14 13 -3 21 1 25
14 15 47 77 66 109 33 36 -35 6 -104 -45 -104 -9 0 -19 -9 -22 -20 -4 -17 0
-20 29 -20 69 0 99 -76 49 -125 -31 -32 -74 -33 -103 -2 -12 13 -22 29 -22 35
0 7 -11 12 -25 12 -29 0 -31 -10 -10 -49 15 -30 69 -61 104 -61 31 0 83 24
104 47 40 45 26 142 -22 158 -18 6 -18 7 5 30 42 42 26 112 -31 140 -41 19
-71 19 -111 -1z"/>
</g>
</svg>
