<?xml version="1.0" standalone="no"?>
<!DOCTYPE svg PUBLIC "-//W3C//DTD SVG 20010904//EN"
 "http://www.w3.org/TR/2001/REC-SVG-20010904/DTD/svg10.dtd">
<svg version="1.0" xmlns="http://www.w3.org/2000/svg"
 width="2000.000000pt" height="1132.000000pt" viewBox="0 0 2000.000000 1132.000000"
 preserveAspectRatio="xMidYMid meet">

<g transform="translate(0.000000,1132.000000) scale(0.100000,-0.100000)"
fill="#ffffff" stroke="none">
<path d="M15960 10546 c-415 -89 -760 -164 -766 -167 -16 -6 4 -89 22 -89 8 0
344 70 747 155 402 85 735 151 739 147 4 -4 173 -294 377 -646 204 -351 372
-641 375 -643 2 -3 23 6 45 19 l40 24 -392 682 c-318 553 -396 681 -412 681
-11 -1 -360 -74 -775 -163z"/>
<path d="M14217 10694 c-4 -4 -7 -234 -7 -511 l0 -503 70 0 70 0 2 389 3 389
260 -389 260 -388 73 -1 72 0 -2 508 -3 507 -62 3 -63 3 -2 -397 -3 -397 -265
394 -265 394 -65 3 c-36 2 -69 0 -73 -4z"/>
<path d="M15891 10184 c-344 -74 -627 -136 -629 -139 -2 -2 -1 -25 2 -50 6
-37 11 -45 24 -41 9 3 298 64 642 137 344 73 627 133 629 135 2 2 0 24 -3 49
-6 34 -11 45 -24 44 -9 -1 -298 -62 -641 -135z"/>
<path d="M14457 9518 c-3 -18 -56 -375 -118 -793 -61 -418 -112 -761 -113
-761 0 -1 -471 -272 -1046 -604 -575 -331 -1050 -607 -1056 -614 -9 -8 7 -280
62 -1076 40 -586 73 -1074 74 -1085 0 -17 -113 -86 -592 -363 -326 -188 -599
-346 -607 -351 -11 -7 -10 -16 9 -47 13 -22 25 -40 26 -42 1 -2 273 153 605
344 331 191 607 347 613 347 6 0 398 -224 871 -497 l860 -497 5 -842 5 -842
48 -3 47 -3 0 815 0 815 60 -35 61 -35 54 30 c30 17 57 31 60 31 3 0 6 -363 7
-808 l3 -807 48 -3 47 -3 0 843 0 843 625 360 c344 197 625 362 625 366 0 19
-44 80 -55 76 -6 -3 -324 -186 -706 -407 -382 -221 -699 -403 -705 -403 -5 0
-436 246 -957 547 l-947 548 0 39 c0 44 150 2262 153 2265 29 23 1747 1007
1757 1006 8 0 474 -206 1035 -457 561 -252 1025 -458 1032 -458 6 -1 250 263
542 587 l530 590 -37 32 -37 33 -21 -22 c-12 -12 -240 -266 -508 -564 l-486
-542 -78 34 c-42 20 -491 219 -997 444 -506 225 -921 416 -923 423 -1 7 49
361 113 787 63 426 114 776 112 777 -1 1 -23 5 -48 9 l-46 7 -6 -34z"/>
<path d="M17567 9204 c-4 -4 -7 -234 -7 -511 l0 -503 70 0 70 0 0 392 0 392
262 -392 263 -392 72 0 73 0 -2 508 -3 507 -62 3 -63 3 -2 -398 -3 -398 -266
395 -266 395 -64 3 c-36 2 -68 0 -72 -4z"/>
<path d="M18597 9203 c-4 -3 -7 -233 -7 -510 l0 -503 70 0 70 0 0 235 0 235
260 0 260 0 0 -235 0 -235 70 0 70 0 0 510 0 511 -67 -3 -68 -3 -3 -207 -2
-208 -260 0 -260 0 0 210 0 210 -63 0 c-35 0 -67 -3 -70 -7z"/>
<path d="M14635 8144 c-8 -20 -15 -39 -15 -43 1 -8 1583 -712 1605 -714 19 -2
53 70 39 82 -14 12 -1588 711 -1602 711 -6 0 -19 -16 -27 -36z"/>
<path d="M8333 7306 c-176 -43 -308 -184 -348 -374 -30 -141 -9 -310 52 -425
43 -80 121 -152 210 -195 72 -34 86 -37 184 -40 168 -6 273 33 374 139 92 96
135 217 135 379 0 171 -48 301 -146 396 -114 112 -297 159 -461 120z m265
-136 c68 -30 143 -111 173 -188 30 -79 38 -242 15 -332 -30 -116 -107 -206
-211 -246 -64 -24 -214 -16 -273 15 -143 74 -211 241 -185 450 6 50 21 111 33
138 35 80 115 150 203 179 61 20 180 12 245 -16z"/>
<path d="M8177 6143 c-4 -3 -7 -382 -7 -842 l0 -836 -867 -500 c-477 -275
-872 -499 -877 -497 -6 2 -444 253 -973 558 -529 305 -968 556 -975 559 -10 4
-1245 -698 -1266 -720 -3 -3 18 -46 36 -73 7 -11 148 66 616 337 l606 350 952
-551 c524 -303 967 -557 983 -565 l31 -15 977 566 977 565 703 -406 c386 -223
709 -408 717 -410 10 -3 24 10 38 36 l23 40 -58 33 c-32 19 -316 182 -630 363
l-573 330 0 843 0 843 -47 -3 -48 -3 -3 -807 c-1 -445 -4 -808 -7 -808 -3 0
-30 14 -60 31 l-55 31 -54 -31 c-29 -17 -56 -31 -60 -31 -3 0 -6 365 -6 810
l0 810 -43 0 c-24 0 -47 -3 -50 -7z"/>
<path d="M16219 5049 c-179 -26 -318 -145 -373 -318 -89 -282 11 -572 234
-679 196 -93 439 -52 574 99 90 100 131 225 130 389 -1 123 -31 227 -91 317
-66 100 -187 174 -318 193 -78 11 -78 11 -156 -1z m203 -135 c67 -22 141 -92
180 -171 30 -61 32 -75 36 -188 5 -142 -10 -210 -63 -291 -90 -137 -285 -183
-436 -103 -139 74 -198 219 -178 434 10 107 41 188 93 240 95 95 230 124 368
79z"/>
<path d="M16960 4530 l0 -510 70 0 70 0 0 240 0 240 260 0 260 0 0 -240 0
-240 70 0 70 0 0 510 0 510 -70 0 -70 0 0 -210 0 -210 -260 0 -260 0 0 210 0
210 -70 0 -70 0 0 -510z"/>
<path d="M610 3400 l0 -511 68 3 67 3 3 238 2 237 260 0 260 0 0 -240 0 -241
68 3 67 3 3 508 2 507 -70 0 -70 0 0 -205 0 -205 -260 0 -260 0 0 205 0 205
-70 0 -70 0 0 -510z"/>
<path d="M2220 3400 l0 -510 65 0 65 0 2 396 3 395 240 -357 c328 -489 283
-434 360 -434 l65 0 0 510 0 510 -65 0 -65 0 -2 -391 -3 -391 -260 389 -260
388 -72 3 -73 3 0 -511z"/>
<path d="M10060 3400 l0 -511 63 3 62 3 5 391 5 391 265 -393 264 -394 68 0
68 0 0 510 0 510 -65 0 -65 0 -2 -392 -3 -392 -263 392 -263 392 -69 0 -70 0
0 -510z"/>
<path d="M1724 3346 c-22 -7 -55 -23 -72 -36 -37 -27 -82 -111 -82 -152 0 -26
3 -28 40 -28 22 0 43 -1 47 -2 4 -2 10 13 13 32 4 19 13 45 21 58 18 28 86 62
125 62 50 -1 109 -34 127 -73 44 -92 6 -149 -255 -379 -78 -69 -138 -162 -138
-215 l0 -23 256 0 255 0 -3 48 -3 47 -183 5 -183 5 28 31 c15 17 76 72 135
123 182 156 230 242 198 356 -33 119 -185 185 -326 141z"/>
<path d="M10062 2223 l3 -508 68 -3 67 -3 0 241 0 240 260 0 260 0 0 -240 0
-240 70 0 70 0 0 510 0 510 -70 0 -70 0 0 -210 0 -210 -260 0 -260 0 0 210 0
210 -70 0 -70 0 2 -507z"/>
<path d="M14195 1641 c-84 -24 -121 -46 -187 -109 -109 -104 -152 -217 -153
-402 0 -122 11 -172 62 -274 31 -61 113 -149 171 -183 138 -81 331 -85 487 -9
63 31 153 123 188 192 80 158 81 387 1 551 -95 196 -346 299 -569 234z m251
-116 c82 -25 143 -79 189 -169 l40 -79 0 -141 c0 -123 -3 -148 -23 -197 -29
-73 -86 -137 -153 -174 -46 -25 -68 -30 -145 -33 -83 -4 -97 -2 -153 23 -71
32 -142 103 -171 171 -45 104 -48 262 -9 390 30 97 112 178 212 210 57 17 153
17 213 -1z"/>
</g>
</svg>
