<?xml version="1.0" standalone="no"?>
<!DOCTYPE svg PUBLIC "-//W3C//DTD SVG 20010904//EN"
 "http://www.w3.org/TR/2001/REC-SVG-20010904/DTD/svg10.dtd">
<svg version="1.0" xmlns="http://www.w3.org/2000/svg"
 width="1137.000000pt" height="915.000000pt" viewBox="0 0 1137.000000 915.000000"
 preserveAspectRatio="xMidYMid meet">

<g transform="translate(0.000000,915.000000) scale(0.100000,-0.100000)"
fill="#ffffff" stroke="none">
<path d="M2465 9037 c-58 -15 -137 -98 -155 -162 -19 -63 -19 -176 -1 -238 20
-71 89 -143 154 -162 63 -19 110 -19 171 -1 65 20 112 58 144 119 25 48 27 61
27 162 0 101 -2 114 -27 162 -57 108 -180 155 -313 120z m180 -70 c24 -14 50
-40 65 -67 22 -40 25 -57 25 -145 0 -88 -3 -105 -25 -145 -32 -56 -88 -90
-152 -90 -124 0 -191 78 -192 225 -1 90 13 141 52 187 52 61 153 77 227 35z"/>
<path d="M330 8115 l0 -285 30 0 30 0 0 140 0 140 150 0 150 0 0 -140 0 -140
35 0 35 0 0 285 0 285 -35 0 -35 0 0 -115 0 -115 -150 0 -150 0 0 115 0 115
-30 0 -30 0 0 -285z"/>
<path d="M1270 8116 l0 -286 30 0 30 0 2 245 3 245 141 -242 142 -243 41 -3
c40 -3 41 -2 41 27 0 17 3 31 8 31 4 0 122 -67 262 -149 254 -148 255 -148
272 -127 10 12 16 25 15 30 -2 4 -119 76 -262 158 l-259 150 -18 -24 c-17 -22
-18 -16 -18 225 l0 247 -30 0 -30 0 0 -232 c0 -161 -3 -229 -10 -222 -6 6 -68
109 -138 230 l-128 219 -47 3 -47 3 0 -285z"/>
<path d="M2420 8100 l0 -260 35 0 35 0 0 260 0 260 -35 0 -35 0 0 -260z"/>
<path d="M2620 8105 l0 -255 30 0 30 0 0 255 0 255 -30 0 -30 0 0 -255z"/>
<path d="M934 8131 c-43 -11 -54 -19 -54 -42 0 -23 9 -24 46 -4 16 8 47 15 69
15 82 0 112 -54 75 -137 -14 -32 -50 -76 -110 -133 -60 -57 -90 -94 -90 -108
0 -22 2 -22 145 -22 138 0 145 1 145 20 0 19 -7 20 -117 20 l-117 0 91 88 c64
64 95 102 108 135 46 120 -47 202 -191 168z"/>
<path d="M2480 7729 c-80 -25 -120 -76 -120 -154 0 -91 48 -132 190 -160 127
-26 150 -41 150 -104 0 -36 -26 -70 -66 -87 -67 -28 -188 -11 -254 36 l-31 22
3 -43 c3 -42 5 -44 53 -63 35 -13 77 -19 141 -20 84 -1 94 1 139 29 55 34 85
83 85 138 0 86 -47 125 -189 155 -102 22 -140 43 -154 85 -34 104 148 156 273
79 l50 -31 0 43 c0 44 -1 44 -47 60 -61 21 -178 29 -223 15z"/>
<path d="M4520 7331 c-140 -81 -379 -219 -530 -306 -151 -87 -286 -165 -300
-173 -24 -14 -39 -6 -415 211 -388 225 -390 226 -407 205 -10 -11 -18 -23 -18
-27 0 -5 175 -109 390 -232 l389 -224 3 -645 3 -644 140 -82 c736 -427 999
-575 1011 -570 17 6 255 143 767 439 l338 196 381 -221 382 -220 18 23 c16 18
17 25 6 34 -7 7 -164 99 -348 205 -184 106 -352 203 -372 216 l-38 24 0 640 0
640 -22 13 c-13 8 -162 95 -333 193 -170 98 -391 225 -490 282 -99 58 -207
119 -240 138 l-60 33 -255 -148z m522 -77 c139 -80 314 -181 388 -224 74 -43
200 -116 280 -162 l145 -84 3 -622 2 -622 -37 -24 c-21 -13 -114 -68 -208
-122 -93 -53 -320 -185 -504 -291 l-333 -194 -272 158 c-149 86 -336 195 -416
241 -80 46 -200 116 -267 155 l-123 70 0 626 0 626 98 56 c53 31 216 125 362
209 146 84 342 197 435 251 94 54 175 98 182 99 6 0 126 -66 265 -146z"/>
<path d="M4820 7195 c-8 -16 -10 -29 -4 -34 5 -4 191 -113 413 -241 l404 -233
19 23 c15 19 16 26 6 35 -13 12 -814 475 -821 475 -2 0 -10 -11 -17 -25z"/>
<path d="M3830 6160 l0 -480 30 0 30 0 0 480 0 480 -30 0 -30 0 0 -480z"/>
<path d="M5225 5394 c-226 -130 -412 -238 -414 -240 -3 -2 2 -17 10 -33 l14
-28 417 241 c230 133 418 243 418 246 0 3 -8 15 -18 28 l-17 22 -410 -236z"/>
<path d="M1950 7245 c-118 -69 -216 -131 -218 -138 -1 -7 4 -21 11 -31 13 -17
27 -11 232 108 121 70 221 128 222 130 5 5 -19 56 -26 56 -3 0 -103 -57 -221
-125z"/>
<path d="M2015 7058 c-115 -66 -212 -123 -214 -125 -3 -2 2 -16 10 -32 l14
-29 205 119 c113 66 212 124 220 129 11 6 12 13 2 34 -6 14 -15 26 -19 26 -5
0 -102 -55 -218 -122z"/>
<path d="M1349 7105 c-93 -30 -156 -122 -166 -243 -15 -183 72 -310 224 -328
165 -20 280 85 291 265 8 138 -42 247 -133 291 -59 28 -154 35 -216 15z m182
-68 c67 -36 94 -96 94 -212 0 -77 -4 -98 -25 -140 -56 -109 -210 -129 -294
-39 -73 79 -73 279 0 358 56 60 148 73 225 33z"/>
<path d="M7960 5425 l0 -285 30 0 30 0 0 240 c0 135 4 240 9 240 5 0 71 -108
147 -240 l139 -239 43 -1 42 0 0 285 0 285 -35 0 -35 0 -2 -229 -3 -230 -134
230 -133 229 -49 0 -49 0 0 -285z"/>
<path d="M7578 5167 c-136 -62 -250 -115 -253 -119 -4 -3 -1 -18 7 -32 l13
-25 245 109 c135 60 251 112 258 117 11 7 11 13 1 36 -7 15 -15 27 -18 26 -3
-1 -117 -51 -253 -112z"/>
<path d="M6790 4895 l0 -285 30 0 30 0 2 247 3 247 144 -247 143 -247 39 0 39
0 0 285 0 285 -30 0 -30 0 0 -232 c-1 -196 -3 -230 -14 -215 -7 9 -69 114
-137 232 l-124 214 -47 1 -48 0 0 -285z"/>
<path d="M8475 5060 c-18 -20 -18 -21 7 -48 13 -15 81 -89 149 -166 68 -76
177 -198 241 -270 65 -72 118 -136 118 -142 0 -9 -464 -819 -584 -1021 -29
-49 -41 -52 -139 -28 -34 8 -231 51 -437 95 -610 129 -653 139 -660 150 -4 6
-16 108 -28 228 -30 291 -60 577 -67 630 -6 39 -9 42 -36 42 -34 0 -34 -1 -19
-130 6 -47 21 -193 35 -325 14 -132 29 -278 35 -325 5 -47 10 -99 10 -115 0
-28 -42 -68 -426 -415 -566 -510 -495 -453 -541 -436 -21 8 -173 58 -338 111
-165 53 -421 136 -569 184 l-269 88 -84 -74 c-46 -40 -146 -129 -221 -197
-685 -619 -677 -612 -674 -637 1 -13 9 -53 17 -89 8 -36 44 -204 80 -375 99
-466 146 -686 155 -728 l8 -38 -451 -406 c-249 -223 -461 -414 -471 -424 -19
-18 -19 -19 -1 -39 10 -11 21 -20 25 -20 5 0 218 189 475 421 257 231 472 418
479 416 12 -5 857 -282 1070 -351 l139 -45 86 77 c47 43 183 166 301 273 118
107 299 270 403 363 103 93 187 175 187 182 0 7 -13 75 -30 151 -16 76 -54
255 -84 398 -30 143 -76 358 -102 479 -39 183 -44 220 -33 231 8 7 201 180
429 385 228 205 431 388 451 407 l35 33 285 -60 c701 -149 936 -199 958 -202
22 -3 34 13 114 152 49 85 193 335 320 555 127 220 231 401 232 403 2 2 925
102 942 102 11 0 0 52 -12 56 -8 3 -222 -16 -476 -42 l-461 -49 -31 35 c-198
225 -511 570 -517 570 -4 0 -15 -9 -25 -20z m-3241 -2051 c138 -45 283 -91
321 -104 39 -13 185 -60 325 -105 140 -45 260 -87 266 -93 13 -13 25 -63 109
-467 30 -146 62 -294 70 -330 44 -195 85 -405 83 -416 -3 -10 -107 -106 -443
-409 -44 -40 -168 -152 -275 -249 -107 -97 -201 -176 -209 -176 -8 0 -202 61
-430 136 -229 75 -491 160 -583 190 -149 49 -167 57 -172 80 -4 14 -24 109
-46 212 -21 103 -46 221 -55 262 -32 146 -64 297 -104 490 -23 107 -44 203
-47 212 -3 12 36 53 138 146 497 449 781 702 791 702 6 0 123 -36 261 -81z"/>
<path d="M5055 2899 c-4 -17 -5 -32 -3 -33 13 -12 904 -294 909 -288 4 4 10
17 13 29 7 22 -52 43 -886 313 -24 8 -27 6 -33 -21z"/>
<path d="M4217 2153 c-21 -6 -31 50 87 -503 82 -387 94 -435 111 -438 49 -6
49 -4 -50 464 -53 247 -98 457 -101 467 -5 17 -13 19 -47 10z"/>
<path d="M5818 1217 l-356 -322 23 -24 23 -24 357 323 356 322 -22 24 c-12 13
-23 24 -23 23 -1 0 -161 -145 -358 -322z"/>
<path d="M8241 5036 l-22 -24 272 -301 271 -302 24 22 24 23 -33 35 c-19 20
-136 151 -262 291 -125 140 -233 261 -240 268 -9 10 -16 7 -34 -12z"/>
<path d="M10280 4885 c-63 -20 -123 -74 -151 -137 -19 -43 -24 -70 -24 -143 0
-106 14 -153 63 -207 58 -64 103 -82 202 -82 67 0 96 5 138 23 52 23 52 24 52
69 l0 45 -22 -21 c-61 -56 -172 -77 -245 -47 -86 36 -117 95 -117 220 0 125
31 184 117 220 69 29 169 14 238 -36 l30 -21 -3 43 c-3 42 -5 44 -53 62 -68
25 -168 31 -225 12z"/>
<path d="M10660 4605 l0 -285 30 0 30 0 0 140 0 140 130 0 130 0 0 30 0 30
-130 0 -130 0 0 85 0 85 150 0 150 0 0 30 0 30 -180 0 -180 0 0 -285z"/>
<path d="M11088 4618 c-31 -8 -38 -15 -38 -34 0 -28 -2 -28 43 -9 52 22 113
19 137 -5 45 -45 4 -120 -65 -120 -28 0 -35 -4 -35 -20 0 -17 7 -20 39 -20 60
0 86 -27 86 -90 0 -44 -4 -55 -28 -76 -33 -28 -89 -32 -144 -9 -45 19 -43 19
-43 -9 0 -20 7 -25 44 -35 94 -23 162 -4 203 58 41 61 23 146 -37 171 l-31 13
30 18 c77 47 66 135 -22 168 -34 13 -88 13 -139 -1z"/>
<path d="M7336 3754 c-4 -15 -5 -29 -2 -31 3 -3 213 -50 468 -104 480 -102
482 -102 476 -54 -3 18 -50 30 -458 117 -250 53 -460 97 -466 98 -7 0 -15 -12
-18 -26z"/>
</g>
</svg>
