<?xml version="1.0" standalone="no"?>
<!DOCTYPE svg PUBLIC "-//W3C//DTD SVG 20010904//EN"
 "http://www.w3.org/TR/2001/REC-SVG-20010904/DTD/svg10.dtd">
<svg version="1.0" xmlns="http://www.w3.org/2000/svg"
 width="1133.000000pt" height="522.000000pt" viewBox="0 0 1133.000000 522.000000"
 preserveAspectRatio="xMidYMid meet">

<g transform="translate(0.000000,522.000000) scale(0.100000,-0.100000)"
fill="#ffffff" stroke="none">
<path d="M1350 4961 c-99 -32 -185 -110 -234 -211 -29 -62 -31 -71 -31 -185 0
-119 0 -121 39 -203 45 -94 84 -135 172 -178 53 -26 69 -29 159 -29 93 0 105
2 167 33 132 65 198 175 206 343 9 197 -61 330 -214 405 -50 25 -72 29 -149
31 -49 1 -101 -1 -115 -6z m216 -105 c105 -49 154 -144 154 -300 0 -133 -17
-182 -85 -244 -67 -62 -106 -75 -198 -70 -62 3 -79 8 -120 37 -58 39 -103 99
-118 155 -16 58 -6 241 15 291 56 131 220 192 352 131z"/>
<path d="M315 4948 c-3 -7 -4 -186 -3 -398 l3 -385 50 0 50 0 3 183 2 182 200
0 200 0 2 -182 3 -183 55 0 55 0 0 395 0 395 -55 0 -55 0 -3 -157 -3 -158
-199 0 -199 0 -3 158 -3 157 -48 3 c-32 2 -49 -1 -52 -10z"/>
<path d="M3845 4194 c-423 -246 -780 -451 -792 -457 -19 -8 -95 33 -571 312
-302 176 -552 321 -555 321 -6 0 -37 -53 -37 -63 0 -3 247 -148 550 -322 l550
-317 0 -898 0 -898 -565 -332 c-311 -183 -565 -336 -565 -341 0 -22 25 -59 37
-55 8 3 266 152 573 332 347 202 566 324 575 320 9 -3 363 -207 787 -452 424
-246 779 -448 787 -451 9 -2 381 207 826 464 l810 468 3 922 2 921 770 442
c445 256 776 440 785 436 8 -3 354 -202 770 -442 l755 -436 2 -676 3 -677 40
0 40 0 0 695 0 695 -805 468 c-443 257 -812 466 -821 464 -8 -3 -364 -206
-790 -453 -426 -247 -783 -448 -794 -448 -11 0 -368 201 -794 448 -426 247
-782 450 -790 453 -9 2 -362 -198 -786 -443z m1557 -85 l768 -441 0 -898 0
-898 -768 -446 c-423 -245 -772 -446 -777 -446 -5 0 -354 201 -777 446 l-768
446 0 898 0 898 768 441 c422 242 771 441 776 441 5 0 355 -198 778 -441z"/>
<path d="M4625 4280 c-9 -18 -13 -36 -8 -40 11 -10 1269 -739 1288 -746 16 -7
51 54 38 66 -11 10 -1269 739 -1288 746 -8 4 -20 -6 -30 -26z"/>
<path d="M3275 3518 c-3 -7 -4 -350 -3 -763 l3 -750 40 0 40 0 0 760 0 760
-38 3 c-24 2 -39 -1 -42 -10z"/>
<path d="M5263 1667 c-353 -205 -645 -376 -648 -379 -12 -11 26 -70 40 -64 19
7 1277 736 1288 746 9 8 -18 70 -31 70 -4 0 -296 -168 -649 -373z"/>
<path d="M9075 2197 c-3 -6 -4 -185 -3 -397 l3 -385 50 0 50 0 3 305 2 304
206 -307 205 -308 52 3 52 3 0 395 0 395 -50 0 -50 0 -3 -305 -2 -304 -205
307 -205 307 -50 0 c-31 0 -52 -5 -55 -13z"/>
<path d="M9875 2198 c-3 -7 -4 -186 -3 -398 l3 -385 55 0 55 0 3 183 2 182
200 0 200 0 2 -182 3 -183 50 0 50 0 0 395 0 395 -50 0 -50 0 -3 -157 -3 -158
-199 0 -199 0 -3 158 -3 157 -53 3 c-36 2 -54 -1 -57 -10z"/>
<path d="M10663 1781 c-49 -23 -73 -55 -80 -111 l-6 -40 37 0 c32 0 36 3 36
26 0 15 12 38 29 55 25 25 37 29 81 29 44 0 56 -4 81 -29 23 -24 29 -38 29
-74 0 -65 -41 -115 -203 -249 -56 -47 -107 -123 -107 -160 l0 -28 198 2 197 3
0 35 0 35 -148 3 -147 3 126 121 c69 67 134 139 145 160 39 76 17 159 -54 212
-41 30 -156 34 -214 7z"/>
<path d="M315 1288 c-3 -7 -4 -189 -3 -403 l3 -390 50 0 50 0 3 188 2 187 200
0 200 0 2 -187 3 -188 55 0 55 0 0 400 0 400 -55 0 -55 0 -3 -162 -2 -163
-200 0 -200 0 -2 163 -3 162 -48 3 c-32 2 -49 -1 -52 -10z"/>
<path d="M1333 1286 c-95 -31 -186 -117 -225 -214 -19 -48 -23 -76 -23 -177 0
-116 1 -123 34 -192 41 -87 113 -161 186 -189 38 -14 75 -19 155 -19 97 0 110
2 164 30 147 75 214 205 204 401 -3 74 -10 101 -37 160 -39 85 -104 153 -176
185 -62 28 -217 36 -282 15z m271 -119 c82 -54 109 -115 114 -253 7 -170 -31
-254 -140 -308 -65 -33 -171 -36 -233 -7 -52 23 -128 108 -143 159 -17 56 -15
208 4 271 19 65 73 126 139 158 42 20 63 23 126 21 69 -3 81 -7 133 -41z"/>
</g>
</svg>
