<?xml version="1.0" standalone="no"?>
<!DOCTYPE svg PUBLIC "-//W3C//DTD SVG 20010904//EN"
 "http://www.w3.org/TR/2001/REC-SVG-20010904/DTD/svg10.dtd">
<svg version="1.0" xmlns="http://www.w3.org/2000/svg"
 width="587.000000pt" height="635.000000pt" viewBox="0 0 587.000000 635.000000"
 preserveAspectRatio="xMidYMid meet">

<g transform="translate(0.000000,635.000000) scale(0.100000,-0.100000)"
fill="#ffffff" stroke="none">
<path d="M1639 6224 c-45 -8 -132 -67 -160 -109 -37 -54 -54 -116 -54 -200 1
-96 28 -175 82 -235 52 -58 108 -80 202 -80 114 0 194 52 236 154 18 43 14 51
-30 60 -28 6 -31 4 -53 -43 -31 -68 -70 -94 -147 -99 -125 -7 -194 66 -203
217 -10 180 73 283 218 269 59 -6 104 -37 126 -87 17 -38 17 -38 56 -28 44 11
44 24 2 89 -36 57 -102 90 -182 93 -37 2 -79 1 -93 -1z"/>
<path d="M3136 6214 c-73 -23 -150 -104 -172 -180 -37 -127 -14 -257 60 -341
53 -60 106 -85 192 -91 88 -6 154 14 212 64 118 100 136 320 37 455 -65 90
-211 131 -329 93z m216 -90 c64 -45 91 -106 91 -207 1 -69 -3 -92 -23 -132
-37 -72 -87 -108 -159 -113 -73 -5 -118 9 -160 50 -48 47 -64 85 -69 164 -11
173 76 280 221 271 44 -2 67 -10 99 -33z"/>
<path d="M2070 5915 l0 -305 40 0 40 0 0 140 0 140 155 0 155 0 0 -140 0 -140
45 0 45 0 0 305 0 305 -45 0 -45 0 0 -125 0 -125 -155 0 -155 0 0 125 0 125
-40 0 -40 0 0 -305z"/>
<path d="M3640 5915 l0 -305 40 0 40 0 0 140 0 140 160 0 160 0 0 -140 0 -140
40 0 40 0 0 305 0 305 -40 0 -40 0 0 -125 0 -125 -160 0 -160 0 0 125 0 125
-40 0 -40 0 0 -305z"/>
<path d="M2683 5891 c-43 -20 -73 -62 -73 -101 0 -31 54 -24 58 7 8 59 103 83
147 38 49 -48 24 -109 -84 -202 -73 -64 -131 -127 -131 -144 0 -4 -3 -14 -6
-23 -5 -14 12 -16 150 -16 l156 0 0 25 0 25 -110 0 c-60 0 -110 4 -110 8 0 4
45 49 99 100 106 98 128 136 117 196 -11 55 -80 106 -144 106 -15 0 -46 -9
-69 -19z"/>
<path d="M1660 5032 l0 -487 -620 -620 -620 -620 0 458 0 457 -30 0 -30 0 0
-502 1 -503 612 -687 612 -687 958 -1 957 0 0 -480 0 -480 30 0 30 0 0 443 0
442 645 725 645 725 0 503 0 502 -30 0 -30 0 0 -457 0 -458 -478 478 c-471
471 -478 478 -496 458 -18 -20 -11 -28 465 -510 266 -270 484 -495 484 -500 0
-6 -303 -281 -673 -611 l-672 -600 -850 0 -850 0 0 450 0 450 -30 0 -30 0 -2
-389 -3 -389 -603 538 c-332 296 -606 541 -610 544 -3 4 279 292 628 641 l635
635 722 0 723 0 0 30 0 30 -715 0 -715 0 0 480 0 480 -30 0 -30 0 0 -488z"/>
<path d="M314 4921 c-133 -34 -214 -152 -214 -312 0 -182 120 -309 291 -309
175 0 289 126 289 318 0 177 -105 298 -267 307 -38 2 -82 1 -99 -4z m161 -80
c83 -37 120 -110 119 -236 0 -89 -19 -138 -71 -187 -37 -35 -73 -48 -133 -48
-62 0 -97 13 -138 53 -52 50 -66 90 -66 192 0 97 17 147 66 192 56 53 151 67
223 34z"/>
<path d="M4724 4912 c-54 -19 -93 -46 -125 -86 -60 -77 -84 -210 -55 -310 42
-144 138 -216 286 -216 57 0 78 5 131 33 103 53 153 144 153 282 1 101 -25
167 -89 231 -80 81 -189 104 -301 66z m181 -71 c83 -38 125 -114 125 -225 0
-114 -35 -186 -110 -223 -95 -48 -203 -22 -264 65 -26 37 -30 52 -34 130 -5
112 8 162 58 212 60 60 149 76 225 41z"/>
<path d="M790 4615 l0 -305 40 0 40 0 0 140 0 140 160 0 160 0 0 -140 0 -140
40 0 40 0 0 305 0 305 -40 0 -40 0 0 -125 0 -125 -160 0 -160 0 0 125 0 125
-40 0 -40 0 0 -305z"/>
<path d="M5220 4615 l0 -305 40 0 40 0 0 140 0 140 160 0 160 0 0 -140 0 -140
40 0 40 0 0 305 0 305 -40 0 -40 0 0 -125 0 -125 -160 0 -160 0 0 125 0 125
-40 0 -40 0 0 -305z"/>
<path d="M3394 4786 c-219 -102 -214 -478 8 -577 115 -51 259 -22 338 68 53
60 75 128 74 228 0 134 -61 237 -168 286 -62 28 -186 26 -252 -5z m218 -56
c20 -1 74 -61 94 -105 27 -56 32 -160 13 -230 -22 -78 -115 -145 -202 -145
-67 0 -146 55 -178 125 -21 46 -26 166 -8 228 27 97 127 155 234 135 22 -4 43
-7 47 -8z"/>
<path d="M1598 3616 c-89 -24 -166 -105 -189 -199 -55 -222 71 -417 272 -417
82 0 145 21 197 66 142 121 132 405 -18 509 -75 52 -168 66 -262 41z m204 -91
c60 -40 91 -114 90 -216 0 -95 -26 -156 -85 -203 -32 -26 -49 -31 -105 -34
-87 -5 -144 23 -186 91 -55 90 -44 266 21 332 70 71 184 84 265 30z"/>
<path d="M2090 3315 l0 -305 40 0 40 0 0 140 0 140 160 0 160 0 0 -140 0 -140
40 0 40 0 0 305 0 305 -40 0 -40 0 0 -125 0 -125 -160 0 -160 0 0 125 0 125
-40 0 -40 0 0 -305z"/>
<path d="M3425 788 c-50 -19 -114 -67 -140 -106 -58 -88 -69 -238 -24 -341 75
-175 316 -227 456 -98 55 51 78 95 94 179 26 144 -32 283 -143 343 -43 24 -67
29 -133 32 -44 1 -93 -2 -110 -9z m196 -81 c29 -16 54 -40 74 -72 28 -45 30
-55 30 -149 0 -89 -3 -106 -24 -143 -14 -24 -42 -55 -64 -70 -35 -24 -50 -28
-112 -28 -61 0 -77 4 -112 27 -61 40 -93 111 -93 207 0 42 5 93 10 113 33 116
179 174 291 115z"/>
<path d="M3920 485 l0 -305 45 0 45 0 0 145 0 145 155 0 155 0 0 -145 0 -145
40 0 40 0 0 305 0 305 -40 0 -40 0 0 -125 0 -125 -155 0 -155 0 0 125 0 125
-45 0 -45 0 0 -305z"/>
</g>
</svg>
