<?xml version="1.0" standalone="no"?>
<!DOCTYPE svg PUBLIC "-//W3C//DTD SVG 20010904//EN"
 "http://www.w3.org/TR/2001/REC-SVG-20010904/DTD/svg10.dtd">
<svg version="1.0" xmlns="http://www.w3.org/2000/svg"
 width="830.000000pt" height="447.000000pt" viewBox="0 0 830.000000 447.000000"
 preserveAspectRatio="xMidYMid meet">

<g transform="translate(0.000000,447.000000) scale(0.100000,-0.100000)"
fill="#fff" stroke="none">
<path d="M3030 2999 c-275 -48 -428 -212 -418 -447 4 -104 34 -178 97 -241 90
-90 158 -119 470 -201 264 -69 322 -92 379 -154 46 -49 57 -88 50 -172 -12
-143 -165 -238 -383 -238 -114 0 -184 14 -271 55 -108 51 -171 129 -198 247
l-13 57 -99 -3 c-54 -2 -100 -5 -102 -6 -1 -2 4 -39 12 -84 19 -109 66 -202
141 -277 122 -124 272 -176 510 -178 159 -1 224 12 343 68 90 43 185 134 225
217 103 215 28 444 -181 556 -85 46 -118 56 -377 123 -249 64 -324 94 -367
150 -61 76 -45 192 36 267 67 62 125 77 296 77 135 0 149 -2 200 -26 30 -14
69 -37 85 -52 39 -32 84 -114 93 -169 9 -51 14 -53 129 -43 82 7 83 7 83 33
-1 90 -56 208 -135 288 -105 106 -230 153 -430 159 -66 2 -145 0 -175 -6z"/>
<path d="M4545 3004 c-198 -32 -340 -124 -407 -263 -30 -61 -33 -74 -33 -166
0 -89 3 -107 29 -162 34 -75 108 -149 192 -191 68 -34 157 -62 403 -126 96
-25 198 -57 226 -70 95 -43 155 -125 155 -209 0 -15 -9 -51 -21 -81 -60 -163
-314 -237 -561 -165 -81 23 -129 50 -182 98 -44 42 -92 135 -102 199 l-7 45
-75 -7 c-41 -3 -86 -6 -99 -6 -20 0 -23 -5 -23 -37 0 -103 66 -249 149 -332
99 -99 231 -152 421 -171 313 -32 556 76 659 290 35 72 36 79 36 185 -1 97 -4
117 -27 165 -48 104 -137 183 -267 235 -34 14 -166 52 -294 85 -248 62 -293
78 -345 117 -45 34 -65 78 -65 143 0 99 63 181 168 217 72 26 309 25 382 0 97
-34 178 -132 197 -239 7 -36 9 -38 44 -38 20 0 67 3 103 6 l65 7 -9 61 c-28
187 -154 321 -362 386 -70 21 -277 35 -350 24z"/>
<path d="M6185 3006 c-5 -2 -44 -12 -85 -21 -249 -57 -426 -220 -509 -470 -91
-274 -50 -642 98 -868 130 -198 313 -288 586 -290 192 -1 305 32 432 126 104
77 195 214 236 354 l16 53 -37 9 c-107 28 -161 41 -170 41 -5 0 -13 -17 -17
-37 -10 -55 -68 -171 -109 -219 -81 -95 -201 -145 -346 -145 -117 0 -202 24
-289 82 -74 49 -112 94 -152 176 -56 116 -72 200 -73 378 -1 184 20 291 76
399 88 167 276 267 478 253 188 -14 306 -97 377 -267 l28 -65 103 24 c118 27
114 16 53 146 -69 148 -198 261 -355 311 -65 21 -106 27 -206 30 -69 2 -129 2
-135 0z"/>
<path d="M2057 2358 c-4 -653 -4 -661 -50 -729 -56 -83 -214 -112 -309 -56
-26 15 -56 42 -67 60 -23 37 -51 144 -51 195 0 37 4 36 -109 20 l-84 -11 6
-86 c7 -103 35 -186 88 -258 102 -136 367 -182 554 -95 112 53 169 122 209
251 19 63 20 98 24 699 l3 632 -105 0 -105 0 -4 -622z"/>
</g>
</svg>
