<?xml version="1.0" standalone="no"?>
<!DOCTYPE svg PUBLIC "-//W3C//DTD SVG 20010904//EN"
 "http://www.w3.org/TR/2001/REC-SVG-20010904/DTD/svg10.dtd">
<svg version="1.0" xmlns="http://www.w3.org/2000/svg"
 width="791.000000pt" height="785.000000pt" viewBox="0 0 791.000000 785.000000"
 preserveAspectRatio="xMidYMid meet">

<g transform="translate(0.000000,785.000000) scale(0.100000,-0.100000)"
fill="#ffffff" stroke="none">
<path d="M5806 7595 c-111 -39 -164 -178 -121 -322 33 -111 164 -173 273 -127
83 34 132 117 132 224 0 173 -134 279 -284 225z m151 -55 c49 -29 73 -86 73
-170 0 -122 -54 -190 -150 -190 -95 0 -150 69 -150 190 0 121 55 190 150 190
27 0 58 -8 77 -20z"/>
<path d="M5788 6753 l-3 -307 -342 -198 -343 -197 -240 139 c-226 130 -241
137 -251 118 -6 -11 -9 -21 -7 -23 2 -2 104 -63 228 -135 123 -72 230 -136
237 -142 11 -8 13 -101 11 -447 l-3 -436 -242 -140 c-133 -77 -242 -142 -242
-145 0 -3 6 -13 13 -23 13 -16 32 -7 255 123 l241 141 248 -144 c217 -127 249
-142 260 -129 7 9 11 20 9 25 -1 5 -112 72 -245 149 l-242 140 2 445 3 445
378 219 c337 195 381 218 400 207 12 -6 122 -69 244 -140 122 -70 225 -128
230 -128 4 0 13 8 20 18 10 16 -10 30 -196 138 l-206 119 -3 308 -2 307 -25 0
-25 0 0 -290 c0 -159 -3 -290 -7 -290 -5 0 -16 7 -27 15 -16 12 -22 12 -47 -1
l-29 -15 0 291 0 290 -25 0 -25 0 -2 -307z"/>
<path d="M338 6691 c-83 -27 -133 -87 -148 -174 -19 -120 22 -228 105 -271 52
-27 151 -28 218 -3 43 17 47 21 47 53 l0 34 -41 -27 c-59 -39 -150 -44 -198
-11 -56 38 -76 81 -76 168 0 58 5 83 21 110 49 84 136 103 238 52 l56 -29 0
32 c0 29 -5 35 -42 50 -50 20 -142 28 -180 16z"/>
<path d="M640 6460 l0 -230 25 0 25 0 0 115 0 115 125 0 125 0 0 -115 0 -115
25 0 25 0 0 230 0 230 -25 0 c-25 0 -25 -1 -25 -90 l0 -90 -125 0 -125 0 0 90
c0 89 0 90 -25 90 l-25 0 0 -230z"/>
<path d="M4150 6460 l0 -230 25 0 25 0 2 196 3 195 114 -195 c113 -192 116
-196 148 -196 l33 0 0 230 0 230 -25 0 -25 0 0 -186 c0 -102 -4 -183 -8 -180
-5 3 -56 86 -113 185 l-104 180 -37 1 -38 0 0 -230z"/>
<path d="M2331 6279 c-217 -125 -397 -226 -401 -224 -4 2 -126 73 -272 158
-262 152 -266 154 -277 131 -12 -27 -44 -5 292 -199 l237 -137 0 -442 0 -442
-329 -190 c-302 -174 -328 -191 -319 -209 6 -11 12 -21 13 -23 1 -1 151 83
332 188 l331 191 394 -229 395 -229 397 229 396 229 248 -145 c218 -127 248
-142 260 -128 7 9 11 20 9 25 -1 5 -112 72 -245 149 l-242 140 2 445 3 445
242 141 c219 127 240 142 230 158 -7 11 -15 19 -19 19 -5 0 -116 -63 -248
-139 l-239 -140 -343 198 c-189 108 -368 211 -398 228 l-55 31 -394 -229z
m747 -30 c191 -110 364 -212 385 -225 l37 -24 -2 -438 -3 -437 -384 -222 -384
-223 -31 19 c-17 10 -173 100 -346 201 -173 100 -332 193 -352 206 l-38 24 0
438 0 438 383 222 c210 122 383 222 385 222 1 0 158 -90 350 -201z"/>
<path d="M2402 6132 c-171 -97 -312 -180 -312 -183 0 -3 6 -13 13 -23 12 -17
36 -6 323 159 170 97 310 178 312 180 2 2 -2 13 -10 24 -14 19 -24 14 -326
-157z"/>
<path d="M3330 5565 l0 -365 25 0 25 0 0 365 0 365 -25 0 -25 0 0 -365z"/>
<path d="M2100 5200 c-12 -22 -36 -6 340 -220 118 -67 229 -131 246 -141 l31
-19 11 24 c10 24 3 28 -297 200 -170 97 -311 176 -314 176 -4 0 -11 -9 -17
-20z"/>
<path d="M1148 6458 c-18 -6 -28 -17 -28 -30 0 -15 4 -18 18 -13 9 4 38 10 63
12 38 4 51 1 68 -16 11 -11 21 -26 21 -31 0 -21 -49 -60 -75 -60 -18 0 -25 -5
-25 -20 0 -15 7 -20 28 -20 65 0 96 -66 52 -110 -24 -24 -88 -27 -130 -5 -29
15 -30 15 -30 -9 0 -21 7 -27 42 -37 60 -16 115 -6 150 28 25 24 28 34 26 72
-3 38 -8 49 -34 66 l-31 21 28 16 c33 20 46 59 30 94 -20 45 -108 66 -173 42z"/>
<path d="M6520 6010 l0 -230 25 0 25 0 0 197 c0 133 3 194 10 187 6 -6 59 -93
118 -195 102 -173 110 -184 140 -187 l32 -3 0 230 0 231 -25 0 -25 0 -2 -186
-3 -186 -109 186 -108 186 -39 0 -39 0 0 -230z"/>
<path d="M6990 6010 l0 -230 30 0 30 0 0 115 0 115 120 0 120 0 0 -115 0 -115
25 0 25 0 0 230 0 230 -25 0 c-25 0 -25 -1 -25 -90 l0 -90 -120 0 -120 0 0 90
0 90 -30 0 -30 0 0 -230z"/>
<path d="M4523 6162 c-10 -17 8 -30 195 -137 192 -109 207 -116 219 -99 11 15
11 20 1 30 -17 15 -385 224 -395 224 -5 0 -13 -8 -20 -18z"/>
<path d="M6660 5413 l0 -288 -240 -139 c-132 -76 -240 -144 -240 -150 1 -44
19 -38 219 78 l202 117 281 -161 c155 -88 282 -159 283 -158 1 2 7 12 12 23
10 18 -11 32 -253 170 -145 83 -263 153 -264 156 0 3 11 12 24 19 17 9 26 23
28 45 l3 32 265 -152 c258 -149 272 -155 282 -118 2 7 -121 83 -272 171 l-275
158 -3 242 -2 242 -25 0 -25 0 0 -287z"/>
<path d="M5263 5201 c-12 -18 3 -29 198 -140 116 -67 215 -121 219 -121 9 0
25 39 18 44 -10 9 -411 236 -417 236 -3 0 -12 -9 -18 -19z"/>
<path d="M338 4871 c-83 -27 -133 -87 -148 -174 -19 -120 22 -228 105 -271 52
-27 151 -28 218 -3 43 17 47 21 47 53 l0 34 -41 -27 c-59 -39 -150 -44 -198
-11 -56 38 -76 81 -76 168 0 58 5 83 21 110 49 84 136 103 238 52 l56 -29 0
32 c0 29 -5 35 -42 50 -50 20 -142 28 -180 16z"/>
<path d="M7386 4865 c-111 -39 -164 -178 -121 -322 33 -111 164 -173 273 -127
83 34 132 117 132 224 0 173 -134 279 -284 225z m151 -55 c49 -29 73 -86 73
-170 0 -122 -54 -190 -150 -190 -95 0 -150 69 -150 190 0 121 55 190 150 190
27 0 58 -8 77 -20z"/>
<path d="M640 4640 l0 -230 25 0 25 0 0 115 0 115 125 0 125 0 0 -115 0 -115
25 0 25 0 0 230 0 230 -25 0 c-25 0 -25 -1 -25 -90 l0 -90 -125 0 -125 0 0 90
c0 89 0 90 -25 90 l-25 0 0 -230z"/>
<path d="M4150 4630 l0 -230 25 0 25 0 2 196 3 195 114 -195 c113 -192 116
-196 148 -196 l33 0 0 230 0 230 -25 0 -25 0 0 -186 c0 -102 -4 -183 -8 -180
-5 3 -56 86 -113 185 l-104 180 -37 1 -38 0 0 -230z"/>
<path d="M5730 4630 l0 -230 25 0 25 0 0 197 c0 133 3 194 10 187 6 -6 59 -93
118 -195 102 -173 110 -184 140 -187 l32 -3 0 230 0 231 -25 0 -25 0 -2 -186
-3 -186 -109 186 -108 186 -39 0 -39 0 0 -230z"/>
<path d="M1148 4638 c-18 -6 -28 -17 -28 -30 0 -15 4 -18 18 -13 9 4 38 10 63
12 38 4 51 1 68 -16 11 -11 21 -26 21 -31 0 -21 -49 -60 -75 -60 -18 0 -25 -5
-25 -20 0 -15 7 -20 28 -20 65 0 96 -66 52 -110 -24 -24 -88 -27 -130 -5 -29
15 -30 15 -30 -9 0 -21 7 -27 42 -37 60 -16 115 -6 150 28 25 24 28 34 26 72
-3 38 -8 49 -34 66 l-31 21 28 16 c33 20 46 59 30 94 -20 45 -108 66 -173 42z"/>
<path d="M4288 4026 l-3 -304 365 -211 c201 -116 380 -220 398 -231 l32 -20 0
-434 c0 -335 -3 -436 -12 -443 -7 -5 -110 -52 -228 -103 -118 -51 -239 -104
-268 -117 l-53 -23 37 -68 c20 -37 42 -73 49 -80 10 -11 54 17 246 158 129 95
240 175 246 177 7 3 184 -93 393 -213 l380 -219 2 -459 3 -458 268 -155 c251
-145 270 -153 282 -136 11 14 11 21 2 29 -7 6 -123 75 -259 154 l-248 142 0
457 0 457 -392 226 -393 227 -3 458 -2 458 -395 228 -395 229 0 289 0 289 -25
0 -24 0 -3 -304z"/>
<path d="M5805 3947 c-51 -20 -80 -45 -106 -89 -21 -37 -24 -56 -24 -139 0
-89 2 -99 30 -144 83 -134 283 -124 358 19 17 33 21 58 21 126 0 96 -20 148
-74 193 -52 44 -141 59 -205 34z m153 -57 c46 -28 72 -89 72 -170 0 -121 -55
-190 -151 -190 -96 0 -151 69 -151 190 0 84 22 135 71 167 44 30 113 31 159 3z"/>
<path d="M6180 3720 l0 -230 25 0 25 0 0 115 0 115 125 0 125 0 0 -115 0 -115
25 0 25 0 0 230 0 230 -25 0 c-25 0 -25 -1 -25 -90 l0 -90 -125 0 -125 0 0 90
c0 89 0 90 -25 90 l-25 0 0 -230z"/>
<path d="M5547 3645 c-18 -13 -17 -17 24 -87 23 -40 43 -74 43 -75 4 -5 46 10
46 17 0 9 -75 139 -87 151 -4 4 -16 2 -26 -6z"/>
<path d="M5437 3555 c-16 -12 -15 -16 15 -69 34 -56 42 -63 67 -47 11 7 8 19
-18 65 -38 66 -41 68 -64 51z"/>
<path d="M5323 3469 c-9 -9 -6 -23 9 -54 19 -40 23 -42 45 -32 13 6 22 13 20
16 -1 3 -11 23 -22 44 -19 38 -33 45 -52 26z"/>
<path d="M5218 3384 c-13 -13 -14 -22 -6 -40 9 -19 14 -21 34 -12 22 10 22 12
8 39 -17 34 -15 33 -36 13z"/>
<path d="M6596 2575 c-111 -39 -164 -178 -121 -322 33 -111 164 -173 273 -127
83 34 132 117 132 224 0 173 -134 279 -284 225z m151 -55 c49 -29 73 -86 73
-170 0 -122 -54 -190 -150 -190 -95 0 -150 69 -150 190 0 121 55 190 150 190
27 0 58 -8 77 -20z"/>
<path d="M6970 2350 l0 -230 30 0 30 0 0 115 0 115 120 0 120 0 0 -115 0 -115
25 0 25 0 0 230 0 230 -25 0 c-25 0 -25 -1 -25 -90 l0 -90 -120 0 -120 0 0 90
0 90 -30 0 -30 0 0 -230z"/>
<path d="M6338 2274 c-14 -14 -11 -23 26 -90 41 -74 49 -81 75 -65 11 7 5 24
-28 85 -23 41 -46 78 -50 80 -4 3 -15 -2 -23 -10z"/>
<path d="M6228 2184 c-14 -15 -13 -21 16 -70 32 -54 40 -61 65 -45 11 7 7 21
-20 70 -18 33 -36 61 -39 61 -3 0 -13 -7 -22 -16z"/>
<path d="M4235 2126 c-50 -19 -102 -77 -116 -130 -6 -23 -9 -78 -7 -124 4 -71
8 -88 34 -124 44 -63 85 -83 169 -83 84 0 125 20 170 84 29 41 30 47 30 151 0
104 -1 110 -30 151 -17 24 -45 52 -63 62 -43 25 -136 31 -187 13z m155 -54
c51 -28 75 -82 75 -172 0 -56 -5 -85 -21 -114 -52 -100 -198 -102 -255 -3 -34
60 -34 174 0 234 40 70 127 94 201 55z"/>
<path d="M3660 1900 l0 -230 30 0 30 0 0 115 0 115 120 0 120 0 0 -115 0 -115
25 0 25 0 0 230 0 230 -25 0 c-25 0 -25 -1 -25 -90 l0 -90 -120 0 -120 0 0 90
0 90 -30 0 -30 0 0 -230z"/>
<path d="M6118 2099 c-17 -9 -17 -12 2 -49 20 -39 51 -53 65 -30 6 10 -34 90
-44 90 -3 0 -14 -5 -23 -11z"/>
<path d="M6002 2008 c-15 -15 3 -48 28 -48 26 0 33 15 18 40 -14 23 -29 25
-46 8z"/>
<path d="M6597 746 c-87 -32 -130 -106 -129 -225 0 -91 20 -149 68 -190 66
-59 181 -65 256 -16 120 79 119 331 -1 410 -49 33 -137 42 -194 21z m169 -67
c45 -42 58 -78 58 -159 0 -119 -44 -180 -136 -187 -108 -8 -163 56 -163 187 0
90 23 143 76 172 48 27 129 20 165 -13z"/>
<path d="M6980 520 l0 -230 25 0 25 0 0 115 0 115 125 0 125 0 0 -115 0 -115
25 0 25 0 0 230 0 230 -25 0 c-25 0 -25 -1 -25 -90 l0 -90 -125 0 -125 0 0 90
c0 89 0 90 -25 90 l-25 0 0 -230z"/>
</g>
</svg>
