<?xml version="1.0" standalone="no"?>
<!DOCTYPE svg PUBLIC "-//W3C//DTD SVG 20010904//EN"
 "http://www.w3.org/TR/2001/REC-SVG-20010904/DTD/svg10.dtd">
<svg version="1.0" xmlns="http://www.w3.org/2000/svg"
 width="1286.000000pt" height="1021.000000pt" viewBox="0 0 1286.000000 1021.000000"
 preserveAspectRatio="xMidYMid meet">

<g transform="translate(0.000000,1021.000000) scale(0.100000,-0.100000)"
fill="#ffffff" stroke="none">
<path d="M10215 9098 c-3 -7 -4 -195 -3 -418 l3 -405 50 0 50 0 5 318 5 318
225 -318 225 -318 50 0 50 0 0 415 0 415 -50 0 -50 0 -5 -325 -5 -325 -225
325 -225 325 -48 3 c-32 2 -49 -1 -52 -10z"/>
<path d="M10995 9098 c-3 -7 -4 -195 -3 -418 l3 -405 50 0 50 0 3 188 2 187
225 0 225 0 2 -187 3 -188 50 0 50 0 0 415 0 415 -50 0 -50 0 -3 -177 -2 -178
-225 0 -225 0 -2 178 -3 177 -48 3 c-32 2 -49 -1 -52 -10z"/>
<path d="M11868 8660 c-47 -25 -79 -70 -85 -121 l-6 -40 34 3 c29 2 34 7 37
30 2 15 17 41 33 58 26 25 38 30 81 30 41 0 54 -5 79 -29 32 -32 39 -87 16
-128 -7 -12 -74 -89 -150 -173 -186 -204 -188 -195 58 -195 l190 0 0 35 0 35
-133 3 -133 3 87 92 c122 129 164 196 164 261 0 61 -23 100 -77 133 -49 30
-141 31 -195 3z"/>
<path d="M10159 7608 l-165 -503 -821 -170 c-452 -94 -825 -174 -829 -178 -4
-4 -125 -368 -268 -810 l-261 -802 -780 -253 c-429 -138 -789 -251 -800 -249
-11 2 -336 187 -723 411 -386 223 -713 411 -726 417 -19 9 -30 7 -62 -13 -65
-41 -1392 -808 -1409 -814 -9 -4 -210 107 -511 282 -467 270 -497 286 -510
269 -8 -10 -14 -24 -14 -31 0 -7 220 -141 490 -299 l490 -287 2 -846 3 -847
745 -428 c416 -238 752 -426 762 -423 9 2 340 189 736 415 396 226 725 411
732 411 6 0 250 -77 541 -172 291 -94 531 -169 534 -167 3 3 7 19 11 35 l6 30
-531 174 -531 174 0 821 0 821 769 252 c423 139 774 252 779 252 9 0 908
-1234 952 -1306 13 -20 -6 -50 -260 -404 l-273 -383 24 -18 c13 -10 27 -19 31
-19 4 0 127 165 274 368 147 202 278 381 291 399 12 17 23 34 23 38 0 3 -22
33 -48 68 -109 140 -942 1296 -942 1307 0 16 500 1554 508 1562 4 3 372 84
817 179 446 94 815 173 821 175 13 3 362 1040 353 1048 -3 3 -19 8 -35 12
l-29 6 -166 -504z m-4677 -2619 l708 -411 0 -828 0 -828 -679 -390 c-373 -215
-693 -398 -712 -407 l-34 -16 -713 407 -712 407 0 827 0 828 708 410 c389 226
711 411 716 411 5 1 328 -184 718 -410z"/>
<path d="M4771 5091 c-6 -11 -11 -24 -11 -29 0 -6 259 -160 576 -343 542 -313
577 -331 590 -314 8 10 14 24 14 31 0 10 -1096 652 -1144 670 -8 3 -19 -3 -25
-15z"/>
<path d="M3575 4408 c-3 -7 -4 -310 -3 -673 l3 -660 35 0 35 0 0 670 0 670
-33 3 c-20 2 -34 -2 -37 -10z"/>
<path d="M5335 2770 c-313 -181 -571 -335 -573 -342 -1 -7 4 -22 11 -32 14
-19 44 -2 591 313 317 183 576 337 576 343 0 14 -20 48 -28 48 -4 0 -263 -149
-577 -330z"/>
<path d="M1713 5856 c-117 -37 -212 -146 -242 -276 -18 -77 -13 -230 9 -301
56 -181 184 -266 389 -257 86 3 103 7 160 38 74 40 128 102 163 187 20 51 23
74 23 198 -1 123 -4 147 -25 200 -32 83 -123 174 -203 203 -67 26 -205 29
-274 8z m242 -105 c51 -23 98 -71 127 -130 20 -41 23 -61 23 -176 0 -122 -2
-133 -27 -180 -53 -100 -124 -145 -229 -145 -81 0 -130 16 -179 58 -68 57 -93
120 -98 238 -7 171 38 271 147 327 68 34 172 38 236 8z"/>
<path d="M685 5848 c-3 -7 -4 -193 -3 -413 l3 -400 50 0 50 0 3 183 2 182 220
0 220 0 2 -182 3 -183 55 0 55 0 0 410 0 410 -55 0 -55 0 -3 -172 -2 -173
-220 0 -220 0 -2 173 -3 172 -48 3 c-32 2 -49 -1 -52 -10z"/>
<path d="M7696 4791 c-17 -19 -5 -37 368 -560 213 -298 390 -541 395 -541 4 0
18 11 30 24 l23 25 -392 535 c-215 295 -395 536 -399 536 -4 0 -16 -9 -25 -19z"/>
<path d="M7515 2798 c-3 -7 -4 -193 -3 -413 l3 -400 50 0 50 0 5 320 5 320
225 -320 225 -320 50 0 50 0 0 410 0 410 -50 0 -50 0 -5 -325 -5 -325 -225
325 -225 325 -48 3 c-32 2 -49 -1 -52 -10z"/>
<path d="M7515 1858 c-3 -7 -4 -195 -3 -418 l3 -405 50 0 50 0 3 188 2 187
225 0 225 0 2 -187 3 -188 50 0 50 0 0 415 0 415 -50 0 -50 0 -3 -177 -2 -178
-225 0 -225 0 -2 178 -3 177 -48 3 c-32 2 -49 -1 -52 -10z"/>
</g>
</svg>
